<?xml version="1.0" encoding="UTF-8" standalone="no"?>
<!-- Created with Inkscape (http://www.inkscape.org/) -->

<svg
   xmlns:dc="http://purl.org/dc/elements/1.1/"
   xmlns:cc="http://creativecommons.org/ns#"
   xmlns:rdf="http://www.w3.org/1999/02/22-rdf-syntax-ns#"
   xmlns:svg="http://www.w3.org/2000/svg"
   xmlns="http://www.w3.org/2000/svg"
   xmlns:sodipodi="http://sodipodi.sourceforge.net/DTD/sodipodi-0.dtd"
   xmlns:inkscape="http://www.inkscape.org/namespaces/inkscape"
   width="427"
   height="240"
   viewBox="0 0 427 240"
   id="svg2"
   version="1.1"
   inkscape:version="0.91 r13725"
   sodipodi:docname="virtualpad.svg">
  <defs
     id="defs4" />
  <sodipodi:namedview
     id="base"
     pagecolor="#ffffff"
     bordercolor="#666666"
     borderopacity="1.0"
     inkscape:pageopacity="0.0"
     inkscape:pageshadow="2"
     inkscape:zoom="1"
     inkscape:cx="191.87721"
     inkscape:cy="122.82734"
     inkscape:document-units="px"
     inkscape:current-layer="layer1"
     showgrid="false"
     units="px"
     inkscape:snap-bbox="true"
     inkscape:snap-bbox-midpoints="true"
     inkscape:snap-object-midpoints="true"
     inkscape:window-width="1366"
     inkscape:window-height="706"
     inkscape:window-x="0"
     inkscape:window-y="33"
     inkscape:window-maximized="1"
     inkscape:snap-page="true"
     showguides="false" />
  <metadata
     id="metadata7">
    <rdf:RDF>
      <cc:Work
         rdf:about="">
        <dc:format>image/svg+xml</dc:format>
        <dc:type
           rdf:resource="http://purl.org/dc/dcmitype/StillImage" />
        <dc:title></dc:title>
      </cc:Work>
    </rdf:RDF>
  </metadata>
  <g
     inkscape:label="Layer 1"
     inkscape:groupmode="layer"
     id="layer1"
     transform="translate(0,-812.36216)">
    <path
       style="opacity:0.75;fill:#cccccc;fill-opacity:1;stroke:none;stroke-width:0.5;stroke-miterlimit:4;stroke-dasharray:0.99999994, 0.99999994000000003;stroke-dashoffset:0"
       d="M 389 178 A 24 24 0 0 0 365 202 A 24 24 0 0 0 389 226 A 24 24 0 0 0 413 202 A 24 24 0 0 0 389 178 z M 389.01953 192.19922 C 390.49953 192.19922 391.69922 193.43992 391.69922 194.91992 L 391.69922 205.11914 C 391.69922 206.59914 390.49953 207.80078 389.01953 207.80078 C 387.53953 207.80078 386.30078 206.59914 386.30078 205.11914 L 386.30078 202.11914 C 386.30078 200.59914 387.53953 199.40039 389.01953 199.40039 C 389.57953 199.40039 390.06 199.55984 390.5 199.83984 L 390.5 194.91992 C 390.5 194.07992 389.81953 193.43945 389.01953 193.43945 C 388.17953 193.43945 387.53906 194.07992 387.53906 194.91992 C 387.53906 195.23992 387.25945 195.51953 386.93945 195.51953 C 386.57945 195.51953 386.30078 195.23992 386.30078 194.91992 C 386.30078 193.43992 387.53953 192.19922 389.01953 192.19922 z M 389.01953 200.64062 C 388.17953 200.64062 387.53906 201.27914 387.53906 202.11914 L 387.53906 205.11914 C 387.53906 205.91914 388.17953 206.59961 389.01953 206.59961 C 389.81953 206.59961 390.5 205.91914 390.5 205.11914 L 390.5 202.11914 C 390.5 201.27914 389.81953 200.64062 389.01953 200.64062 z M 389 215 A 1 1 0 0 1 390 216 A 1 1 0 0 1 389 217 A 1 1 0 0 1 388 216 A 1 1 0 0 1 389 215 z "
       id="circle4140"
       transform="translate(0,812.36216)"
       inkscape:export-filename="/home/camargo/github/dw/assets/ui/virtualpad/button-a.png"
       inkscape:export-xdpi="90"
       inkscape:export-ydpi="90" />
    <path
       style="opacity:0.75;fill:#cccccc;fill-opacity:1;stroke:none;stroke-width:0.5;stroke-miterlimit:4;stroke-dasharray:0.99999994, 0.99999994000000003;stroke-dashoffset:0"
       d="m 62,942.36216 a 48,48 0 0 0 -48,48 48,48 0 0 0 48,48.00004 48,48 0 0 0 48,-48.00004 48,48 0 0 0 -48,-48 z m 0,3 c 24.840969,0 45,20.15903 45,45 0,24.84094 -20.159031,45.00004 -45,45.00004 -24.840969,0 -45,-20.1591 -45,-45.00004 0,-24.84097 20.159031,-45 45,-45 z m 0,2 c -23.760089,0 -43,19.23991 -43,43 0,23.76004 19.239911,43.00004 43,43.00004 23.760089,0 43,-19.24 43,-43.00004 0,-23.76009 -19.239911,-43 -43,-43 z"
       id="path4136"
       inkscape:connector-curvature="0"
       inkscape:export-xdpi="90"
       inkscape:export-ydpi="90"
       inkscape:export-filename="/home/camargo/github/dw/assets/ui/virtualpad/dpad.png" />
    <circle
       style="opacity:1;fill:none;fill-opacity:1;stroke:#ffff00;stroke-width:2;stroke-miterlimit:4;stroke-dasharray:none;stroke-dashoffset:0"
       id="path4138"
       cx="62"
       cy="990.36218"
       r="12"
       inkscape:export-xdpi="90"
       inkscape:export-ydpi="90" />
    <path
       style="opacity:0.75;fill:#cccccc;fill-opacity:1;stroke:none;stroke-width:0.5;stroke-miterlimit:4;stroke-dasharray:0.99999994, 0.99999994000000003;stroke-dashoffset:0"
       d="M 317 178 A 24 24 0 0 0 315.4043 178.05664 C 315.4849 178.16363 315.53906 178.29165 315.53906 178.43945 L 315.53906 192.64062 C 315.93906 192.36063 316.45953 192.19922 317.01953 192.19922 C 318.49953 192.19922 319.69922 193.43992 319.69922 194.91992 L 319.69922 205.11914 C 319.69922 206.59914 318.49953 207.80078 317.01953 207.80078 C 315.53953 207.80078 314.30078 206.59914 314.30078 205.11914 L 314.30078 178.43945 C 314.30078 178.34425 314.32272 178.25612 314.35742 178.17578 A 24 24 0 0 0 293 202 A 24 24 0 0 0 317 226 A 24 24 0 0 0 341 202 A 24 24 0 0 0 317 178 z M 317.01953 193.43945 C 316.17953 193.43945 315.53906 194.07992 315.53906 194.91992 L 315.53906 205.11914 C 315.53906 205.91914 316.17953 206.59961 317.01953 206.59961 C 317.81953 206.59961 318.5 205.91914 318.5 205.11914 L 318.5 194.91992 C 318.5 194.07992 317.81953 193.43945 317.01953 193.43945 z M 317 215 A 1 1 0 0 1 318 216 A 1 1 0 0 1 317 217 A 1 1 0 0 1 316 216 A 1 1 0 0 1 317 215 z "
       id="circle4144"
       transform="translate(0,812.36216)"
       inkscape:export-filename="/home/camargo/github/dw/assets/ui/virtualpad/button-b.png"
       inkscape:export-xdpi="90"
       inkscape:export-ydpi="90" />
    <g
       id="g4175"
       transform="translate(6,6)"
       inkscape:export-xdpi="90"
       inkscape:export-ydpi="90">
      <path
         transform="matrix(0,-1,1,0,0,0)"
         sodipodi:open="true"
         d="m -989.55972,317.84873 a 20,20 0 0 1 -22.26678,12.85576 20,20 0 0 1 -16.5271,-19.69616 20,20 0 0 1 16.5271,-19.69615 20,20 0 0 1 22.26678,12.85575"
         sodipodi:end="5.9341195"
         sodipodi:start="0.34906585"
         sodipodi:ry="20"
         sodipodi:rx="20"
         sodipodi:cy="311.00833"
         sodipodi:cx="-1008.3536"
         sodipodi:type="arc"
         id="path4169"
         style="opacity:1;fill:none;fill-opacity:1;stroke:#ffff00;stroke-width:2;stroke-linecap:round;stroke-miterlimit:4;stroke-dasharray:none;stroke-dashoffset:0" />
      <circle
         cy="1022.3622"
         cx="311"
         id="circle4173"
         style="opacity:1;fill:#ffff00;fill-opacity:1;stroke:none;stroke-width:0.5;stroke-miterlimit:4;stroke-dasharray:0.99999994, 0.99999994;stroke-dashoffset:0"
         r="1" />
    </g>
    <g
       id="g4179"
       transform="translate(78,6)">
      <path
         style="opacity:1;fill:none;fill-opacity:1;stroke:#ffff00;stroke-width:2;stroke-linecap:round;stroke-miterlimit:4;stroke-dasharray:none;stroke-dashoffset:0"
         id="path4181"
         sodipodi:type="arc"
         sodipodi:cx="-1008.3536"
         sodipodi:cy="311.00833"
         sodipodi:rx="20"
         sodipodi:ry="20"
         sodipodi:start="0.34906585"
         sodipodi:end="5.9341195"
         d="m -989.55972,317.84873 a 20,20 0 0 1 -22.26678,12.85576 20,20 0 0 1 -16.5271,-19.69616 20,20 0 0 1 16.5271,-19.69615 20,20 0 0 1 22.26678,12.85575"
         sodipodi:open="true"
         transform="matrix(0,-1,1,0,0,0)" />
      <circle
         r="1"
         style="opacity:1;fill:#ffff00;fill-opacity:1;stroke:none;stroke-width:0.5;stroke-miterlimit:4;stroke-dasharray:0.99999994, 0.99999994;stroke-dashoffset:0"
         id="circle4183"
         cx="311"
         cy="1022.3622" />
    </g>
    <path
       style="opacity:0.75;fill:#000000;fill-opacity:1;stroke:none;stroke-width:0.5;stroke-miterlimit:4;stroke-dasharray:0.99999994, 0.99999994000000003;stroke-dashoffset:0"
       d="M 389.01953 191.19922 C 387.53953 191.19922 386.30078 192.43992 386.30078 193.91992 C 386.30078 194.03251 386.3439 194.13439 386.4043 194.22656 C 386.71929 193.07417 387.77991 192.19922 389.01953 192.19922 C 390.49953 192.19922 391.69922 193.43992 391.69922 194.91992 L 391.69922 193.91992 C 391.69922 192.43992 390.49953 191.19922 389.01953 191.19922 z M 389.01953 198.40039 C 387.53953 198.40039 386.30078 199.59914 386.30078 201.11914 L 386.30078 202.11914 C 386.30078 200.59914 387.53953 199.40039 389.01953 199.40039 C 389.57953 199.40039 390.06 199.55984 390.5 199.83984 L 390.5 198.83984 C 390.06 198.55984 389.57953 198.40039 389.01953 198.40039 z M 365.02148 201.41797 A 24 24 0 0 0 365 202 A 24 24 0 0 0 389 226 A 24 24 0 0 0 413 202 A 24 24 0 0 0 412.97852 201.58203 A 24 24 0 0 1 389 225 A 24 24 0 0 1 365.02148 201.41797 z M 387.53906 204.11914 L 387.53906 205.11914 C 387.53906 205.91914 388.17953 206.59961 389.01953 206.59961 C 389.81953 206.59961 390.5 205.91914 390.5 205.11914 L 390.5 204.11914 C 390.5 204.91914 389.81953 205.59961 389.01953 205.59961 C 388.17953 205.59961 387.53906 204.91914 387.53906 204.11914 z M 389 214 A 1 1 0 0 0 388 215 A 1 1 0 0 0 388.13477 215.5 A 1 1 0 0 1 389 215 A 1 1 0 0 1 389.86523 215.5 A 1 1 0 0 0 390 215 A 1 1 0 0 0 389 214 z "
       transform="translate(0,812.36216)"
       id="path4798"
       inkscape:export-filename="/home/camargo/github/dw/assets/ui/virtualpad/button-a.png"
       inkscape:export-xdpi="90"
       inkscape:export-ydpi="90" />
    <path
       style="opacity:0.75;fill:#000000;fill-opacity:1;stroke:none;stroke-width:0.5;stroke-miterlimit:4;stroke-dasharray:0.99999994, 0.99999994000000003;stroke-dashoffset:0"
       d="M 62 132 C 37.159031 132 17 152.15903 17 177 C 17 177.16769 17.009886 177.33274 17.011719 177.5 C 17.281357 152.89021 37.326726 133 62 133 C 86.673274 133 106.71864 152.89021 106.98828 177.5 C 106.99011 177.33274 107 177.16769 107 177 C 107 152.15903 86.840969 132 62 132 z M 14.021484 177.41602 A 48 48 0 0 0 14 178 A 48 48 0 0 0 62 226 A 48 48 0 0 0 110 178 A 48 48 0 0 0 109.97852 177.58398 A 48 48 0 0 1 62 225 A 48 48 0 0 1 14.021484 177.41602 z M 19.013672 177.5 C 19.011758 177.66732 19 177.83222 19 178 C 19 201.76004 38.239911 221 62 221 C 85.760089 221 105 201.76004 105 178 C 105 177.83222 104.98824 177.66732 104.98633 177.5 C 104.71726 201.02819 85.592314 220 62 220 C 38.407686 220 19.282739 201.02819 19.013672 177.5 z "
       transform="translate(0,812.36216)"
       id="path4800"
       inkscape:export-filename="/home/camargo/github/dw/assets/ui/virtualpad/dpad.png"
       inkscape:export-xdpi="90"
       inkscape:export-ydpi="90" />
    <path
       style="opacity:0.75;fill:#000000;fill-opacity:1;stroke:none;stroke-width:0.5;stroke-miterlimit:4;stroke-dasharray:0.99999994, 0.99999994000000003;stroke-dashoffset:0"
       d="M 315.53906 178.05273 A 24 24 0 0 0 315.4043 178.05664 C 315.4849 178.16363 315.53906 178.29165 315.53906 178.43945 L 315.53906 178.05273 z M 314.35742 178.17578 A 24 24 0 0 0 314.30078 178.18555 L 314.30078 178.43945 C 314.30078 178.34425 314.32272 178.25612 314.35742 178.17578 z M 317.01953 191.19922 C 316.45953 191.19922 315.93906 191.36063 315.53906 191.64062 L 315.53906 192.64062 C 315.93906 192.36063 316.45953 192.19922 317.01953 192.19922 C 318.49953 192.19922 319.69922 193.43992 319.69922 194.91992 L 319.69922 193.91992 C 319.69922 192.43992 318.49953 191.19922 317.01953 191.19922 z M 293.01953 201.37891 A 24 24 0 0 0 293 202 A 24 24 0 0 0 317 226 A 24 24 0 0 0 341 202 A 24 24 0 0 0 340.97852 201.58203 A 24 24 0 0 1 317 225 A 24 24 0 0 1 293.01953 201.37891 z M 315.53906 204.11914 L 315.53906 205.11914 C 315.53906 205.91914 316.17953 206.59961 317.01953 206.59961 C 317.81953 206.59961 318.5 205.91914 318.5 205.11914 L 318.5 204.11914 C 318.5 204.91914 317.81953 205.59961 317.01953 205.59961 C 316.17953 205.59961 315.53906 204.91914 315.53906 204.11914 z M 317 214 A 1 1 0 0 0 316 215 A 1 1 0 0 0 316.13477 215.5 A 1 1 0 0 1 317 215 A 1 1 0 0 1 317.86523 215.5 A 1 1 0 0 0 318 215 A 1 1 0 0 0 317 214 z "
       transform="translate(0,812.36216)"
       id="path4802"
       inkscape:export-filename="/home/camargo/github/dw/assets/ui/virtualpad/button-b.png"
       inkscape:export-xdpi="90"
       inkscape:export-ydpi="90" />
    <path
       inkscape:export-filename="/home/camargo/github/dw/assets/ui/virtualpad/button-a.png"
       inkscape:export-xdpi="90"
       inkscape:export-ydpi="90"
       style="opacity:0.75;fill:#ffffff;fill-opacity:1;stroke:none;stroke-width:0.5;stroke-miterlimit:4;stroke-dasharray:0.99999994, 0.99999994000000003;stroke-dashoffset:0"
       d="M 389 178 A 24 24 0 0 0 365 202 A 24 24 0 0 0 365.02148 202.41797 A 24 24 0 0 1 389 179 A 24 24 0 0 1 412.97852 202.58203 A 24 24 0 0 0 413 202 A 24 24 0 0 0 389 178 z M 389.01953 193.43945 C 388.17953 193.43945 387.53906 194.07992 387.53906 194.91992 C 387.53906 195.23992 387.25945 195.51953 386.93945 195.51953 C 386.70612 195.51953 386.51556 195.39636 386.4043 195.22656 C 386.34322 195.45002 386.30078 195.67954 386.30078 195.91992 C 386.30078 196.23992 386.57945 196.51953 386.93945 196.51953 C 387.25945 196.51953 387.53906 196.23992 387.53906 195.91992 C 387.53906 195.07992 388.17953 194.43945 389.01953 194.43945 C 389.81953 194.43945 390.5 195.07992 390.5 195.91992 L 390.5 194.91992 C 390.5 194.07992 389.81953 193.43945 389.01953 193.43945 z M 389.01953 200.64062 C 388.17953 200.64062 387.53906 201.27914 387.53906 202.11914 L 387.53906 203.11914 C 387.53906 202.27914 388.17953 201.64062 389.01953 201.64062 C 389.81953 201.64062 390.5 202.27914 390.5 203.11914 L 390.5 202.11914 C 390.5 201.27914 389.81953 200.64062 389.01953 200.64062 z M 386.30078 205.11914 L 386.30078 206.11914 C 386.30078 207.59914 387.53953 208.80078 389.01953 208.80078 C 390.49953 208.80078 391.69922 207.59914 391.69922 206.11914 L 391.69922 205.11914 C 391.69922 206.59914 390.49953 207.80078 389.01953 207.80078 C 387.53953 207.80078 386.30078 206.59914 386.30078 205.11914 z M 388.13477 216.5 A 1 1 0 0 0 388 217 A 1 1 0 0 0 389 218 A 1 1 0 0 0 390 217 A 1 1 0 0 0 389.86523 216.5 A 1 1 0 0 1 389 217 A 1 1 0 0 1 388.13477 216.5 z "
       transform="translate(0,812.36216)"
       id="path4813" />
    <path
       style="opacity:0.75;fill:#ffffff;fill-opacity:1;stroke:none;stroke-width:0.5;stroke-miterlimit:4;stroke-dasharray:0.99999994, 0.99999994000000003;stroke-dashoffset:0"
       d="M 62 130 A 48 48 0 0 0 14 178 A 48 48 0 0 0 14.021484 178.41602 A 48 48 0 0 1 62 131 A 48 48 0 0 1 109.97852 178.58398 A 48 48 0 0 0 110 178 A 48 48 0 0 0 62 130 z M 62 135 C 38.239911 135 19 154.23991 19 178 C 19 178.16777 19.011758 178.33268 19.013672 178.5 C 19.282739 154.9718 38.407686 136 62 136 C 85.592314 136 104.71726 154.9718 104.98633 178.5 C 104.98824 178.33268 105 178.16777 105 178 C 105 154.23991 85.760089 135 62 135 z M 17.011719 178.5 C 17.009886 178.66726 17 178.83231 17 179 C 17 203.84098 37.159031 224 62 224 C 86.840969 224 107 203.84098 107 179 C 107 178.83231 106.99011 178.66726 106.98828 178.5 C 106.71864 203.10976 86.673274 223 62 223 C 37.326726 223 17.281357 203.10976 17.011719 178.5 z "
       transform="translate(0,812.36216)"
       id="path4815"
       inkscape:export-filename="/home/camargo/github/dw/assets/ui/virtualpad/dpad.png"
       inkscape:export-xdpi="90"
       inkscape:export-ydpi="90" />
    <path
       style="opacity:0.75;fill:#ffffff;fill-opacity:1;stroke:none;stroke-width:0.5;stroke-miterlimit:4;stroke-dasharray:0.99999994, 0.99999994000000003;stroke-dashoffset:0"
       d="M 317 178 A 24 24 0 0 0 315.4043 178.05664 C 315.4849 178.16363 315.53906 178.29165 315.53906 178.43945 L 315.53906 179.05273 A 24 24 0 0 1 317 179 A 24 24 0 0 1 340.97852 202.58203 A 24 24 0 0 0 341 202 A 24 24 0 0 0 317 178 z M 314.35742 178.17578 A 24 24 0 0 0 293 202 A 24 24 0 0 0 293.01953 202.37891 A 24 24 0 0 1 314.30078 179.18555 L 314.30078 178.43945 C 314.30078 178.34425 314.32272 178.25612 314.35742 178.17578 z M 317.01953 193.43945 C 316.17953 193.43945 315.53906 194.07992 315.53906 194.91992 L 315.53906 195.91992 C 315.53906 195.07992 316.17953 194.43945 317.01953 194.43945 C 317.81953 194.43945 318.5 195.07992 318.5 195.91992 L 318.5 194.91992 C 318.5 194.07992 317.81953 193.43945 317.01953 193.43945 z M 314.30078 205.11914 L 314.30078 206.11914 C 314.30078 207.59914 315.53953 208.80078 317.01953 208.80078 C 318.49953 208.80078 319.69922 207.59914 319.69922 206.11914 L 319.69922 205.11914 C 319.69922 206.59914 318.49953 207.80078 317.01953 207.80078 C 315.53953 207.80078 314.30078 206.59914 314.30078 205.11914 z M 316.13477 216.5 A 1 1 0 0 0 316 217 A 1 1 0 0 0 317 218 A 1 1 0 0 0 318 217 A 1 1 0 0 0 317.86523 216.5 A 1 1 0 0 1 317 217 A 1 1 0 0 1 316.13477 216.5 z "
       transform="translate(0,812.36216)"
       id="path4817"
       inkscape:export-filename="/home/camargo/github/dw/assets/ui/virtualpad/button-b.png"
       inkscape:export-xdpi="90"
       inkscape:export-ydpi="90" />
  </g>
</svg>
