<?xml version="1.0" encoding="UTF-8" standalone="no"?>
<!-- Created with Inkscape (http://www.inkscape.org/) -->

<svg
   xmlns:dc="http://purl.org/dc/elements/1.1/"
   xmlns:cc="http://creativecommons.org/ns#"
   xmlns:rdf="http://www.w3.org/1999/02/22-rdf-syntax-ns#"
   xmlns:svg="http://www.w3.org/2000/svg"
   xmlns="http://www.w3.org/2000/svg"
   xmlns:xlink="http://www.w3.org/1999/xlink"
   xmlns:sodipodi="http://sodipodi.sourceforge.net/DTD/sodipodi-0.dtd"
   xmlns:inkscape="http://www.inkscape.org/namespaces/inkscape"
   width="4096"
   height="2048"
   id="svg2"
   version="1.1"
   inkscape:version="0.48.4 r9939"
   sodipodi:docname="outlines.svg"
   inkscape:export-filename="/home/lucas/Build/dw/assets/res_demo_platform/testlevel.png"
   inkscape:export-xdpi="90"
   inkscape:export-ydpi="90">
  <defs
     id="defs4">
    <clipPath
       clipPathUnits="userSpaceOnUse"
       id="clipPath3691">
      <rect
         style="fill:#000000;stroke:none"
         id="rect3693"
         width="48"
         height="64"
         x="1088"
         y="476.36218" />
    </clipPath>
  </defs>
  <sodipodi:namedview
     id="base"
     pagecolor="#ffffff"
     bordercolor="#666666"
     borderopacity="1.0"
     inkscape:pageopacity="0.0"
     inkscape:pageshadow="2"
     inkscape:zoom="0.5"
     inkscape:cx="1406.0725"
     inkscape:cy="583.13057"
     inkscape:document-units="px"
     inkscape:current-layer="layer1"
     showgrid="true"
     inkscape:snap-bbox="true"
     inkscape:window-width="1366"
     inkscape:window-height="713"
     inkscape:window-x="-3"
     inkscape:window-y="28"
     inkscape:window-maximized="1"
     inkscape:bbox-nodes="true">
    <inkscape:grid
       type="xygrid"
       id="grid3082"
       empspacing="16"
       visible="true"
       enabled="true"
       snapvisiblegridlinesonly="true"
       dotted="true" />
    <inkscape:grid
       type="xygrid"
       id="grid3084"
       empspacing="8"
       visible="true"
       enabled="true"
       snapvisiblegridlinesonly="true"
       spacingx="16px"
       spacingy="16px"
       color="#ff0000"
       opacity="0.1254902"
       empcolor="#ff0000"
       empopacity="0.25098039"
       dotted="false" />
  </sodipodi:namedview>
  <metadata
     id="metadata7">
    <rdf:RDF>
      <cc:Work
         rdf:about="">
        <dc:format>image/svg+xml</dc:format>
        <dc:type
           rdf:resource="http://purl.org/dc/dcmitype/StillImage" />
        <dc:title />
      </cc:Work>
    </rdf:RDF>
  </metadata>
  <g
     inkscape:label="Camada 1"
     inkscape:groupmode="layer"
     id="layer1"
     transform="translate(0,995.63782)">
    <rect
       style="opacity:0.5;fill:#000000;fill-opacity:1;stroke:none"
       id="rect3384"
       width="320"
       height="512"
       x="544"
       y="540.36218" />
    <path
       transform="matrix(0.88888889,0,0,1.3333333,-252.44444,-291.63782)"
       d="m 176,912 c 0,26.50967 -32.2355,48 -72,48 -39.764502,0 -72,-21.49033 -72,-48 0,-26.50967 32.235498,-48 72,-48 39.7645,0 72,21.49033 72,48 z"
       sodipodi:ry="48"
       sodipodi:rx="72"
       sodipodi:cy="912"
       sodipodi:cx="104"
       id="path3118"
       style="fill:#d45500;fill-opacity:1;stroke:none"
       sodipodi:type="arc" />
    <rect
       y="924.36218"
       x="-224"
       height="64"
       width="64"
       id="rect3120"
       style="fill:#d40000;fill-opacity:1;stroke:none" />
    <rect
       style="fill:#d40000;fill-opacity:1;stroke:none"
       id="rect3126"
       width="64"
       height="64"
       x="-224"
       y="668.36218" />
    <path
       sodipodi:type="arc"
       style="fill:#d45500;fill-opacity:1;stroke:none"
       id="path3124"
       sodipodi:cx="104"
       sodipodi:cy="912"
       sodipodi:rx="72"
       sodipodi:ry="48"
       d="m 176,912 c 0,26.50967 -32.2355,48 -72,48 -39.764502,0 -72,-21.49033 -72,-48 0,-26.50967 32.235498,-48 72,-48 39.7645,0 72,21.49033 72,48 z"
       transform="matrix(0.88888889,0,0,1.3333333,-252.44444,-547.63782)" />
    <path
       style="fill:#d40000;fill-opacity:1;stroke:none"
       d="m -384,732.36218 0,64 64,0 c -35.34622,0 -64,-28.65378 -64,-64 z"
       id="rect3128"
       inkscape:connector-curvature="0" />
    <path
       inkscape:connector-curvature="0"
       id="path3135"
       d="m -384,732.36218 0,-64 64,0 c -35.34622,0 -64,28.65378 -64,64 z"
       style="fill:#d40000;fill-opacity:1;stroke:none" />
    <path
       style="fill:#d40000;fill-opacity:1;stroke:none"
       d="m -256,732.36218 0,-64 -64,0 c 35.34622,0 64,28.65378 64,64 z"
       id="path3137"
       inkscape:connector-curvature="0" />
    <path
       style="fill:#d45500;fill-opacity:1;stroke:none"
       d="m -384,860.36218 0,64 64,0 c 0,-35.34622 -28.65378,-64 -64,-64 z"
       id="path3144"
       inkscape:connector-curvature="0" />
    <path
       inkscape:connector-curvature="0"
       id="path3146"
       d="m -256,860.36218 0,64 -64,0 c 0,-35.34622 28.65378,-64 64,-64 z"
       style="fill:#d45500;fill-opacity:1;stroke:none" />
    <path
       inkscape:connector-curvature="0"
       id="path3148"
       d="m -384,860.36218 0,-64 64,0 c 0,35.34622 -28.65378,64 -64,64 z"
       style="fill:#d45500;fill-opacity:1;stroke:none" />
    <path
       style="fill:#d45500;fill-opacity:1;stroke:none"
       d="m -256,860.36218 0,-64 -64,0 c 0,35.34622 28.65378,64 64,64 z"
       id="path3150"
       inkscape:connector-curvature="0" />
    <g
       id="g3328">
      <rect
         y="924.36218"
         x="16"
         height="16"
         width="112"
         id="rect3304"
         style="fill:#000000;fill-opacity:1;stroke:none" />
      <path
         sodipodi:nodetypes="ccccc"
         inkscape:connector-curvature="0"
         id="rect3306"
         d="m 21,940.36218 107,0 0,16 -99,0 z"
         style="opacity:0.5;fill:#000000;fill-opacity:1;stroke:none" />
      <rect
         y="988.36218"
         x="51"
         height="64"
         width="26"
         id="rect3308"
         style="opacity:0.5;fill:#000000;fill-opacity:1;stroke:none" />
      <path
         id="rect3310"
         transform="translate(0,28.362183)"
         d="m 32,928 c 8.836555,0 16,7.16344 16,16 l 0,16 32,0 0,-16 c 0,-8.83656 7.163445,-16 16,-16 l -16,0 -32,0 -16,0 z"
         style="opacity:0.5;fill:#000000;fill-opacity:1;stroke:none"
         inkscape:connector-curvature="0" />
    </g>
    <g
       id="g3334">
      <rect
         style="fill:#000000;fill-opacity:1;stroke:none"
         id="rect3319"
         width="128"
         height="16"
         x="128"
         y="924.36218" />
      <rect
         y="940.36218"
         x="128"
         height="16"
         width="128"
         id="rect3321"
         style="opacity:0.5;fill:#000000;fill-opacity:1;stroke:none" />
      <rect
         style="opacity:0.5;fill:#000000;fill-opacity:1;stroke:none"
         id="rect3323"
         width="26"
         height="64"
         x="179"
         y="988.36218" />
      <path
         inkscape:connector-curvature="0"
         style="opacity:0.5;fill:#000000;fill-opacity:1;stroke:none"
         d="m 160,956.36218 c 8.83655,0 16,7.16344 16,16 l 0,16 32,0 0,-16 c 0,-8.83656 7.16344,-16 16,-16 l -16,0 -32,0 -16,0 z"
         id="path3325" />
    </g>
    <g
       id="g3340"
       transform="matrix(-1,0,0,1,384,3.8281246e-7)">
      <rect
         style="fill:#000000;fill-opacity:1;stroke:none"
         id="rect3342"
         width="112"
         height="16"
         x="16"
         y="924.36218" />
      <path
         style="opacity:0.5;fill:#000000;fill-opacity:1;stroke:none"
         d="m 21,940.36218 107,0 0,16 -99,0 z"
         id="path3344"
         inkscape:connector-curvature="0"
         sodipodi:nodetypes="ccccc" />
      <rect
         style="opacity:0.5;fill:#000000;fill-opacity:1;stroke:none"
         id="rect3346"
         width="26"
         height="64"
         x="51"
         y="988.36218" />
      <path
         style="opacity:0.5;fill:#000000;fill-opacity:1;stroke:none"
         d="m 32,928 c 8.836555,0 16,7.16344 16,16 l 0,16 32,0 0,-16 c 0,-8.83656 7.163445,-16 16,-16 l -16,0 -32,0 -16,0 z"
         transform="translate(0,28.362183)"
         id="path3348"
         inkscape:connector-curvature="0" />
    </g>
    <g
       id="g3414">
      <rect
         style="fill:#000000;fill-opacity:1;stroke:none"
         id="rect3352"
         width="96"
         height="16"
         x="144"
         y="668.36218" />
      <path
         style="opacity:0.5;fill:#000000;fill-opacity:1;stroke:none"
         d="m 149,684.36218 86,0 -8,16 -70,0 z"
         id="path3354"
         inkscape:connector-curvature="0"
         sodipodi:nodetypes="ccccc" />
      <rect
         style="opacity:0.5;fill:#000000;fill-opacity:1;stroke:none"
         id="rect3356"
         width="26"
         height="64"
         x="179"
         y="732.36218" />
      <path
         style="opacity:0.5;fill:#000000;fill-opacity:1;stroke:none"
         d="m 160,700.36218 c 8.83655,0 16,7.16344 16,16 l 0,16 32,0 0,-16 c 0,-8.83656 7.16344,-16 16,-16 l -16,0 -32,0 -16,0 z"
         id="path3358"
         inkscape:connector-curvature="0" />
    </g>
    <rect
       style="opacity:0.5;fill:#000000;fill-opacity:1;stroke:none"
       id="rect3370"
       width="26"
       height="128"
       x="179"
       y="796.36218" />
    <g
       id="g3372"
       transform="translate(128,128)">
      <rect
         y="668.36218"
         x="144"
         height="16"
         width="96"
         id="rect3374"
         style="fill:#000000;fill-opacity:1;stroke:none" />
      <path
         sodipodi:nodetypes="ccccc"
         inkscape:connector-curvature="0"
         id="path3376"
         d="m 149,684.36218 86,0 -8,16 -70,0 z"
         style="opacity:0.5;fill:#000000;fill-opacity:1;stroke:none" />
      <rect
         y="732.36218"
         x="179"
         height="64"
         width="26"
         id="rect3378"
         style="opacity:0.5;fill:#000000;fill-opacity:1;stroke:none" />
      <path
         inkscape:connector-curvature="0"
         id="path3380"
         d="m 160,700.36218 c 8.83655,0 16,7.16344 16,16 l 0,16 32,0 0,-16 c 0,-8.83656 7.16344,-16 16,-16 l -16,0 -32,0 -16,0 z"
         style="opacity:0.5;fill:#000000;fill-opacity:1;stroke:none" />
    </g>
    <rect
       style="fill:#000000;fill-opacity:1;stroke:none"
       id="rect3382"
       width="32"
       height="512"
       x="512"
       y="540.36218" />
    <rect
       y="540.36218"
       x="864"
       height="512"
       width="32"
       id="rect3386"
       style="fill:#000000;fill-opacity:1;stroke:none" />
    <rect
       y="156.36218"
       x="512"
       height="256"
       width="32"
       id="rect3432"
       style="fill:#000000;fill-opacity:1;stroke:none" />
    <rect
       style="fill:#000000;fill-opacity:1;stroke:none"
       id="rect3434"
       width="32"
       height="256"
       x="864"
       y="156.36218" />
    <rect
       y="156.36218"
       x="544"
       height="256"
       width="320"
       id="rect3436"
       style="opacity:0.5;fill:#000000;fill-opacity:1;stroke:none" />
    <rect
       style="opacity:0.5;fill:#000000;fill-opacity:1;stroke:none"
       id="rect3457"
       width="320"
       height="128"
       x="544"
       y="412.36218" />
    <path
       transform="translate(0,28.362183)"
       style="fill:#000000;fill-opacity:1;stroke:none"
       d="m 512,384 32,0 0,32 -32,-16 z"
       id="rect3459"
       inkscape:connector-curvature="0"
       sodipodi:nodetypes="ccccc" />
    <rect
       y="412.36218"
       x="864"
       height="16"
       width="32"
       id="rect3461"
       style="fill:#000000;fill-opacity:1;stroke:none" />
    <path
       sodipodi:nodetypes="ccccc"
       inkscape:connector-curvature="0"
       id="path3464"
       d="m 896,428.36218 -32,0 0,32 32,-16 z"
       style="fill:#000000;fill-opacity:1;stroke:none" />
    <g
       id="g3486"
       transform="translate(512,-128)">
      <rect
         y="924.36218"
         x="128"
         height="16"
         width="128"
         id="rect3488"
         style="fill:#000000;fill-opacity:1;stroke:none" />
      <rect
         style="opacity:0.5;fill:#000000;fill-opacity:1;stroke:none"
         id="rect3490"
         width="128"
         height="16"
         x="128"
         y="940.36218" />
      <rect
         y="988.36218"
         x="179"
         height="64"
         width="26"
         id="rect3492"
         style="opacity:0.5;fill:#000000;fill-opacity:1;stroke:none" />
      <path
         id="path3494"
         d="m 160,956.36218 c 8.83655,0 16,7.16344 16,16 l 0,16 32,0 0,-16 c 0,-8.83656 7.16344,-16 16,-16 l -16,0 -32,0 -16,0 z"
         style="opacity:0.5;fill:#000000;fill-opacity:1;stroke:none"
         inkscape:connector-curvature="0" />
    </g>
    <rect
       style="opacity:0.5;fill:#000000;fill-opacity:1;stroke:none"
       id="rect3502"
       width="26"
       height="128"
       x="691"
       y="924.36218" />
    <rect
       y="924.36218"
       x="563"
       height="128"
       width="26"
       id="rect3504"
       style="opacity:0.5;fill:#000000;fill-opacity:1;stroke:none" />
    <g
       transform="translate(384,-128)"
       id="g3506">
      <rect
         style="fill:#000000;fill-opacity:1;stroke:none"
         id="rect3508"
         width="96"
         height="16"
         x="160"
         y="924.36218" />
      <rect
         y="940.36218"
         x="160"
         height="16"
         width="96"
         id="rect3510"
         style="opacity:0.5;fill:#000000;fill-opacity:1;stroke:none" />
      <rect
         style="opacity:0.5;fill:#000000;fill-opacity:1;stroke:none"
         id="rect3512"
         width="26"
         height="64"
         x="179"
         y="988.36218" />
      <path
         inkscape:connector-curvature="0"
         style="opacity:0.5;fill:#000000;fill-opacity:1;stroke:none"
         d="m 160,956.36218 c 8.83655,0 16,7.16344 16,16 l 0,16 32,0 0,-16 c 0,-8.83656 7.16344,-16 16,-16 l -16,0 -32,0 -16,0 z"
         id="path3514" />
    </g>
    <g
       id="g3529"
       transform="matrix(-1,0,0,1,1024,-128)">
      <rect
         y="924.36218"
         x="160"
         height="16"
         width="96"
         id="rect3531"
         style="fill:#000000;fill-opacity:1;stroke:none" />
      <rect
         style="opacity:0.5;fill:#000000;fill-opacity:1;stroke:none"
         id="rect3533"
         width="96"
         height="16"
         x="160"
         y="940.36218" />
      <rect
         y="988.36218"
         x="179"
         height="64"
         width="26"
         id="rect3535"
         style="opacity:0.5;fill:#000000;fill-opacity:1;stroke:none" />
      <path
         id="path3537"
         d="m 160,956.36218 c 8.83655,0 16,7.16344 16,16 l 0,16 32,0 0,-16 c 0,-8.83656 7.16344,-16 16,-16 l -16,0 -32,0 -16,0 z"
         style="opacity:0.5;fill:#000000;fill-opacity:1;stroke:none"
         inkscape:connector-curvature="0" />
    </g>
    <path
       sodipodi:nodetypes="cccccccc"
       inkscape:connector-curvature="0"
       id="path3539"
       d="m 819,924.36218 26,0 0,52 -6.5,3 -6.5,4 -6.5,-7 -6.5,-4 z"
       style="opacity:0.5;fill:#000000;fill-opacity:1;stroke:none" />
    <path
       sodipodi:nodetypes="ccccc"
       inkscape:connector-curvature="0"
       id="path3550"
       d="m 480,156.36218 32,0 0,32 -32,-16 z"
       style="fill:#000000;fill-opacity:1;stroke:none" />
    <path
       style="fill:#000000;fill-opacity:1;stroke:none"
       d="m 928,156.36218 -32,0 0,32 32,-16 z"
       id="path3552"
       inkscape:connector-curvature="0"
       sodipodi:nodetypes="ccccc" />
    <path
       style="fill:#000000;fill-opacity:1;stroke:none"
       d="m 576,156.36218 -32,0 0,32 32,-16 z"
       id="path3554"
       inkscape:connector-curvature="0"
       sodipodi:nodetypes="ccccc" />
    <path
       style="fill:#000000;fill-opacity:1;stroke:none"
       d="m 832,156.36218 32,0 0,32 -32,-16 z"
       id="path3556"
       inkscape:connector-curvature="0"
       sodipodi:nodetypes="ccccc" />
    <rect
       style="fill:#000000;fill-opacity:1;stroke:none"
       id="rect3558"
       width="448"
       height="32"
       x="480"
       y="124.36218" />
    <rect
       y="76.362183"
       x="480"
       height="48"
       width="64"
       id="rect3560"
       style="fill:#000000;fill-opacity:1;stroke:none" />
    <rect
       style="fill:#000000;fill-opacity:1;stroke:none"
       id="rect3562"
       width="64"
       height="48"
       x="672"
       y="76.362183" />
    <rect
       style="fill:#000000;fill-opacity:1;stroke:none"
       id="rect3564"
       width="64"
       height="48"
       x="864"
       y="76.362183" />
    <rect
       y="76.362183"
       x="576"
       height="48"
       width="64"
       id="rect3566"
       style="fill:#000000;fill-opacity:1;stroke:none" />
    <rect
       y="76.362183"
       x="768"
       height="48"
       width="64"
       id="rect3568"
       style="fill:#000000;fill-opacity:1;stroke:none" />
    <g
       id="g3580"
       transform="translate(768,-256)">
      <rect
         style="fill:#000000;fill-opacity:1;stroke:none"
         id="rect3582"
         width="80"
         height="16"
         x="16"
         y="924.36218" />
      <path
         style="opacity:0.5;fill:#000000;fill-opacity:1;stroke:none"
         d="m 21,940.36218 75,0 0,16 -67,0 z"
         id="path3584"
         inkscape:connector-curvature="0"
         sodipodi:nodetypes="ccccc" />
      <rect
         style="opacity:0.5;fill:#000000;fill-opacity:1;stroke:none"
         id="rect3586"
         width="26"
         height="64"
         x="51"
         y="988.36218" />
      <path
         style="opacity:0.5;fill:#000000;fill-opacity:1;stroke:none"
         d="m 32,928 c 8.836555,0 16,7.16344 16,16 l 0,16 32,0 0,-16 c 0,-8.83656 7.163445,-16 16,-16 l -16,0 -32,0 -16,0 z"
         transform="translate(0,28.362183)"
         id="path3588"
         inkscape:connector-curvature="0" />
    </g>
    <rect
       style="opacity:0.5;fill:#000000;fill-opacity:1;stroke:none"
       id="rect3688"
       width="320"
       height="512"
       x="2464"
       y="28.362181" />
    <rect
       style="fill:#000000;fill-opacity:1;stroke:none"
       id="rect3690"
       width="32"
       height="512"
       x="2432"
       y="28.362181" />
    <rect
       y="28.362181"
       x="2784"
       height="512"
       width="32"
       id="rect3692"
       style="fill:#000000;fill-opacity:1;stroke:none" />
    <rect
       y="-355.63782"
       x="2432"
       height="256"
       width="32"
       id="rect3694"
       style="fill:#000000;fill-opacity:1;stroke:none" />
    <rect
       style="fill:#000000;fill-opacity:1;stroke:none"
       id="rect3696"
       width="32"
       height="256"
       x="2784"
       y="-355.63782" />
    <rect
       y="-355.63782"
       x="2464"
       height="256"
       width="320"
       id="rect3698"
       style="opacity:0.5;fill:#000000;fill-opacity:1;stroke:none" />
    <rect
       style="opacity:0.5;fill:#000000;fill-opacity:1;stroke:none"
       id="rect3700"
       width="320"
       height="128"
       x="2464"
       y="-99.637817" />
    <path
       style="fill:#000000;fill-opacity:1;stroke:none"
       d="m 2432,-99.637823 32,0 0,32 -32,-16 z"
       id="path3702"
       inkscape:connector-curvature="0"
       sodipodi:nodetypes="ccccc" />
    <rect
       y="-99.637817"
       x="2784"
       height="16"
       width="32"
       id="rect3704"
       style="fill:#000000;fill-opacity:1;stroke:none" />
    <path
       sodipodi:nodetypes="ccccc"
       inkscape:connector-curvature="0"
       id="path3706"
       d="m 2816,-83.637823 -32,0 0,32 32,-16 z"
       style="fill:#000000;fill-opacity:1;stroke:none" />
    <path
       sodipodi:nodetypes="ccccc"
       inkscape:connector-curvature="0"
       id="path3756"
       d="m 2400,-355.63782 32,0 0,32 -32,-16 z"
       style="fill:#000000;fill-opacity:1;stroke:none" />
    <path
       style="fill:#000000;fill-opacity:1;stroke:none"
       d="m 2848,-355.63782 -32,0 0,32 32,-16 z"
       id="path3758"
       inkscape:connector-curvature="0"
       sodipodi:nodetypes="ccccc" />
    <path
       style="fill:#000000;fill-opacity:1;stroke:none"
       d="m 2496,-355.63782 -32,0 0,32 32,-16 z"
       id="path3760"
       inkscape:connector-curvature="0"
       sodipodi:nodetypes="ccccc" />
    <path
       style="fill:#000000;fill-opacity:1;stroke:none"
       d="m 2752,-355.63782 32,0 0,32 -32,-16 z"
       id="path3762"
       inkscape:connector-curvature="0"
       sodipodi:nodetypes="ccccc" />
    <rect
       style="fill:#000000;fill-opacity:1;stroke:none"
       id="rect3764"
       width="448"
       height="32"
       x="2400"
       y="-387.63782" />
    <rect
       y="-435.63782"
       x="2400"
       height="48"
       width="64"
       id="rect3766"
       style="fill:#000000;fill-opacity:1;stroke:none" />
    <rect
       style="fill:#000000;fill-opacity:1;stroke:none"
       id="rect3768"
       width="64"
       height="48"
       x="2592"
       y="-435.63782" />
    <rect
       style="fill:#000000;fill-opacity:1;stroke:none"
       id="rect3770"
       width="64"
       height="48"
       x="2784"
       y="-435.63782" />
    <rect
       y="-435.63782"
       x="2496"
       height="48"
       width="64"
       id="rect3772"
       style="fill:#000000;fill-opacity:1;stroke:none" />
    <rect
       y="-435.63782"
       x="2688"
       height="48"
       width="64"
       id="rect3774"
       style="fill:#000000;fill-opacity:1;stroke:none" />
    <rect
       y="540.36218"
       x="2464"
       height="128"
       width="320"
       id="rect3786"
       style="opacity:0.5;fill:#000000;fill-opacity:1;stroke:none" />
    <path
       sodipodi:nodetypes="ccccc"
       inkscape:connector-curvature="0"
       id="path3788"
       d="m 2432,540.36217 32,0 0,32 -32,-16 z"
       style="fill:#000000;fill-opacity:1;stroke:none" />
    <rect
       style="fill:#000000;fill-opacity:1;stroke:none"
       id="rect3790"
       width="32"
       height="16"
       x="2784"
       y="540.36218" />
    <path
       style="fill:#000000;fill-opacity:1;stroke:none"
       d="m 2816,556.36217 -32,0 0,32 32,-16 z"
       id="path3792"
       inkscape:connector-curvature="0"
       sodipodi:nodetypes="ccccc" />
    <rect
       y="668.36218"
       x="2464"
       height="384"
       width="320"
       id="rect3794"
       style="opacity:0.5;fill:#000000;fill-opacity:1;stroke:none" />
    <rect
       y="668.36218"
       x="2432"
       height="384"
       width="32"
       id="rect3796"
       style="fill:#000000;fill-opacity:1;stroke:none" />
    <rect
       style="fill:#000000;fill-opacity:1;stroke:none"
       id="rect3798"
       width="32"
       height="384"
       x="2784"
       y="668.36218" />
    <g
       id="g3810"
       transform="translate(1152,-256)">
      <rect
         y="924.36218"
         x="128"
         height="16"
         width="128"
         id="rect3812"
         style="fill:#000000;fill-opacity:1;stroke:none" />
      <rect
         style="opacity:0.5;fill:#000000;fill-opacity:1;stroke:none"
         id="rect3814"
         width="128"
         height="16"
         x="128"
         y="940.36218" />
      <rect
         y="988.36218"
         x="179"
         height="64"
         width="26"
         id="rect3816"
         style="opacity:0.5;fill:#000000;fill-opacity:1;stroke:none" />
      <path
         id="path3818"
         d="m 160,956.36218 c 8.83655,0 16,7.16344 16,16 l 0,16 32,0 0,-16 c 0,-8.83656 7.16344,-16 16,-16 l -16,0 -32,0 -16,0 z"
         style="opacity:0.5;fill:#000000;fill-opacity:1;stroke:none"
         inkscape:connector-curvature="0" />
    </g>
    <path
       sodipodi:nodetypes="cccccccc"
       inkscape:connector-curvature="0"
       id="path3840"
       d="m 947,668.36218 26,0 0,52 -6.5,3 -6.5,4 -6.5,-7 -6.5,-4 z"
       style="opacity:0.5;fill:#000000;fill-opacity:1;stroke:none" />
    <path
       style="font-size:medium;font-style:normal;font-variant:normal;font-weight:normal;font-stretch:normal;text-indent:0;text-align:start;text-decoration:none;line-height:normal;letter-spacing:normal;word-spacing:normal;text-transform:none;direction:ltr;block-progression:tb;writing-mode:lr-tb;text-anchor:start;baseline-shift:baseline;color:#000000;fill:#000000;fill-opacity:1;stroke:none;stroke-width:9.05097008;marker:none;visibility:visible;display:inline;overflow:visible;enable-background:accumulate;font-family:Sans;-inkscape-font-specification:Sans"
       d="m 1408,428.81022 c -71.4332,0 -128.496,57.65447 -128.496,127.55193 0,69.89746 57.0628,127.5521 128.496,127.55193 71.4332,0 128.496,-57.65447 128.496,-127.55193 0,-69.89746 -57.0628,-127.5521 -128.496,-127.55193 z m 0,15.10399 c 61.1153,0 111.504,49.79714 111.504,112.44794 0,62.6508 -50.3887,112.44794 -111.504,112.44794 -61.1153,0 -111.504,-49.79714 -111.504,-112.44794 0,-62.6508 50.3887,-112.44794 111.504,-112.44794 z"
       id="path3842"
       inkscape:connector-curvature="0" />
    <g
       transform="translate(1280,-256)"
       id="g3844">
      <rect
         style="fill:#000000;fill-opacity:1;stroke:none"
         id="rect3846"
         width="128"
         height="16"
         x="128"
         y="924.36218" />
      <rect
         style="opacity:0.5;fill:#000000;fill-opacity:1;stroke:none"
         id="rect3850"
         width="26"
         height="64"
         x="179"
         y="988.36218" />
      <path
         inkscape:connector-curvature="0"
         style="opacity:0.5;fill:#000000;fill-opacity:1;stroke:none"
         d="m 160,956.36218 c 8.83655,0 16,7.16344 16,16 l 0,16 32,0 0,-16 c 0,-8.83656 7.16344,-16 16,-16 l -16,0 -32,0 -16,0 z"
         id="path3852" />
      <path
         sodipodi:nodetypes="ccccc"
         inkscape:connector-curvature="0"
         id="path3939"
         d="m 235,940.36218 -107,0 0,16.00002 99,0 z"
         style="opacity:0.5;fill:#000000;fill-opacity:1;stroke:none" />
    </g>
    <path
       transform="matrix(1.875,0,0,1.6666658,-1240,-1862.3029)"
       d="m 1408,1864 c 0,39.7645 -28.6538,72 -64,72 -35.3462,0 -64,-32.2355 -64,-72 0,-39.7645 28.6538,-72 64,-72 35.3462,0 64,32.2355 64,72 z"
       sodipodi:ry="72"
       sodipodi:rx="64"
       sodipodi:cy="1864"
       sodipodi:cx="1344"
       id="path3854"
       style="fill:none;stroke:#000000;stroke-width:9.05097008"
       sodipodi:type="arc" />
    <g
       transform="translate(1536,-384)"
       id="g3885">
      <rect
         style="fill:#000000;fill-opacity:1;stroke:none"
         id="rect3887"
         width="128"
         height="16"
         x="128"
         y="924.36218" />
      <rect
         y="940.36218"
         x="128"
         height="16"
         width="128"
         id="rect3889"
         style="opacity:0.5;fill:#000000;fill-opacity:1;stroke:none" />
      <rect
         style="opacity:0.5;fill:#000000;fill-opacity:1;stroke:none"
         id="rect3891"
         width="26"
         height="64"
         x="179"
         y="988.36218" />
      <path
         inkscape:connector-curvature="0"
         style="opacity:0.5;fill:#000000;fill-opacity:1;stroke:none"
         d="m 160,956.36218 c 8.83655,0 16,7.16344 16,16 l 0,16 32,0 0,-16 c 0,-8.83656 7.16344,-16 16,-16 l -16,0 -32,0 -16,0 z"
         id="path3893" />
    </g>
    <g
       id="g3695">
      <path
         sodipodi:nodetypes="cccccc"
         inkscape:connector-curvature="0"
         id="rect3868"
         d="m 1648,556.36218 c 0,62.6508 -50.8847,112 -112,112 l 0,16 c 67.5923,0 122.3103,-51.6371 128,-116.4063 l 0,-11.5937 z"
         style="fill:#000000;fill-opacity:1;stroke:none" />
      <rect
         y="540.36218"
         x="1648"
         height="16"
         width="16"
         id="rect3895"
         style="fill:#000000;fill-opacity:1;stroke:none" />
    </g>
    <rect
       y="796.36218"
       x="1331"
       height="128"
       width="26"
       id="rect3899"
       style="opacity:0.5;fill:#000000;fill-opacity:1;stroke:none" />
    <path
       sodipodi:nodetypes="cccccccc"
       inkscape:connector-curvature="0"
       id="path3901"
       d="m 1331,924.36218 26,0 0,52 -6.5,3 -6.5,4 -6.5,-7 -6.5,-4 z"
       style="opacity:0.5;fill:#000000;fill-opacity:1;stroke:none" />
    <path
       sodipodi:nodetypes="cccccccc"
       inkscape:connector-curvature="0"
       id="path3903"
       d="m 1459,796.36218 26,0 0,52 -6.5,3 -6.5,4 -6.5,-7 -6.5,-4 z"
       style="opacity:0.5;fill:#000000;fill-opacity:1;stroke:none" />
    <g
       transform="matrix(-1,0,0,1,1280,-128)"
       id="g3905">
      <rect
         y="924.36218"
         x="16"
         height="16"
         width="112"
         id="rect3907"
         style="fill:#000000;fill-opacity:1;stroke:none" />
      <path
         sodipodi:nodetypes="ccccc"
         inkscape:connector-curvature="0"
         id="path3909"
         d="m 21,940.36218 107,0 0,16 -99,0 z"
         style="opacity:0.5;fill:#000000;fill-opacity:1;stroke:none" />
      <rect
         y="988.36218"
         x="51"
         height="64"
         width="26"
         id="rect3911"
         style="opacity:0.5;fill:#000000;fill-opacity:1;stroke:none" />
      <path
         inkscape:connector-curvature="0"
         id="path3913"
         transform="translate(0,28.362183)"
         d="m 32,928 c 8.836555,0 16,7.16344 16,16 l 0,16 32,0 0,-16 c 0,-8.83656 7.163445,-16 16,-16 l -16,0 -32,0 -16,0 z"
         style="opacity:0.5;fill:#000000;fill-opacity:1;stroke:none" />
    </g>
    <g
       id="g3915"
       transform="translate(1024,-128)">
      <rect
         style="fill:#000000;fill-opacity:1;stroke:none"
         id="rect3917"
         width="112"
         height="16"
         x="16"
         y="924.36218" />
      <path
         style="opacity:0.5;fill:#000000;fill-opacity:1;stroke:none"
         d="m 21,940.36218 107,0 0,16 -99,0 z"
         id="path3919"
         inkscape:connector-curvature="0"
         sodipodi:nodetypes="ccccc" />
      <rect
         style="opacity:0.5;fill:#000000;fill-opacity:1;stroke:none"
         id="rect3921"
         width="26"
         height="64"
         x="51"
         y="988.36218" />
      <path
         inkscape:connector-curvature="0"
         style="opacity:0.5;fill:#000000;fill-opacity:1;stroke:none"
         d="m 32,928 c 8.836555,0 16,7.16344 16,16 l 0,16 32,0 0,-16 c 0,-8.83656 7.163445,-16 16,-16 l -16,0 -32,0 -16,0 z"
         transform="translate(0,28.362183)"
         id="path3923" />
    </g>
    <rect
       style="opacity:0.5;fill:#000000;fill-opacity:1;stroke:none"
       id="rect3925"
       width="26"
       height="128"
       x="1075"
       y="924.36218" />
    <g
       id="g3927"
       transform="translate(768,256)">
      <rect
         y="668.36218"
         x="144"
         height="16"
         width="96"
         id="rect3929"
         style="fill:#000000;fill-opacity:1;stroke:none" />
      <path
         sodipodi:nodetypes="ccccc"
         inkscape:connector-curvature="0"
         id="path3931"
         d="m 149,684.36218 86,0 -8,16 -70,0 z"
         style="opacity:0.5;fill:#000000;fill-opacity:1;stroke:none" />
      <rect
         y="732.36218"
         x="179"
         height="64"
         width="26"
         id="rect3933"
         style="opacity:0.5;fill:#000000;fill-opacity:1;stroke:none" />
      <path
         inkscape:connector-curvature="0"
         id="path3935"
         d="m 160,700.36218 c 8.83655,0 16,7.16344 16,16 l 0,16 32,0 0,-16 c 0,-8.83656 7.16344,-16 16,-16 l -16,0 -32,0 -16,0 z"
         style="opacity:0.5;fill:#000000;fill-opacity:1;stroke:none" />
    </g>
    <rect
       style="fill:none;stroke:#ff0000;stroke-width:2"
       id="rect3937"
       width="427"
       height="240"
       x="545"
       y="1133.3622" />
    <image
       y="636.36218"
       x="1184"
       id="image3598"
       xlink:href="file:///home/lucas/Build/dw/assets/obj/obj/ring.png"
       height="16"
       width="16" />
    <image
       width="16"
       height="16"
       xlink:href="file:///home/lucas/Build/dw/assets/obj/obj/ring.png"
       id="image3601"
       x="1216"
       y="636.36218" />
    <image
       y="636.36218"
       x="1248"
       id="image3603"
       xlink:href="file:///home/lucas/Build/dw/assets/obj/obj/ring.png"
       height="16"
       width="16" />
    <image
       y="428.36218"
       x="992"
       id="image3683"
       xlink:href="file:///home/lucas/Build/dw/assets/obj/obj/spr/sonic-cd.png"
       height="352"
       width="528"
       clip-path="url(#clipPath3691)"
       transform="translate(-128,15.999997)" />
    <g
       id="g3709"
       transform="matrix(-1,0,0,1,2688,0)">
      <path
         style="fill:#000000;fill-opacity:1;stroke:none"
         d="m 1648,556.36218 c 0,62.6508 -50.8847,112 -112,112 l 0,16 c 67.5923,0 122.3103,-51.6371 128,-116.4063 l 0,-11.5937 z"
         id="path3711"
         inkscape:connector-curvature="0"
         sodipodi:nodetypes="cccccc" />
      <rect
         style="fill:#000000;fill-opacity:1;stroke:none"
         id="rect3713"
         width="16"
         height="16"
         x="1648"
         y="540.36218" />
    </g>
    <g
       transform="translate(768,-384)"
       id="g3715">
      <rect
         style="fill:#000000;fill-opacity:1;stroke:none"
         id="rect3717"
         width="128"
         height="16"
         x="128"
         y="924.36218" />
      <rect
         y="940.36218"
         x="128"
         height="16"
         width="128"
         id="rect3719"
         style="opacity:0.5;fill:#000000;fill-opacity:1;stroke:none" />
      <rect
         style="opacity:0.5;fill:#000000;fill-opacity:1;stroke:none"
         id="rect3721"
         width="26"
         height="64"
         x="179"
         y="988.36218" />
      <path
         inkscape:connector-curvature="0"
         style="opacity:0.5;fill:#000000;fill-opacity:1;stroke:none"
         d="m 160,956.36218 c 8.83655,0 16,7.16344 16,16 l 0,16 32,0 0,-16 c 0,-8.83656 7.16344,-16 16,-16 l -16,0 -32,0 -16,0 z"
         id="path3723" />
    </g>
    <g
       id="g3725"
       transform="matrix(-1,0,0,1,1408,-256)">
      <rect
         y="924.36218"
         x="128"
         height="16"
         width="128"
         id="rect3727"
         style="fill:#000000;fill-opacity:1;stroke:none" />
      <rect
         y="988.36218"
         x="179"
         height="64"
         width="26"
         id="rect3729"
         style="opacity:0.5;fill:#000000;fill-opacity:1;stroke:none" />
      <path
         id="path3731"
         d="m 160,956.36218 c 8.83655,0 16,7.16344 16,16 l 0,16 32,0 0,-16 c 0,-8.83656 7.16344,-16 16,-16 l -16,0 -32,0 -16,0 z"
         style="opacity:0.5;fill:#000000;fill-opacity:1;stroke:none"
         inkscape:connector-curvature="0" />
      <path
         style="opacity:0.5;fill:#000000;fill-opacity:1;stroke:none"
         d="m 235,940.36218 -107,0 0,16.00002 99,0 z"
         id="path3733"
         inkscape:connector-curvature="0"
         sodipodi:nodetypes="ccccc" />
    </g>
  </g>
</svg>
