<?xml version="1.0" encoding="UTF-8" standalone="no"?>
<!-- Created with Inkscape (http://www.inkscape.org/) -->

<svg
   xmlns:dc="http://purl.org/dc/elements/1.1/"
   xmlns:cc="http://creativecommons.org/ns#"
   xmlns:rdf="http://www.w3.org/1999/02/22-rdf-syntax-ns#"
   xmlns:svg="http://www.w3.org/2000/svg"
   xmlns="http://www.w3.org/2000/svg"
   xmlns:xlink="http://www.w3.org/1999/xlink"
   xmlns:sodipodi="http://sodipodi.sourceforge.net/DTD/sodipodi-0.dtd"
   xmlns:inkscape="http://www.inkscape.org/namespaces/inkscape"
   width="210mm"
   height="297mm"
   viewBox="0 0 744.09448819 1052.3622047"
   id="svg2"
   version="1.1"
   inkscape:version="0.91 r13725"
   sodipodi:docname="ventilator.svg">
  <defs
     id="defs4">
    <linearGradient
       inkscape:collect="always"
       id="linearGradient4967">
      <stop
         style="stop-color:#000000;stop-opacity:1;"
         offset="0"
         id="stop4969" />
      <stop
         style="stop-color:#000000;stop-opacity:0;"
         offset="1"
         id="stop4971" />
    </linearGradient>
    <linearGradient
       inkscape:collect="always"
       id="linearGradient7171">
      <stop
         style="stop-color:#ffffff;stop-opacity:1;"
         offset="0"
         id="stop7173" />
      <stop
         style="stop-color:#ffffff;stop-opacity:0;"
         offset="1"
         id="stop7175" />
    </linearGradient>
    <linearGradient
       id="linearGradient7156"
       inkscape:collect="always">
      <stop
         id="stop7158"
         offset="0"
         style="stop-color:#000000;stop-opacity:1" />
      <stop
         id="stop7160"
         offset="1"
         style="stop-color:#ffffff;stop-opacity:0;" />
    </linearGradient>
    <linearGradient
       inkscape:collect="always"
       id="linearGradient7132">
      <stop
         style="stop-color:#ffffff;stop-opacity:1;"
         offset="0"
         id="stop7134" />
      <stop
         style="stop-color:#ffffff;stop-opacity:0;"
         offset="1"
         id="stop7136" />
    </linearGradient>
    <pattern
       inkscape:isstock="true"
       inkscape:stockid="Stripes 1:1"
       id="Strips1_1"
       patternTransform="translate(0,0) scale(10,10)"
       height="1"
       width="2"
       patternUnits="userSpaceOnUse"
       inkscape:collect="always">
      <rect
         id="rect6393"
         height="2"
         width="1"
         y="-0.5"
         x="0"
         style="fill:black;stroke:none" />
    </pattern>
    <filter
       inkscape:collect="always"
       style="color-interpolation-filters:sRGB"
       id="filter4774"
       x="-0.3456"
       width="1.6912"
       y="-0.3456"
       height="1.6912">
      <feGaussianBlur
         inkscape:collect="always"
         stdDeviation="2.1818743"
         id="feGaussianBlur4776" />
    </filter>
    <filter
       inkscape:collect="always"
       style="color-interpolation-filters:sRGB"
       id="filter5188"
       x="-0.1524"
       width="1.3048"
       y="-0.1524"
       height="1.3048">
      <feGaussianBlur
         inkscape:collect="always"
         stdDeviation="2.0526286"
         id="feGaussianBlur5190" />
    </filter>
    <filter
       inkscape:collect="always"
       style="color-interpolation-filters:sRGB"
       id="filter5662"
       x="-0.17336356"
       width="1.3467271"
       y="-0.16753606"
       height="1.3350721">
      <feGaussianBlur
         inkscape:collect="always"
         stdDeviation="14.453334"
         id="feGaussianBlur5664" />
    </filter>
    <clipPath
       clipPathUnits="userSpaceOnUse"
       id="clipPath5666">
      <path
         inkscape:connector-curvature="0"
         style="opacity:1;fill:#d4aa00;stroke:none;stroke-width:0.5;stroke-miterlimit:4;stroke-dasharray:0.99999994, 0.99999994;stroke-dashoffset:0"
         d="m 340.04107,354.91332 a 104.04572,104.04572 0 0 0 -55.78268,37.47833 l 82.71199,63.02324 13.22353,-103.15218 a 104.04572,104.04572 0 0 0 -40.15284,2.65061 z m 26.92931,100.50157 82.71198,63.02323 a 104.04572,104.04572 0 0 0 17.7877,-89.95204 104.04572,104.04572 0 0 0 -4.61997,-13.16699 l -95.87971,40.0958 z m 0,0 -95.8797,40.09578 a 104.04572,104.04572 0 0 0 82.65377,63.05501 l 13.22593,-103.15079 z"
         id="path5668" />
    </clipPath>
    <radialGradient
       inkscape:collect="always"
       xlink:href="#linearGradient7132"
       id="radialGradient7150"
       cx="282.3978"
       cy="423.40317"
       fx="282.3978"
       fy="423.40317"
       r="135.36044"
       gradientUnits="userSpaceOnUse"
       gradientTransform="matrix(1.6796668,5.0016171e-8,-4.7816309e-8,1.60579,-208.43696,-264.34994)" />
    <radialGradient
       inkscape:collect="always"
       xlink:href="#linearGradient7156"
       id="radialGradient7154"
       gradientUnits="userSpaceOnUse"
       gradientTransform="matrix(1.6796668,5.0016171e-8,-4.7816309e-8,1.60579,-939.78741,-1177.0944)"
       cx="282.3978"
       cy="423.40317"
       fx="282.3978"
       fy="423.40317"
       r="135.36044" />
    <radialGradient
       inkscape:collect="always"
       xlink:href="#linearGradient7171"
       id="radialGradient7177"
       cx="364.08423"
       cy="326.61813"
       fx="364.08423"
       fy="326.61813"
       r="3.8890872"
       gradientUnits="userSpaceOnUse" />
    <radialGradient
       inkscape:collect="always"
       xlink:href="#linearGradient7171"
       id="radialGradient7447"
       gradientUnits="userSpaceOnUse"
       cx="364.08423"
       cy="326.61813"
       fx="364.08423"
       fy="326.61813"
       r="3.8890872" />
    <radialGradient
       inkscape:collect="always"
       xlink:href="#linearGradient7171"
       id="radialGradient7557"
       gradientUnits="userSpaceOnUse"
       cx="364.08423"
       cy="326.61813"
       fx="364.08423"
       fy="326.61813"
       r="3.8890872" />
    <radialGradient
       inkscape:collect="always"
       xlink:href="#linearGradient7171"
       id="radialGradient7567"
       gradientUnits="userSpaceOnUse"
       cx="364.08423"
       cy="326.61813"
       fx="364.08423"
       fy="326.61813"
       r="3.8890872" />
    <radialGradient
       inkscape:collect="always"
       xlink:href="#linearGradient7171"
       id="radialGradient7603"
       gradientUnits="userSpaceOnUse"
       cx="364.08423"
       cy="326.61813"
       fx="364.08423"
       fy="326.61813"
       r="3.8890872" />
    <radialGradient
       inkscape:collect="always"
       xlink:href="#linearGradient7171"
       id="radialGradient7605"
       gradientUnits="userSpaceOnUse"
       cx="364.08423"
       cy="326.61813"
       fx="364.08423"
       fy="326.61813"
       r="3.8890872" />
    <radialGradient
       inkscape:collect="always"
       xlink:href="#linearGradient7171"
       id="radialGradient7607"
       gradientUnits="userSpaceOnUse"
       cx="364.08423"
       cy="326.61813"
       fx="364.08423"
       fy="326.61813"
       r="3.8890872" />
    <radialGradient
       inkscape:collect="always"
       xlink:href="#linearGradient7171"
       id="radialGradient7665"
       gradientUnits="userSpaceOnUse"
       cx="364.08423"
       cy="326.61813"
       fx="364.08423"
       fy="326.61813"
       r="3.8890872" />
    <radialGradient
       inkscape:collect="always"
       xlink:href="#linearGradient7171"
       id="radialGradient7667"
       gradientUnits="userSpaceOnUse"
       cx="364.08423"
       cy="326.61813"
       fx="364.08423"
       fy="326.61813"
       r="3.8890872" />
    <radialGradient
       inkscape:collect="always"
       xlink:href="#linearGradient7171"
       id="radialGradient7671"
       gradientUnits="userSpaceOnUse"
       cx="364.08423"
       cy="326.61813"
       fx="364.08423"
       fy="326.61813"
       r="3.8890872" />
    <radialGradient
       inkscape:collect="always"
       xlink:href="#linearGradient7171"
       id="radialGradient7673"
       gradientUnits="userSpaceOnUse"
       cx="364.08423"
       cy="326.61813"
       fx="364.08423"
       fy="326.61813"
       r="3.8890872" />
    <radialGradient
       inkscape:collect="always"
       xlink:href="#linearGradient7171"
       id="radialGradient7677"
       gradientUnits="userSpaceOnUse"
       cx="364.08423"
       cy="326.61813"
       fx="364.08423"
       fy="326.61813"
       r="3.8890872" />
    <radialGradient
       inkscape:collect="always"
       xlink:href="#linearGradient4967"
       id="radialGradient4973"
       cx="365.67523"
       cy="456.37222"
       fx="365.67523"
       fy="456.37222"
       r="119.19801"
       gradientUnits="userSpaceOnUse" />
  </defs>
  <sodipodi:namedview
     id="base"
     pagecolor="#ffffff"
     bordercolor="#666666"
     borderopacity="1.0"
     inkscape:pageopacity="0.0"
     inkscape:pageshadow="2"
     inkscape:zoom="1"
     inkscape:cx="344.5085"
     inkscape:cy="613.91381"
     inkscape:document-units="px"
     inkscape:current-layer="layer1"
     showgrid="false"
     inkscape:snap-bbox="true"
     inkscape:snap-bbox-midpoints="true"
     inkscape:object-nodes="true"
     inkscape:snap-object-midpoints="true"
     inkscape:snap-center="true"
     inkscape:snap-global="true"
     showguides="false"
     inkscape:guide-bbox="true"
     inkscape:snap-smooth-nodes="false"
     inkscape:snap-midpoints="true"
     inkscape:snap-bbox-edge-midpoints="true"
     inkscape:window-width="1366"
     inkscape:window-height="706"
     inkscape:window-x="0"
     inkscape:window-y="33"
     inkscape:window-maximized="1">
    <sodipodi:guide
       position="501.03568,595.98996"
       orientation="0,1"
       id="guide7205" />
    <sodipodi:guide
       position="365.67523,460.62955"
       orientation="1,0"
       id="guide7207" />
  </sodipodi:namedview>
  <metadata
     id="metadata7">
    <rdf:RDF>
      <cc:Work
         rdf:about="">
        <dc:format>image/svg+xml</dc:format>
        <dc:type
           rdf:resource="http://purl.org/dc/dcmitype/StillImage" />
        <dc:title />
      </cc:Work>
    </rdf:RDF>
  </metadata>
  <g
     inkscape:label="Layer 1"
     inkscape:groupmode="layer"
     id="layer1">
    <g
       id="g7199">
      <circle
         style="opacity:1;fill:#57726c;stroke:none;stroke-width:0.5;stroke-miterlimit:4;stroke-dasharray:0.99999994, 0.99999994000000003;stroke-dashoffset:0;fill-opacity:1"
         id="circle7128"
         cx="365.67523"
         cy="460.37222"
         r="135.36044" />
      <circle
         r="135.36044"
         cy="456.37222"
         cx="365.67523"
         id="path4136"
         style="opacity:1;fill:#749491;stroke:none;stroke-width:0.5;stroke-miterlimit:4;stroke-dasharray:0.99999994, 0.99999994000000003;stroke-dashoffset:0;fill-opacity:1" />
      <circle
         transform="scale(-1,-1)"
         r="135.36044"
         cy="-456.37225"
         cx="-365.67523"
         id="circle7152"
         style="opacity:0.5;fill:url(#radialGradient7154);fill-opacity:1;stroke:none;stroke-width:0.5;stroke-miterlimit:4;stroke-dasharray:0.99999994, 0.99999994000000003;stroke-dashoffset:0" />
      <circle
         style="opacity:0.75;fill:url(#radialGradient7150);stroke:none;stroke-width:0.5;stroke-miterlimit:4;stroke-dasharray:0.99999994, 0.99999994000000003;stroke-dashoffset:0;fill-opacity:1"
         id="circle7130"
         cx="365.67523"
         cy="456.37222"
         r="135.36044" />
    </g>
    <circle
       r="119.19801"
       cy="456.37222"
       cx="365.67523"
       id="circle4138"
       style="opacity:1;fill:#1c2422;stroke:none;stroke-width:0.5;stroke-miterlimit:4;stroke-dasharray:0.99999994, 0.99999994000000003;stroke-dashoffset:0" />
    <circle
       style="opacity:1;fill:url(#radialGradient4973);stroke:none;stroke-width:0.5;stroke-miterlimit:4;stroke-dasharray:0.99999994, 0.99999994000000003;stroke-dashoffset:0;fill-opacity:1"
       id="circle4965"
       cx="365.67523"
       cy="456.37222"
       r="119.19801" />
    <circle
       style="opacity:0.25;fill:url(#Strips1_1);stroke:none;stroke-width:0.5;stroke-miterlimit:4;stroke-dasharray:0.99999994, 0.99999994000000003;stroke-dashoffset:0;fill-opacity:1.0"
       id="circle5672"
       cx="365.67523"
       cy="456.37222"
       r="119.19801" />
    <path
       id="path5670"
       d="m 371.67578,358.32617 a 104.04572,104.04572 0 0 0 -63.58203,21.76367 l 63.58203,82.28321 39.4707,-96.21485 a 104.04572,104.04572 0 0 0 -39.4707,-7.83203 z m 0,104.04688 63.58203,82.2832 a 104.04572,104.04572 0 0 0 40.46289,-82.2832 104.04572,104.04572 0 0 0 -1.05468,-13.91407 l -102.99024,13.91407 z m 0,0 -102.99023,13.91406 a 104.04572,104.04572 0 0 0 63.51757,82.29883 l 39.47266,-96.21289 z"
       style="opacity:0.5;fill:#000000;stroke:none;stroke-width:0.5;stroke-miterlimit:4;stroke-dasharray:0.99999994, 0.99999994;stroke-dashoffset:0"
       inkscape:connector-curvature="0" />
    <g
       id="g7195">
      <path
         inkscape:connector-curvature="0"
         id="circle4140"
         d="m 365.67578,352.32617 a 104.04572,104.04572 0 0 0 -63.58203,21.76367 l 63.58203,82.28321 39.4707,-96.21485 a 104.04572,104.04572 0 0 0 -39.4707,-7.83203 z m 0,104.04688 63.58203,82.2832 a 104.04572,104.04572 0 0 0 40.46289,-82.2832 104.04572,104.04572 0 0 0 -1.05468,-13.91407 l -102.99024,13.91407 z m 0,0 -102.99023,13.91406 a 104.04572,104.04572 0 0 0 63.51757,82.29883 l 39.47266,-96.21289 z"
         style="opacity:1;fill:#ffcc00;stroke:none;stroke-width:0.5;stroke-miterlimit:4;stroke-dasharray:0.99999994, 0.99999994;stroke-dashoffset:0" />
      <path
         transform="matrix(0.96592583,0.25881905,-0.25881905,0.96592583,129.07966,-78.502881)"
         clip-path="url(#clipPath5666)"
         inkscape:connector-curvature="0"
         style="opacity:1;fill:#aa8800;stroke:none;stroke-width:0.5;stroke-miterlimit:4;stroke-dasharray:0.99999994, 0.99999994000000003;stroke-dashoffset:0;filter:url(#filter5662)"
         d="m 390.03648,354.51853 a 104.04572,104.04572 0 0 0 -67.04837,4.56585 l 40.11906,95.93572 63.02801,-82.72063 a 104.04572,104.04572 0 0 0 -36.0987,-17.78094 z m -26.92931,100.50157 40.11906,95.9357 a 104.04572,104.04572 0 0 0 60.38061,-69.00689 104.04572,104.04572 0 0 0 2.58248,-13.71293 L 363.10717,455.0201 Z m 0,0 -103.08214,-13.21589 a 104.04572,104.04572 0 0 0 40.05275,95.93412 l 63.02939,-82.71823 z"
         id="path5297" />
    </g>
    <g
       id="g7188">
      <circle
         style="opacity:0.5;fill:#000000;stroke:none;stroke-width:0.5;stroke-miterlimit:4;stroke-dasharray:0.99999994, 0.99999994000000003;stroke-dashoffset:0;filter:url(#filter5188)"
         id="circle4782"
         cx="365.67523"
         cy="456.37222"
         r="16.16243" />
      <circle
         r="16.16243"
         cy="456.37222"
         cx="365.67523"
         id="path4154"
         style="opacity:1;fill:#d4aa00;stroke:none;stroke-width:0.5;stroke-miterlimit:4;stroke-dasharray:0.99999994, 0.99999994;stroke-dashoffset:0" />
      <circle
         style="opacity:1;fill:#ffcc00;stroke:none;stroke-width:0.5;stroke-miterlimit:4;stroke-dasharray:0.99999994, 0.99999994;stroke-dashoffset:0;filter:url(#filter4774)"
         id="circle4156"
         cx="362.20312"
         cy="454.45605"
         r="7.5759525" />
      <circle
         transform="matrix(0.41072945,0,0,0.41072945,209.43563,263.79757)"
         r="7.5759525"
         cy="454.45605"
         cx="362.20312"
         id="circle4778"
         style="opacity:1;fill:#ffeeaa;stroke:none;stroke-width:0.5;stroke-miterlimit:4;stroke-dasharray:0.99999994, 0.99999994;stroke-dashoffset:0;filter:url(#filter4774)" />
      <circle
         style="opacity:0.5;fill:#ffeeaa;stroke:none;stroke-width:0.5;stroke-miterlimit:4;stroke-dasharray:0.99999994, 0.99999994000000003;stroke-dashoffset:0;filter:url(#filter4774)"
         id="circle4780"
         cx="362.20312"
         cy="454.45605"
         r="7.5759525"
         transform="matrix(0.17658221,0,0,0.17658221,310.24449,384.20721)" />
    </g>
    <path
       style="opacity:0.3;fill:#000000;stroke:none;stroke-width:0.5;stroke-miterlimit:4;stroke-dasharray:0.99999994, 0.99999994000000003;stroke-dashoffset:0;fill-opacity:1"
       d="M 365.67578 337.17383 A 119.19801 119.19801 0 0 0 246.47656 456.37305 A 119.19801 119.19801 0 0 0 298.03125 554.49219 A 119.19801 119.19801 0 0 1 276.47656 486.37305 A 119.19801 119.19801 0 0 1 395.67578 367.17383 A 119.19801 119.19801 0 0 1 463.31836 388.25 A 119.19801 119.19801 0 0 0 365.67578 337.17383 z "
       id="circle7123" />
    <g
       id="g4242">
      <g
         inkscape:transform-center-y="-127.63263"
         inkscape:transform-center-x="-7.0201382e-05"
         id="g7183">
        <g
           id="g7179">
          <circle
             r="3.8890872"
             cy="328.73944"
             cx="365.67523"
             id="path7164"
             style="opacity:0.5;fill:url(#radialGradient7177);fill-opacity:1;stroke:none;stroke-width:0.5;stroke-miterlimit:4;stroke-dasharray:0.99999994, 0.99999994;stroke-dashoffset:0" />
          <path
             inkscape:connector-curvature="0"
             id="circle7166"
             d="m 367.8125,325.49219 a 3.8890872,3.8890872 0 0 1 0.63477,2.13086 3.8890872,3.8890872 0 0 1 -3.88868,3.88867 3.8890872,3.8890872 0 0 1 -2.13281,-0.64063 3.8890872,3.8890872 0 0 0 3.25,1.75782 3.8890872,3.8890872 0 0 0 3.88867,-3.88868 3.8890872,3.8890872 0 0 0 -1.75195,-3.24804 z"
             style="opacity:0.3;fill:#000000;fill-opacity:1;stroke:none;stroke-width:0.5;stroke-miterlimit:4;stroke-dasharray:0.99999994, 0.99999994;stroke-dashoffset:0" />
        </g>
      </g>
      <g
         transform="matrix(0.96592583,0.25881905,-0.25881905,0.96592583,161.36052,-66.342627)"
         id="g7439"
         inkscape:transform-center-y="0.00019911601">
        <g
           id="g7441">
          <circle
             style="opacity:0.5;fill:url(#radialGradient7447);fill-opacity:1;stroke:none;stroke-width:0.5;stroke-miterlimit:4;stroke-dasharray:0.99999994, 0.99999994;stroke-dashoffset:0"
             id="circle7443"
             cx="365.67523"
             cy="328.73944"
             r="3.8890872" />
          <path
             style="opacity:0.3;fill:#000000;fill-opacity:1;stroke:none;stroke-width:0.5;stroke-miterlimit:4;stroke-dasharray:0.99999994, 0.99999994;stroke-dashoffset:0"
             d="m 367.8125,325.49219 a 3.8890872,3.8890872 0 0 1 0.63477,2.13086 3.8890872,3.8890872 0 0 1 -3.88868,3.88867 3.8890872,3.8890872 0 0 1 -2.13281,-0.64063 3.8890872,3.8890872 0 0 0 3.25,1.75782 3.8890872,3.8890872 0 0 0 3.88867,-3.88868 3.8890872,3.8890872 0 0 0 -1.75195,-3.24804 z"
             id="path7445"
             inkscape:connector-curvature="0" />
        </g>
      </g>
      <g
         transform="matrix(0.96592583,0.25881905,-0.25881905,0.96592583,225.17692,44.190228)"
         id="g7559"
         inkscape:transform-center-y="0.00019911601">
        <g
           id="g7561">
          <circle
             style="opacity:0.5;fill:url(#radialGradient7567);fill-opacity:1;stroke:none;stroke-width:0.5;stroke-miterlimit:4;stroke-dasharray:0.99999994, 0.99999994;stroke-dashoffset:0"
             id="circle7563"
             cx="365.67523"
             cy="328.73944"
             r="3.8890872" />
          <path
             style="opacity:0.3;fill:#000000;fill-opacity:1;stroke:none;stroke-width:0.5;stroke-miterlimit:4;stroke-dasharray:0.99999994, 0.99999994;stroke-dashoffset:0"
             d="m 367.8125,325.49219 a 3.8890872,3.8890872 0 0 1 0.63477,2.13086 3.8890872,3.8890872 0 0 1 -3.88868,3.88867 3.8890872,3.8890872 0 0 1 -2.13281,-0.64063 3.8890872,3.8890872 0 0 0 3.25,1.75782 3.8890872,3.8890872 0 0 0 3.88867,-3.88868 3.8890872,3.8890872 0 0 0 -1.75195,-3.24804 z"
             id="path7565"
             inkscape:connector-curvature="0" />
        </g>
      </g>
      <g
         inkscape:transform-center-y="0.00019911601"
         id="g7549"
         transform="matrix(0.96592583,0.25881905,-0.25881905,0.96592583,208.07736,-19.625977)">
        <g
           id="g7551">
          <circle
             r="3.8890872"
             cy="328.73944"
             cx="365.67523"
             id="circle7553"
             style="opacity:0.5;fill:url(#radialGradient7557);fill-opacity:1;stroke:none;stroke-width:0.5;stroke-miterlimit:4;stroke-dasharray:0.99999994, 0.99999994;stroke-dashoffset:0" />
          <path
             inkscape:connector-curvature="0"
             id="path7555"
             d="m 367.8125,325.49219 a 3.8890872,3.8890872 0 0 1 0.63477,2.13086 3.8890872,3.8890872 0 0 1 -3.88868,3.88867 3.8890872,3.8890872 0 0 1 -2.13281,-0.64063 3.8890872,3.8890872 0 0 0 3.25,1.75782 3.8890872,3.8890872 0 0 0 3.88867,-3.88868 3.8890872,3.8890872 0 0 0 -1.75195,-3.24804 z"
             style="opacity:0.3;fill:#000000;fill-opacity:1;stroke:none;stroke-width:0.5;stroke-miterlimit:4;stroke-dasharray:0.99999994, 0.99999994;stroke-dashoffset:0" />
        </g>
      </g>
      <g
         inkscape:transform-center-y="0.00019911601"
         id="g7577"
         transform="matrix(0.96592583,0.25881905,-0.25881905,0.96592583,33.727826,-66.342818)">
        <g
           id="g7579">
          <circle
             r="3.8890872"
             cy="328.73944"
             cx="365.67523"
             id="circle7581"
             style="opacity:0.5;fill:url(#radialGradient7603);fill-opacity:1;stroke:none;stroke-width:0.5;stroke-miterlimit:4;stroke-dasharray:0.99999994, 0.99999994;stroke-dashoffset:0" />
          <path
             inkscape:connector-curvature="0"
             id="path7583"
             d="m 367.8125,325.49219 a 3.8890872,3.8890872 0 0 1 0.63477,2.13086 3.8890872,3.8890872 0 0 1 -3.88868,3.88867 3.8890872,3.8890872 0 0 1 -2.13281,-0.64063 3.8890872,3.8890872 0 0 0 3.25,1.75782 3.8890872,3.8890872 0 0 0 3.88867,-3.88868 3.8890872,3.8890872 0 0 0 -1.75195,-3.24804 z"
             style="opacity:0.3;fill:#000000;fill-opacity:1;stroke:none;stroke-width:0.5;stroke-miterlimit:4;stroke-dasharray:0.99999994, 0.99999994;stroke-dashoffset:0" />
        </g>
      </g>
      <g
         inkscape:transform-center-y="0.00019911601"
         id="g7585"
         transform="matrix(0.96592583,0.25881905,-0.25881905,0.96592583,-30.088574,44.190037)">
        <g
           id="g7587">
          <circle
             r="3.8890872"
             cy="328.73944"
             cx="365.67523"
             id="circle7589"
             style="opacity:0.5;fill:url(#radialGradient7605);fill-opacity:1;stroke:none;stroke-width:0.5;stroke-miterlimit:4;stroke-dasharray:0.99999994, 0.99999994;stroke-dashoffset:0" />
          <path
             inkscape:connector-curvature="0"
             id="path7591"
             d="m 367.8125,325.49219 a 3.8890872,3.8890872 0 0 1 0.63477,2.13086 3.8890872,3.8890872 0 0 1 -3.88868,3.88867 3.8890872,3.8890872 0 0 1 -2.13281,-0.64063 3.8890872,3.8890872 0 0 0 3.25,1.75782 3.8890872,3.8890872 0 0 0 3.88867,-3.88868 3.8890872,3.8890872 0 0 0 -1.75195,-3.24804 z"
             style="opacity:0.3;fill:#000000;fill-opacity:1;stroke:none;stroke-width:0.5;stroke-miterlimit:4;stroke-dasharray:0.99999994, 0.99999994;stroke-dashoffset:0" />
        </g>
      </g>
      <g
         transform="matrix(0.96592583,0.25881905,-0.25881905,0.96592583,-12.989014,-19.626168)"
         id="g7593"
         inkscape:transform-center-y="0.00019911601">
        <g
           id="g7595">
          <circle
             style="opacity:0.5;fill:url(#radialGradient7607);fill-opacity:1;stroke:none;stroke-width:0.5;stroke-miterlimit:4;stroke-dasharray:0.99999994, 0.99999994;stroke-dashoffset:0"
             id="circle7597"
             cx="365.67523"
             cy="328.73944"
             r="3.8890872" />
          <path
             style="opacity:0.3;fill:#000000;fill-opacity:1;stroke:none;stroke-width:0.5;stroke-miterlimit:4;stroke-dasharray:0.99999994, 0.99999994;stroke-dashoffset:0"
             d="m 367.8125,325.49219 a 3.8890872,3.8890872 0 0 1 0.63477,2.13086 3.8890872,3.8890872 0 0 1 -3.88868,3.88867 3.8890872,3.8890872 0 0 1 -2.13281,-0.64063 3.8890872,3.8890872 0 0 0 3.25,1.75782 3.8890872,3.8890872 0 0 0 3.88867,-3.88868 3.8890872,3.8890872 0 0 0 -1.75195,-3.24804 z"
             id="path7599"
             inkscape:connector-curvature="0" />
        </g>
      </g>
      <g
         transform="translate(0.09912735,255.26449)"
         id="g7609"
         inkscape:transform-center-x="-7.0201382e-05"
         inkscape:transform-center-y="-127.63263">
        <g
           id="g7611">
          <circle
             style="opacity:0.5;fill:url(#radialGradient7665);fill-opacity:1;stroke:none;stroke-width:0.5;stroke-miterlimit:4;stroke-dasharray:0.99999994, 0.99999994;stroke-dashoffset:0"
             id="circle7613"
             cx="365.67523"
             cy="328.73944"
             r="3.8890872" />
          <path
             style="opacity:0.3;fill:#000000;fill-opacity:1;stroke:none;stroke-width:0.5;stroke-miterlimit:4;stroke-dasharray:0.99999994, 0.99999994;stroke-dashoffset:0"
             d="m 367.8125,325.49219 a 3.8890872,3.8890872 0 0 1 0.63477,2.13086 3.8890872,3.8890872 0 0 1 -3.88868,3.88867 3.8890872,3.8890872 0 0 1 -2.13281,-0.64063 3.8890872,3.8890872 0 0 0 3.25,1.75782 3.8890872,3.8890872 0 0 0 3.88867,-3.88868 3.8890872,3.8890872 0 0 0 -1.75195,-3.24804 z"
             id="path7615"
             inkscape:connector-curvature="0" />
        </g>
      </g>
      <g
         inkscape:transform-center-y="0.00020096768"
         id="g7617"
         transform="matrix(0.96592583,0.25881905,-0.25881905,0.96592583,161.45965,154.7227)">
        <g
           id="g7619">
          <circle
             r="3.8890872"
             cy="328.73944"
             cx="365.67523"
             id="circle7621"
             style="opacity:0.5;fill:url(#radialGradient7667);fill-opacity:1;stroke:none;stroke-width:0.5;stroke-miterlimit:4;stroke-dasharray:0.99999994, 0.99999994;stroke-dashoffset:0" />
          <path
             inkscape:connector-curvature="0"
             id="path7623"
             d="m 367.8125,325.49219 a 3.8890872,3.8890872 0 0 1 0.63477,2.13086 3.8890872,3.8890872 0 0 1 -3.88868,3.88867 3.8890872,3.8890872 0 0 1 -2.13281,-0.64063 3.8890872,3.8890872 0 0 0 3.25,1.75782 3.8890872,3.8890872 0 0 0 3.88867,-3.88868 3.8890872,3.8890872 0 0 0 -1.75195,-3.24804 z"
             style="opacity:0.3;fill:#000000;fill-opacity:1;stroke:none;stroke-width:0.5;stroke-miterlimit:4;stroke-dasharray:0.99999994, 0.99999994;stroke-dashoffset:0" />
        </g>
      </g>
      <g
         transform="matrix(0.96592583,0.25881905,-0.25881905,0.96592583,208.17649,108.00605)"
         id="g7633"
         inkscape:transform-center-y="0.00020096768">
        <g
           id="g7635">
          <circle
             style="opacity:0.5;fill:url(#radialGradient7671);fill-opacity:1;stroke:none;stroke-width:0.5;stroke-miterlimit:4;stroke-dasharray:0.99999994, 0.99999994;stroke-dashoffset:0"
             id="circle7637"
             cx="365.67523"
             cy="328.73944"
             r="3.8890872" />
          <path
             style="opacity:0.3;fill:#000000;fill-opacity:1;stroke:none;stroke-width:0.5;stroke-miterlimit:4;stroke-dasharray:0.99999994, 0.99999994;stroke-dashoffset:0"
             d="m 367.8125,325.49219 a 3.8890872,3.8890872 0 0 1 0.63477,2.13086 3.8890872,3.8890872 0 0 1 -3.88868,3.88867 3.8890872,3.8890872 0 0 1 -2.13281,-0.64063 3.8890872,3.8890872 0 0 0 3.25,1.75782 3.8890872,3.8890872 0 0 0 3.88867,-3.88868 3.8890872,3.8890872 0 0 0 -1.75195,-3.24804 z"
             id="path7639"
             inkscape:connector-curvature="0" />
        </g>
      </g>
      <g
         transform="matrix(0.96592583,0.25881905,-0.25881905,0.96592583,33.826953,154.72289)"
         id="g7641"
         inkscape:transform-center-y="0.00020134252">
        <g
           id="g7643">
          <circle
             style="opacity:0.5;fill:url(#radialGradient7673);fill-opacity:1;stroke:none;stroke-width:0.5;stroke-miterlimit:4;stroke-dasharray:0.99999994, 0.99999994;stroke-dashoffset:0"
             id="circle7645"
             cx="365.67523"
             cy="328.73944"
             r="3.8890872" />
          <path
             style="opacity:0.3;fill:#000000;fill-opacity:1;stroke:none;stroke-width:0.5;stroke-miterlimit:4;stroke-dasharray:0.99999994, 0.99999994;stroke-dashoffset:0"
             d="m 367.8125,325.49219 a 3.8890872,3.8890872 0 0 1 0.63477,2.13086 3.8890872,3.8890872 0 0 1 -3.88868,3.88867 3.8890872,3.8890872 0 0 1 -2.13281,-0.64063 3.8890872,3.8890872 0 0 0 3.25,1.75782 3.8890872,3.8890872 0 0 0 3.88867,-3.88868 3.8890872,3.8890872 0 0 0 -1.75195,-3.24804 z"
             id="path7647"
             inkscape:connector-curvature="0" />
        </g>
      </g>
      <g
         inkscape:transform-center-y="0.00020196768"
         id="g7657"
         transform="matrix(0.96592583,0.25881905,-0.25881905,0.96592583,-12.889887,108.00624)">
        <g
           id="g7659">
          <circle
             r="3.8890872"
             cy="328.73944"
             cx="365.67523"
             id="circle7661"
             style="opacity:0.5;fill:url(#radialGradient7677);fill-opacity:1;stroke:none;stroke-width:0.5;stroke-miterlimit:4;stroke-dasharray:0.99999994, 0.99999994;stroke-dashoffset:0" />
          <path
             inkscape:connector-curvature="0"
             id="path7663"
             d="m 367.8125,325.49219 a 3.8890872,3.8890872 0 0 1 0.63477,2.13086 3.8890872,3.8890872 0 0 1 -3.88868,3.88867 3.8890872,3.8890872 0 0 1 -2.13281,-0.64063 3.8890872,3.8890872 0 0 0 3.25,1.75782 3.8890872,3.8890872 0 0 0 3.88867,-3.88868 3.8890872,3.8890872 0 0 0 -1.75195,-3.24804 z"
             style="opacity:0.3;fill:#000000;fill-opacity:1;stroke:none;stroke-width:0.5;stroke-miterlimit:4;stroke-dasharray:0.99999994, 0.99999994;stroke-dashoffset:0" />
        </g>
      </g>
    </g>
  </g>
</svg>
