<?xml version="1.0" encoding="UTF-8" standalone="no"?>
<!-- Created with Inkscape (http://www.inkscape.org/) -->

<svg
   xmlns:dc="http://purl.org/dc/elements/1.1/"
   xmlns:cc="http://creativecommons.org/ns#"
   xmlns:rdf="http://www.w3.org/1999/02/22-rdf-syntax-ns#"
   xmlns:svg="http://www.w3.org/2000/svg"
   xmlns="http://www.w3.org/2000/svg"
   xmlns:sodipodi="http://sodipodi.sourceforge.net/DTD/sodipodi-0.dtd"
   xmlns:inkscape="http://www.inkscape.org/namespaces/inkscape"
   width="210mm"
   height="297mm"
   id="svg2"
   version="1.1"
   inkscape:version="0.48.4 r9939"
   sodipodi:docname="newicon-wide.svg"
   inkscape:export-filename="/home/lucas/Build/dw/assets-src/newicon-wide.png"
   inkscape:export-xdpi="90"
   inkscape:export-ydpi="90">
  <defs
     id="defs4" />
  <sodipodi:namedview
     id="base"
     pagecolor="#ffffff"
     bordercolor="#666666"
     borderopacity="1.0"
     inkscape:pageopacity="0.0"
     inkscape:pageshadow="2"
     inkscape:zoom="1"
     inkscape:cx="196.89351"
     inkscape:cy="788.69001"
     inkscape:document-units="px"
     inkscape:current-layer="g3027"
     showgrid="false"
     inkscape:snap-bbox="true"
     inkscape:bbox-nodes="true"
     inkscape:snap-bbox-edge-midpoints="true"
     inkscape:window-width="1366"
     inkscape:window-height="713"
     inkscape:window-x="0"
     inkscape:window-y="31"
     inkscape:window-maximized="1"
     showguides="true"
     inkscape:guide-bbox="true" />
  <metadata
     id="metadata7">
    <rdf:RDF>
      <cc:Work
         rdf:about="">
        <dc:format>image/svg+xml</dc:format>
        <dc:type
           rdf:resource="http://purl.org/dc/dcmitype/StillImage" />
        <dc:title></dc:title>
      </cc:Work>
    </rdf:RDF>
  </metadata>
  <g
     inkscape:label="Camada 1"
     inkscape:groupmode="layer"
     id="layer1">
    <g
       id="g3027">
      <path
         style="fill:#222b00;fill-opacity:1;stroke:none"
         d="M 107.75 221.375 L 107.75 370.875 L 257.25 370.875 L 257.25 221.375 L 179.8125 221.375 L 179.8125 315 C 179.81243 317.99164 178.75033 320.47433 176.65625 322.46875 C 174.66177 324.46317 172.2356 325.46875 169.34375 325.46875 L 137.78125 325.46875 C 132.69545 325.46875 128.25814 323.96039 124.46875 320.96875 C 120.67934 317.97712 118.27846 313.96079 117.28125 308.875 C 117.28125 307.97753 117.22472 306.33083 117.125 303.9375 L 117.125 296.4375 C 117.125 293.74506 117.09972 291.20584 117 288.8125 L 117 283.875 L 117 283.59375 C 117 280.60216 117.58459 277.81155 118.78125 275.21875 C 122.17176 267.1414 128.50717 262.95548 137.78125 262.65625 C 138.57899 262.65631 139.9743 262.65631 141.96875 262.65625 C 143.96314 262.55659 146.0561 262.50006 148.25 262.5 C 150.44383 262.50006 152.53679 262.50006 154.53125 262.5 C 156.52563 262.40034 157.92094 262.34381 158.71875 262.34375 L 158.71875 221.375 L 107.75 221.375 z M 185.9375 262.78125 L 206.5625 262.78125 L 206.5625 293.625 C 206.86164 293.42559 207.53401 292.94808 208.53125 292.25 C 209.52843 291.55199 210.16956 291.10573 210.46875 290.90625 C 210.66816 290.80656 211.11442 290.6117 211.8125 290.3125 C 212.51052 289.91365 213.01331 289.60573 213.3125 289.40625 C 213.51191 289.40629 213.70678 289.38101 213.90625 289.28125 C 214.10566 289.18157 214.244 289.12504 214.34375 289.125 L 219.59375 289.125 C 220.09232 289.32448 220.42552 289.40629 220.625 289.40625 C 222.02106 290.10433 223.13969 290.72018 223.9375 291.21875 C 224.83495 291.71739 225.97886 292.5281 227.375 293.625 L 227.375 262.78125 L 248 262.78125 L 248 317.53125 C 247.99993 317.93014 247.80507 318.54599 247.40625 319.34375 C 247.0073 320.0418 246.73063 320.56987 246.53125 320.96875 C 245.6337 322.66401 244.43326 323.83917 242.9375 324.4375 C 241.44162 324.93611 239.8202 325.1875 238.125 325.1875 C 235.23303 325.1875 232.66854 324.23845 230.375 322.34375 L 217.78125 313.34375 C 217.38233 313.14432 217.16219 313.06251 217.0625 313.0625 L 216.90625 313.0625 L 216.75 313.0625 C 216.65025 313.06251 216.51191 313.11904 216.3125 313.21875 C 216.21275 313.31848 216.04316 313.45682 215.84375 313.65625 C 215.744 313.75598 215.29774 314.08918 214.5 314.6875 C 213.7022 315.28584 212.86621 315.95821 211.96875 316.65625 C 211.07123 317.35431 210.20399 317.99543 209.40625 318.59375 C 208.60846 319.09236 208.08039 319.42556 207.78125 319.625 C 206.08597 320.92138 204.2444 322.17835 202.25 323.375 C 200.25556 324.57165 198.10607 325.1875 195.8125 325.1875 C 193.71835 325.1875 191.87678 324.76652 190.28125 323.96875 C 188.68571 323.07126 187.48526 321.61943 186.6875 319.625 C 186.48805 319.32584 186.29319 318.93611 186.09375 318.4375 C 185.99403 317.9389 185.9375 317.63098 185.9375 317.53125 L 185.9375 262.78125 z M 138.53125 284.1875 L 138.53125 303.9375 L 158.5625 303.9375 L 158.5625 284.1875 L 138.53125 284.1875 z "
         id="rect3025" />
      <rect
         style="fill:#668000;fill-opacity:1;stroke:none"
         id="rect3036"
         width="149.5"
         height="14.95"
         x="107.75"
         y="355.91217"
         inkscape:export-filename="/home/lucas/Build/dw/assets-src/newicon.png"
         inkscape:export-xdpi="77.056854"
         inkscape:export-ydpi="77.056854" />
      <path
         sodipodi:type="inkscape:offset"
         inkscape:radius="0"
         inkscape:original="M 477.53125 237.375 L 477.53125 257.71875 L 498.34375 257.71875 L 498.34375 237.375 L 477.53125 237.375 z M 349.65625 262.65625 C 348.65903 262.65631 347.57164 262.85118 346.375 263.25 C 345.27806 263.64895 344.21595 264.17701 343.21875 264.875 C 342.32125 265.57311 341.54179 266.44035 340.84375 267.4375 C 340.24542 268.43477 339.9375 269.52215 339.9375 270.71875 L 339.9375 325.1875 L 360.875 325.1875 L 360.875 284.1875 L 381.375 284.1875 L 381.375 325.1875 L 402.46875 325.1875 L 402.46875 283.875 C 402.46868 280.88341 401.9659 278.0928 400.96875 275.5 C 399.97148 272.9073 398.51964 270.67601 396.625 268.78125 C 394.82996 266.88661 392.62394 265.37824 390.03125 264.28125 C 387.43845 263.18438 384.62256 262.65631 381.53125 262.65625 L 349.65625 262.65625 z M 429.375 262.65625 C 426.38334 262.65631 423.64926 263.18438 421.15625 264.28125 C 418.66321 265.27852 416.45719 266.73036 414.5625 268.625 C 412.66779 270.51976 411.19068 272.7823 410.09375 275.375 C 409.09654 277.86808 408.59375 280.60216 408.59375 283.59375 L 408.59375 283.75 L 408.59375 288.6875 C 408.69347 291.08084 408.75 293.62006 408.75 296.3125 L 408.75 303.78125 C 408.84972 306.17458 408.875 307.82128 408.875 308.71875 C 409.97193 313.90426 412.37281 317.95184 416.0625 320.84375 C 419.85189 323.63594 424.34573 325.03125 429.53125 325.03125 L 432.8125 325.03125 C 433.70996 324.83181 434.5772 324.52389 435.375 324.125 C 436.27246 323.72612 437.05192 323.22333 437.75 322.625 L 450.1875 310.5 L 450.1875 330.09375 L 408.875 330.09375 L 408.875 351.0625 L 454.65625 351.0625 C 454.75592 351.06247 455.20218 350.94942 456 350.75 C 456.79772 350.65025 457.41356 350.51192 457.8125 350.3125 C 458.01189 350.31248 458.20676 350.25595 458.40625 350.15625 C 458.60564 350.0565 458.74398 349.99998 458.84375 350 C 462.73282 348.205 465.77482 345.55272 467.96875 342.0625 C 470.26227 338.67197 471.40618 334.73744 471.40625 330.25 L 471.40625 283.4375 C 471.40618 280.44591 470.87812 277.71183 469.78125 275.21875 C 468.78398 272.72577 467.33214 270.51976 465.4375 268.625 C 463.54274 266.73036 461.33672 265.27852 458.84375 264.28125 C 456.35067 263.18438 453.61659 262.65631 450.625 262.65625 L 429.375 262.65625 z M 514.125 262.65625 C 513.12778 262.65631 512.04039 262.85118 510.84375 263.25 C 509.74681 263.64895 508.71595 264.17701 507.71875 264.875 C 506.82125 265.57311 506.01054 266.44035 505.3125 267.4375 C 504.71417 268.43477 504.40625 269.52215 504.40625 270.71875 L 504.40625 325.1875 L 525.34375 325.1875 L 525.34375 284.1875 L 545.84375 284.1875 L 545.84375 325.1875 L 566.9375 325.1875 L 566.9375 283.875 C 566.93743 280.88341 566.43465 278.0928 565.4375 275.5 C 564.44023 272.9073 562.98839 270.67601 561.09375 268.78125 C 559.29871 266.88661 557.12394 265.37824 554.53125 264.28125 C 551.93845 263.18438 549.09131 262.65631 546 262.65625 L 514.125 262.65625 z M 291.78125 262.78125 C 288.78959 262.78131 286.05551 263.34063 283.5625 264.4375 C 281.06946 265.43477 278.86344 266.88661 276.96875 268.78125 C 275.07404 270.67601 273.56568 272.9073 272.46875 275.5 C 271.47154 277.99308 271 280.75841 271 283.75 L 271 283.875 L 271 288.8125 C 271.09972 291.20584 271.125 293.74506 271.125 296.4375 L 271.125 303.9375 C 271.22472 306.33083 271.28125 307.97753 271.28125 308.875 C 272.87678 315.95521 276.92437 320.92059 283.40625 323.8125 C 283.90484 324.01194 284.79736 324.31987 286.09375 324.71875 C 287.39011 325.01791 288.2261 325.1875 288.625 325.1875 L 333.8125 325.1875 L 333.8125 304.21875 L 319.15625 304.21875 L 330.96875 291.8125 C 331.9659 290.81532 332.66355 289.55835 333.0625 288.0625 C 333.56104 286.56672 333.81243 285.14614 333.8125 283.75 C 333.81243 280.75841 333.25312 277.99308 332.15625 275.5 C 331.15898 272.9073 329.73839 270.73254 327.84375 268.9375 C 326.04871 267.04286 323.84269 265.53449 321.25 264.4375 C 318.75692 263.34063 316.02284 262.78131 313.03125 262.78125 L 291.78125 262.78125 z M 593.875 262.78125 C 590.88334 262.78131 588.11801 263.34063 585.625 264.4375 C 583.13196 265.43477 580.95719 266.88661 579.0625 268.78125 C 577.16779 270.67601 575.65943 272.9073 574.5625 275.5 C 573.56529 277.99308 573.0625 280.75841 573.0625 283.75 L 573.0625 283.875 L 573.0625 288.8125 C 573.16222 291.20584 573.21875 293.74506 573.21875 296.4375 L 573.21875 303.9375 C 573.31847 306.33083 573.375 307.97753 573.375 308.875 C 574.97053 315.95521 579.01812 320.92059 585.5 323.8125 C 585.99859 324.01194 586.89111 324.31987 588.1875 324.71875 C 589.48386 325.01791 590.31985 325.1875 590.71875 325.1875 L 635.90625 325.1875 L 635.90625 304.21875 L 621.25 304.21875 L 633.0625 291.8125 C 634.05965 290.81532 634.7573 289.55835 635.15625 288.0625 C 635.65479 286.56672 635.90618 285.14614 635.90625 283.75 C 635.90618 280.75841 635.34687 277.99308 634.25 275.5 C 633.25273 272.9073 631.80089 270.73254 629.90625 268.9375 C 628.11121 267.04286 625.93644 265.53449 623.34375 264.4375 C 620.85067 263.34063 618.08534 262.78131 615.09375 262.78125 L 593.875 262.78125 z M 477.53125 262.9375 L 477.53125 325.1875 L 498.34375 325.1875 L 498.34375 262.9375 L 477.53125 262.9375 z M 430.125 284.03125 L 444.34375 284.03125 L 430.125 298.40625 L 430.125 284.03125 z M 292.53125 284.1875 L 306.75 284.1875 L 292.53125 298.40625 L 292.53125 284.1875 z M 594.625 284.1875 L 608.8125 284.1875 L 594.625 298.40625 L 594.625 284.1875 z "
         style="font-size:149.58171082px;font-style:normal;font-variant:normal;font-weight:normal;font-stretch:normal;line-height:125%;letter-spacing:0px;word-spacing:0px;fill:#22280b;fill-opacity:1;stroke:none;font-family:Bandwidth Bandless BRK;-inkscape-font-specification:Bandwidth Bandless BRK"
         id="path3083"
         d="m 477.53125,237.375 0,20.34375 20.8125,0 0,-20.34375 -20.8125,0 z m -127.875,25.28125 c -0.99722,6e-5 -2.08461,0.19493 -3.28125,0.59375 -1.09694,0.39895 -2.15905,0.92701 -3.15625,1.625 -0.8975,0.69811 -1.67696,1.56535 -2.375,2.5625 -0.59833,0.99727 -0.90625,2.08465 -0.90625,3.28125 l 0,54.46875 20.9375,0 0,-41 20.5,0 0,41 21.09375,0 0,-41.3125 c -7e-5,-2.99159 -0.50285,-5.7822 -1.5,-8.375 -0.99727,-2.5927 -2.44911,-4.82399 -4.34375,-6.71875 -1.79504,-1.89464 -4.00106,-3.40301 -6.59375,-4.5 -2.5928,-1.09687 -5.40869,-1.62494 -8.5,-1.625 l -31.875,0 z m 79.71875,0 c -2.99166,6e-5 -5.72574,0.52813 -8.21875,1.625 -2.49304,0.99727 -4.69906,2.44911 -6.59375,4.34375 -1.89471,1.89476 -3.37182,4.1573 -4.46875,6.75 -0.99721,2.49308 -1.5,5.22716 -1.5,8.21875 l 0,0.15625 0,4.9375 c 0.0997,2.39334 0.15625,4.93256 0.15625,7.625 l 0,7.46875 c 0.0997,2.39333 0.125,4.04003 0.125,4.9375 1.09693,5.18551 3.49781,9.23309 7.1875,12.125 3.78939,2.79219 8.28323,4.1875 13.46875,4.1875 l 3.28125,0 c 0.89746,-0.19944 1.7647,-0.50736 2.5625,-0.90625 0.89746,-0.39888 1.67692,-0.90167 2.375,-1.5 l 12.4375,-12.125 0,19.59375 -41.3125,0 0,20.96875 45.78125,0 c 0.0997,-3e-5 0.54593,-0.11308 1.34375,-0.3125 0.79772,-0.0997 1.41356,-0.23808 1.8125,-0.4375 0.19939,-2e-5 0.39426,-0.0566 0.59375,-0.15625 0.19939,-0.0997 0.33773,-0.15627 0.4375,-0.15625 3.88907,-1.795 6.93107,-4.44728 9.125,-7.9375 2.29352,-3.39053 3.43743,-7.32506 3.4375,-11.8125 l 0,-46.8125 c -7e-5,-2.99159 -0.52813,-5.72567 -1.625,-8.21875 -0.99727,-2.49298 -2.44911,-4.69899 -4.34375,-6.59375 -1.89476,-1.89464 -4.10078,-3.34648 -6.59375,-4.34375 -2.49308,-1.09687 -5.22716,-1.62494 -8.21875,-1.625 l -21.25,0 z m 84.75,0 c -0.99722,6e-5 -2.08461,0.19493 -3.28125,0.59375 -1.09694,0.39895 -2.1278,0.92701 -3.125,1.625 -0.8975,0.69811 -1.70821,1.56535 -2.40625,2.5625 -0.59833,0.99727 -0.90625,2.08465 -0.90625,3.28125 l 0,54.46875 20.9375,0 0,-41 20.5,0 0,41 21.09375,0 0,-41.3125 c -7e-5,-2.99159 -0.50285,-5.7822 -1.5,-8.375 -0.99727,-2.5927 -2.44911,-4.82399 -4.34375,-6.71875 -1.79504,-1.89464 -3.96981,-3.40301 -6.5625,-4.5 -2.5928,-1.09687 -5.43994,-1.62494 -8.53125,-1.625 l -31.875,0 z m -222.34375,0.125 c -2.99166,6e-5 -5.72574,0.55938 -8.21875,1.65625 -2.49304,0.99727 -4.69906,2.44911 -6.59375,4.34375 -1.89471,1.89476 -3.40307,4.12605 -4.5,6.71875 C 271.47154,277.99308 271,280.75841 271,283.75 l 0,0.125 0,4.9375 c 0.0997,2.39334 0.125,4.93256 0.125,7.625 l 0,7.5 c 0.0997,2.39333 0.15625,4.04003 0.15625,4.9375 1.59553,7.08021 5.64312,12.04559 12.125,14.9375 0.49859,0.19944 1.39111,0.50737 2.6875,0.90625 1.29636,0.29916 2.13235,0.46875 2.53125,0.46875 l 45.1875,0 0,-20.96875 -14.65625,0 11.8125,-12.40625 c 0.99715,-0.99718 1.6948,-2.25415 2.09375,-3.75 0.49854,-1.49578 0.74993,-2.91636 0.75,-4.3125 -7e-5,-2.99159 -0.55938,-5.75692 -1.65625,-8.25 -0.99727,-2.5927 -2.41786,-4.76746 -4.3125,-6.5625 -1.79504,-1.89464 -4.00106,-3.40301 -6.59375,-4.5 -2.49308,-1.09687 -5.22716,-1.65619 -8.21875,-1.65625 l -21.25,0 z m 302.09375,0 c -2.99166,6e-5 -5.75699,0.55938 -8.25,1.65625 -2.49304,0.99727 -4.66781,2.44911 -6.5625,4.34375 -1.89471,1.89476 -3.40307,4.12605 -4.5,6.71875 -0.99721,2.49308 -1.5,5.25841 -1.5,8.25 l 0,0.125 0,4.9375 c 0.0997,2.39334 0.15625,4.93256 0.15625,7.625 l 0,7.5 c 0.0997,2.39333 0.15625,4.04003 0.15625,4.9375 1.59553,7.08021 5.64312,12.04559 12.125,14.9375 0.49859,0.19944 1.39111,0.50737 2.6875,0.90625 1.29636,0.29916 2.13235,0.46875 2.53125,0.46875 l 45.1875,0 0,-20.96875 -14.65625,0 11.8125,-12.40625 c 0.99715,-0.99718 1.6948,-2.25415 2.09375,-3.75 0.49854,-1.49578 0.74993,-2.91636 0.75,-4.3125 -7e-5,-2.99159 -0.55938,-5.75692 -1.65625,-8.25 -0.99727,-2.5927 -2.44911,-4.76746 -4.34375,-6.5625 -1.79504,-1.89464 -3.96981,-3.40301 -6.5625,-4.5 -2.49308,-1.09687 -5.25841,-1.65619 -8.25,-1.65625 l -21.21875,0 z m -116.34375,0.15625 0,62.25 20.8125,0 0,-62.25 -20.8125,0 z m -47.40625,21.09375 14.21875,0 -14.21875,14.375 0,-14.375 z m -137.59375,0.15625 14.21875,0 -14.21875,14.21875 0,-14.21875 z m 302.09375,0 14.1875,0 -14.1875,14.21875 0,-14.21875 z" />
    </g>
  </g>
</svg>
