<?xml version="1.0" encoding="UTF-8" standalone="no"?>
<!-- Created with Inkscape (http://www.inkscape.org/) -->

<svg
   xmlns:dc="http://purl.org/dc/elements/1.1/"
   xmlns:cc="http://creativecommons.org/ns#"
   xmlns:rdf="http://www.w3.org/1999/02/22-rdf-syntax-ns#"
   xmlns:svg="http://www.w3.org/2000/svg"
   xmlns="http://www.w3.org/2000/svg"
   xmlns:xlink="http://www.w3.org/1999/xlink"
   xmlns:sodipodi="http://sodipodi.sourceforge.net/DTD/sodipodi-0.dtd"
   xmlns:inkscape="http://www.inkscape.org/namespaces/inkscape"
   width="1280"
   height="720"
   id="svg2"
   version="1.1"
   inkscape:version="0.48.4 r9939"
   sodipodi:docname="title.svg"
   inkscape:export-filename="/home/lucas/Build/dw/assets-src/title.png"
   inkscape:export-xdpi="90"
   inkscape:export-ydpi="90">
  <defs
     id="defs4">
    <linearGradient
       id="linearGradient6540">
      <stop
         style="stop-color:#000000;stop-opacity:0;"
         offset="0"
         id="stop6542" />
      <stop
         id="stop6548"
         offset="0.93220341"
         style="stop-color:#000000;stop-opacity:0;" />
      <stop
         style="stop-color:#000000;stop-opacity:0.35042736;"
         offset="0.96610171"
         id="stop6550" />
      <stop
         style="stop-color:#000000;stop-opacity:0.44444445;"
         offset="1"
         id="stop6544" />
    </linearGradient>
    <filter
       id="filter6506"
       inkscape:menu="Transparency utilities"
       inkscape:label="Alpha repaint"
       inkscape:menu-tooltip="Repaint anything monochrome">
      <feFlood
         id="feFlood6508"
         flood-color="rgb(255,0,105)"
         result="result1" />
      <feComposite
         id="feComposite6510"
         in2="SourceGraphic"
         operator="in"
         result="result2" />
    </filter>
    <clipPath
       clipPathUnits="userSpaceOnUse"
       id="clipPath6751">
      <path
         transform="matrix(0.98876559,0.14947445,-0.14947445,0.98876559,-433.63055,415.31252)"
         d="m 871.42859,225.71428 a 240,240 0 1 1 -480,0 240,240 0 1 1 480,0 z"
         sodipodi:ry="240"
         sodipodi:rx="240"
         sodipodi:cy="225.71428"
         sodipodi:cx="631.42859"
         id="path6753"
         style="fill:#0088aa;fill-opacity:1;stroke:none"
         sodipodi:type="arc" />
    </clipPath>
    <clipPath
       clipPathUnits="userSpaceOnUse"
       id="clipPath3100">
      <path
         style="fill:#ffffff;fill-opacity:1;stroke:none"
         d="m 875.57704,751.20422 c 56.26728,0 101.5304,4.71769 101.5304,10.59375 l 0,144.625 c 0,5.87606 -45.26312,10.59375 -101.5304,10.59375 l -412.036,0 c -56.26728,0 -101.65361,-4.71769 -101.65361,-10.59375 l 0,-6.21875 87.11407,0 65.67439,-56.40625 -65.67439,-56.4375 -87.11407,0 0,-25.5625 c 0,-5.87606 45.38633,-10.59375 101.65361,-10.59375 l 412.036,0 z"
         id="path3102"
         inkscape:connector-curvature="0" />
    </clipPath>
    <radialGradient
       inkscape:collect="always"
       xlink:href="#linearGradient6540"
       id="radialGradient4071"
       cx="631.42859"
       cy="225.71428"
       fx="631.42859"
       fy="225.71428"
       r="240"
       gradientUnits="userSpaceOnUse" />
  </defs>
  <sodipodi:namedview
     id="base"
     pagecolor="#ffffff"
     bordercolor="#666666"
     borderopacity="1.0"
     inkscape:pageopacity="0.0"
     inkscape:pageshadow="2"
     inkscape:zoom="1"
     inkscape:cx="853.15508"
     inkscape:cy="316.92057"
     inkscape:document-units="px"
     inkscape:current-layer="g3950"
     showgrid="false"
     inkscape:snap-bbox="true"
     inkscape:snap-smooth-nodes="true"
     inkscape:bbox-nodes="true"
     inkscape:snap-global="false"
     inkscape:snap-bbox-midpoints="true"
     inkscape:window-width="1366"
     inkscape:window-height="713"
     inkscape:window-x="-3"
     inkscape:window-y="28"
     inkscape:window-maximized="1"
     inkscape:object-nodes="true" />
  <metadata
     id="metadata7">
    <rdf:RDF>
      <cc:Work
         rdf:about="">
        <dc:format>image/svg+xml</dc:format>
        <dc:type
           rdf:resource="http://purl.org/dc/dcmitype/StillImage" />
        <dc:title />
      </cc:Work>
    </rdf:RDF>
  </metadata>
  <g
     inkscape:label="Camada 1"
     inkscape:groupmode="layer"
     id="layer1"
     transform="translate(0,-332.36215)">
    <text
       xml:space="preserve"
       style="font-size:40px;font-style:normal;font-variant:normal;font-weight:normal;font-stretch:normal;line-height:125%;letter-spacing:0px;word-spacing:0px;fill:#000000;fill-opacity:1;stroke:none;font-family:NiseSegaSonic;-inkscape-font-specification:NiseSegaSonic"
       x="345.47217"
       y="862.45349"
       id="text3854"
       sodipodi:linespacing="125%"><tspan
         sodipodi:role="line"
         id="tspan3856"
         x="345.47217"
         y="862.45349" /></text>
    <path
       style="fill:#000000"
       d=""
       id="path6532"
       inkscape:connector-curvature="0" />
    <g
       transform="translate(-1266.9795,239.31001)"
       id="g3088">
      <path
         inkscape:connector-curvature="0"
         id="path3243"
         d="m 1134.1154,722.34598 -230.57432,38.33672 184.22432,-142.44047 0,0"
         style="fill:#d4aa00;stroke:none" />
      <path
         inkscape:connector-curvature="0"
         id="path3078"
         d="m 903.54116,760.6827 131.88574,-95.31459 36.7086,22.20305 z"
         style="fill:#aa8800;stroke:none" />
      <path
         style="fill:#aa8800;stroke:none"
         d="M 1137.6868,421.90961 1100.1041,401.2205 907.11256,460.24633 1137.6868,421.90961"
         id="path3082"
         inkscape:connector-curvature="0"
         transform="translate(-3.57144,300.43637)" />
      <path
         inkscape:transform-center-y="-3.8491146"
         inkscape:transform-center-x="-1.9351555"
         transform="matrix(-0.48158232,0,0,0.48158232,1225.0181,516.01245)"
         d="m 334.20128,443.73579 -67.40273,-58.24735 -78.04012,42.96068 34.56794,-82.10322 -64.97377,-60.94499 88.76688,7.50477 37.88414,-80.62676 20.29301,86.74143 88.38745,11.11491 -76.22512,46.10438 z"
         inkscape:randomized="0"
         inkscape:rounded="0"
         inkscape:flatsided="false"
         sodipodi:arg2="1.6755161"
         sodipodi:arg1="1.0471976"
         sodipodi:r2="49.761032"
         sodipodi:r1="124.40257"
         sodipodi:cy="336"
         sodipodi:cx="272"
         sodipodi:sides="5"
         id="path3245"
         style="fill:#ffd42a;fill-opacity:1;stroke:none"
         sodipodi:type="star" />
      <path
         sodipodi:nodetypes="cccc"
         inkscape:connector-curvature="0"
         id="path3080"
         d="m 1072.1355,687.57116 -8.0628,42.1366 -160.53154,30.97494 168.59434,-73.11154"
         style="fill:#ffcc00;stroke:none" />
    </g>
    <g
       id="g3950">
      <path
         transform="matrix(0.88095238,0,0,0.88095238,78.741505,448.30154)"
         d="m 871.42859,225.71428 c 0,132.54834 -107.45166,240 -240,240 -132.54834,0 -240,-107.45166 -240,-240 0,-132.548341 107.45166,-240.000001 240,-240.000001 132.54834,0 240,107.45166 240,240.000001 z"
         sodipodi:ry="240"
         sodipodi:rx="240"
         sodipodi:cy="225.71428"
         sodipodi:cx="631.42859"
         id="path4063"
         style="fill:url(#radialGradient4071);fill-opacity:1.0;stroke:none"
         sodipodi:type="arc" />
      <g
         transform="matrix(-1,0,0,1,1187.0643,67.925783)"
         id="g3095">
        <path
           style="fill:#d4aa00;stroke:none"
           d="m 228.31145,441.06394 230.57427,38.33672 -184.22429,-142.44047 0,0"
           id="path3097"
           inkscape:connector-curvature="0"
           transform="translate(-3.57144,300.43637)" />
        <path
           sodipodi:type="star"
           style="fill:#ffd42a;fill-opacity:1;stroke:none"
           id="path3099"
           sodipodi:sides="5"
           sodipodi:cx="272"
           sodipodi:cy="336"
           sodipodi:r1="124.40257"
           sodipodi:r2="49.761032"
           sodipodi:arg1="1.0471976"
           sodipodi:arg2="1.6755161"
           inkscape:flatsided="false"
           inkscape:rounded="0"
           inkscape:randomized="0"
           d="m 334.20128,443.73579 -67.40273,-58.24735 -78.04012,42.96068 34.56794,-82.10322 -64.97377,-60.94499 88.76688,7.50477 37.88414,-80.62676 20.29301,86.74143 88.38745,11.11491 -76.22512,46.10438 z"
           transform="matrix(0.48158232,0,0,0.48158232,133.83729,535.16678)"
           inkscape:transform-center-x="-1.9351555"
           inkscape:transform-center-y="-3.8491146" />
      </g>
      <g
         id="g3237"
         transform="translate(83.246746,67.925783)">
        <path
           transform="translate(-3.57144,300.43637)"
           inkscape:connector-curvature="0"
           id="path3231"
           d="m 228.31145,441.06394 230.57427,38.33672 -184.22429,-142.44047 0,0"
           style="fill:#d4aa00;stroke:none" />
        <path
           inkscape:transform-center-y="-3.8491146"
           inkscape:transform-center-x="-1.9351555"
           transform="matrix(0.48158232,0,0,0.48158232,133.83729,535.16678)"
           d="m 334.20128,443.73579 -67.40273,-58.24735 -78.04012,42.96068 34.56794,-82.10322 -64.97377,-60.94499 88.76688,7.50477 37.88414,-80.62676 20.29301,86.74143 88.38745,11.11491 -76.22512,46.10438 z"
           inkscape:randomized="0"
           inkscape:rounded="0"
           inkscape:flatsided="false"
           sodipodi:arg2="1.6755161"
           sodipodi:arg1="1.0471976"
           sodipodi:r2="49.761032"
           sodipodi:r1="124.40257"
           sodipodi:cy="336"
           sodipodi:cx="272"
           sodipodi:sides="5"
           id="path3229"
           style="fill:#ffd42a;fill-opacity:1;stroke:none"
           sodipodi:type="star" />
      </g>
      <g
         transform="translate(3.57144,31.925784)"
         id="g3135">
        <g
           transform="matrix(0.25361862,0,0,1,237.11587,17.857146)"
           id="g3104"
           clip-path="url(#clipPath3100)">
          <rect
             style="fill:#aa0000;fill-opacity:1;stroke:none"
             id="rect3106"
             width="515.71423"
             height="104.28571"
             x="380"
             y="-893.79071"
             rx="0"
             ry="15.399142"
             transform="scale(1,-1)" />
          <rect
             ry="15.399142"
             rx="0"
             y="-886.29071"
             x="380"
             height="7.8571467"
             width="515.71423"
             id="rect3108"
             style="fill:#ffd5d5;fill-opacity:1;stroke:none"
             transform="scale(1,-1)" />
          <rect
             style="fill:#ffd5d5;fill-opacity:1;stroke:none"
             id="rect3110"
             width="515.71423"
             height="2.5000038"
             x="380"
             y="-872.64764"
             rx="0"
             ry="15.399142"
             transform="scale(1,-1)" />
          <rect
             style="fill:#ffd5d5;fill-opacity:1;stroke:none"
             id="rect3112"
             width="515.71423"
             height="7.8571467"
             x="380"
             y="797.00494"
             rx="0"
             ry="15.399142" />
          <rect
             ry="15.399142"
             rx="0"
             y="810.64801"
             x="380"
             height="2.5000038"
             width="515.71423"
             id="rect3114"
             style="fill:#ffd5d5;fill-opacity:1;stroke:none" />
        </g>
        <g
           clip-path="url(#clipPath3100)"
           id="g6691"
           transform="matrix(-0.25361862,0,0,1,1035.7412,17.857149)">
          <rect
             transform="scale(1,-1)"
             ry="15.399142"
             rx="0"
             y="-893.79071"
             x="380"
             height="104.28571"
             width="515.71423"
             id="rect6693"
             style="fill:#aa0000;fill-opacity:1;stroke:none" />
          <rect
             transform="scale(1,-1)"
             style="fill:#ffd5d5;fill-opacity:1;stroke:none"
             id="rect6695"
             width="515.71423"
             height="7.8571467"
             x="380"
             y="-886.29071"
             rx="0"
             ry="15.399142" />
          <rect
             transform="scale(1,-1)"
             ry="15.399142"
             rx="0"
             y="-872.64764"
             x="380"
             height="2.5000038"
             width="515.71423"
             id="rect6697"
             style="fill:#ffd5d5;fill-opacity:1;stroke:none" />
          <rect
             ry="15.399142"
             rx="0"
             y="797.00494"
             x="380"
             height="7.8571467"
             width="515.71423"
             id="rect6699"
             style="fill:#ffd5d5;fill-opacity:1;stroke:none" />
          <rect
             style="fill:#ffd5d5;fill-opacity:1;stroke:none"
             id="rect6701"
             width="515.71423"
             height="2.5000038"
             x="380"
             y="810.64801"
             rx="0"
             ry="15.399142" />
        </g>
        <g
           inkscape:transform-center-y="-10.714289"
           inkscape:transform-center-x="-36.428542"
           id="g6703"
           transform="matrix(-0.14127415,0.05817175,0,1,935.11271,-34.248115)">
          <rect
             transform="scale(1,-1)"
             ry="15.399142"
             rx="0"
             y="-893.79071"
             x="380"
             height="104.28571"
             width="515.71423"
             id="rect6705"
             style="fill:#550000;fill-opacity:1;stroke:none" />
          <rect
             transform="scale(1,-1)"
             style="fill:#eca9a9;fill-opacity:1;stroke:none"
             id="rect6707"
             width="515.71423"
             height="7.8571467"
             x="380"
             y="-886.29071"
             rx="0"
             ry="15.399142" />
          <rect
             transform="scale(1,-1)"
             ry="15.399142"
             rx="0"
             y="-872.64764"
             x="380"
             height="2.5000038"
             width="515.71423"
             id="rect6709"
             style="fill:#eca9a9;fill-opacity:1;stroke:none" />
          <rect
             ry="15.399142"
             rx="0"
             y="797.00494"
             x="380"
             height="7.8571467"
             width="515.71423"
             id="rect6711"
             style="fill:#ffd5d5;fill-opacity:1;stroke:none" />
          <rect
             style="fill:#ffd5d5;fill-opacity:1;stroke:none"
             id="rect6713"
             width="515.71423"
             height="2.5000038"
             x="380"
             y="810.64801"
             rx="0"
             ry="15.399142" />
        </g>
        <g
           transform="matrix(0.14127415,0.05817175,0,1,337.74441,-34.248118)"
           id="g6647"
           inkscape:transform-center-x="-36.428542"
           inkscape:transform-center-y="-10.714289">
          <rect
             style="fill:#550000;fill-opacity:1;stroke:none"
             id="rect6649"
             width="515.71423"
             height="104.28571"
             x="380"
             y="-893.79071"
             rx="0"
             ry="15.399142"
             transform="scale(1,-1)" />
          <rect
             ry="15.399142"
             rx="0"
             y="-886.29071"
             x="380"
             height="7.8571467"
             width="515.71423"
             id="rect6651"
             style="fill:#eca9a9;fill-opacity:1;stroke:none"
             transform="scale(1,-1)" />
          <rect
             style="fill:#eca9a9;fill-opacity:1;stroke:none"
             id="rect6653"
             width="515.71423"
             height="2.5000038"
             x="380"
             y="-872.64764"
             rx="0"
             ry="15.399142"
             transform="scale(1,-1)" />
          <rect
             style="fill:#ffd5d5;fill-opacity:1;stroke:none"
             id="rect6655"
             width="515.71423"
             height="7.8571467"
             x="380"
             y="797.00494"
             rx="0"
             ry="15.399142" />
          <rect
             ry="15.399142"
             rx="0"
             y="810.64801"
             x="380"
             height="2.5000038"
             width="515.71423"
             id="rect6657"
             style="fill:#ffd5d5;fill-opacity:1;stroke:none" />
        </g>
        <g
           id="g6640"
           transform="matrix(0.9501385,0,0,1,30.375956,-12.14285)">
          <rect
             transform="scale(1,-1)"
             ry="15.399142"
             rx="0"
             y="-893.79071"
             x="380"
             height="104.28571"
             width="515.71423"
             id="rect6628"
             style="fill:#aa0000;fill-opacity:1;stroke:none" />
          <rect
             transform="scale(1,-1)"
             style="fill:#ffd5d5;fill-opacity:1;stroke:none"
             id="rect6630"
             width="515.71423"
             height="7.8571467"
             x="380"
             y="-886.29071"
             rx="0"
             ry="15.399142" />
          <rect
             transform="scale(1,-1)"
             ry="15.399142"
             rx="0"
             y="-872.64764"
             x="380"
             height="2.5000038"
             width="515.71423"
             id="rect6632"
             style="fill:#ffd5d5;fill-opacity:1;stroke:none" />
          <rect
             ry="15.399142"
             rx="0"
             y="797.00494"
             x="380"
             height="7.8571467"
             width="515.71423"
             id="rect6583"
             style="fill:#ffd5d5;fill-opacity:1;stroke:none" />
          <rect
             style="fill:#ffd5d5;fill-opacity:1;stroke:none"
             id="rect6585"
             width="515.71423"
             height="2.5000038"
             x="380"
             y="810.64801"
             rx="0"
             ry="15.399142" />
        </g>
      </g>
      <g
         transform="matrix(0.3041406,0,0,0.3041406,547.02719,410.92834)"
         id="g3963">
        <rect
           style="fill:#ffffff;fill-opacity:1;stroke:none"
           id="rect3961"
           width="195.09584"
           height="214.65378"
           x="-132.32999"
           y="146.23335"
           transform="translate(0,332.36215)"
           rx="122.96259"
           ry="50.631657" />
        <path
           inkscape:connector-curvature="0"
           id="path3954"
           d="m -155.84026,720.25208 c -5.06331,-4.78162 -9.55858,-9.58655 -9.98949,-10.67762 -0.43092,-1.09107 -0.64883,-57.36634 -0.48425,-125.05615 0.27711,-113.97595 0.42823,-123.45353 2.04458,-128.22929 3.753,-11.08886 12.40844,-19.68731 22.97719,-22.82589 2.9393,-0.87288 11.40542,-1.75472 20.15691,-2.09956 14.93598,-0.58854 15.42381,-0.53859 48.08905,4.9243 18.15,3.03538 59.55,9.84342 92,15.12898 32.45,5.28556 60.0125,10.03223 61.25,10.54815 l 2.25,0.93805 -0.006,98.27144 c -0.003,58.30621 -0.39787,100.6656 -0.96988,104.1585 -1.99007,12.15201 -10.01259,24.12075 -18.71199,27.91629 -2.09658,0.91482 -26.53713,5.4788 -54.31213,10.14217 -27.775,4.66338 -73.32859,12.32088 -101.23021,17.01667 -27.90161,4.6958 -51.43391,8.53781 -52.29399,8.53781 -0.86008,0 -5.70649,-3.91223 -10.76979,-8.69385 z m 135.44875,-35.06091 c 0.51216,-0.51216 0.79936,-4.70996 0.63822,-9.32846 l -0.29298,-8.39725 -4.86479,-0.69329 c -2.87215,-0.40931 -5.82092,-1.59153 -7.19909,-2.88626 -2.57867,-2.42252 -5.5896,-10.09581 -4.57912,-11.66976 0.35365,-0.55085 2.60024,-1.99397 4.99241,-3.20693 9.12018,-4.62439 16.71518,-13.74888 21.78163,-26.16802 8.68066,-21.2785 10.46195,-62.56901 3.93182,-91.14015 -5.2942,-23.16364 -15.0878,-35.83909 -33.06286,-42.79191 -5.00284,-1.93511 -7.91122,-2.32618 -17.5,-2.35308 -9.67973,-0.0272 -12.41046,0.32921 -17.25209,2.25143 -11.40813,4.52927 -19.8005,13.6126 -25.13228,27.20151 -5.64595,14.38961 -7.61563,27.86701 -7.61563,52.10948 0,45.40489 10.50471,72.64537 31.73099,82.28382 3.17296,1.44078 6.41808,2.97269 7.21138,3.40425 0.79331,0.43156 2.40205,3.90197 3.57498,7.71202 4.42818,14.38415 10.02659,21.09936 20.47618,24.56088 3.20426,1.06144 21.92967,0.34328 23.16123,-0.88828 z M -58.6301,630.66842 c -4.25666,-2.86856 -8.48851,-11.07548 -10.42761,-20.22249 -2.66135,-12.55393 -3.90861,-41.40658 -2.62466,-60.71542 1.29782,-19.51724 3.08056,-28.56086 6.71685,-34.07362 6.06835,-9.19987 16.84442,-10.33622 24.1204,-2.54352 7.18389,7.69406 9.68435,22.30595 9.63993,56.33256 -0.0336,25.76389 -1.00667,37.64356 -3.87418,47.2995 -4.02076,13.53938 -14.72739,19.86904 -23.55073,13.92299 z M 46.95373,640.8075 c 3.85,-1.10174 7.5625,-2.73231 8.25,-3.6235 1.35145,-1.75183 1.69575,-11.98898 0.46815,-13.91934 -0.56821,-0.89348 -2.14667,-0.79286 -6.47917,0.41303 -6.71733,1.86967 -10.16925,0.89694 -11.77143,-3.31711 -0.60844,-1.60033 -0.8908,-16.59478 -0.72992,-38.76229 l 0.26237,-36.15236 8.5,0 8.5,0 0.28781,-8.67332 0.28782,-8.67332 -5.28782,-0.57726 c -2.90829,-0.31749 -6.86281,-0.6895 -8.78781,-0.82668 l -3.5,-0.24942 -0.27809,-13.72985 c -0.32111,-15.85422 0.003,-15.34705 -10.18238,-15.91189 l -6.46046,-0.35826 -3.10391,13.04514 c -1.70715,7.17483 -3.439,13.58733 -3.84855,14.25 -0.41827,0.67677 -2.91026,1.20486 -5.68563,1.20486 l -4.94098,0 0,9 0,9 2.80887,0 c 6.34973,0 6.10992,-1.64502 6.41435,44 0.27425,41.12076 0.29799,41.54306 2.59773,46.21229 5.03685,10.22645 15.2881,12.62599 32.67905,7.64928 z"
           style="fill:#44a21d" />
      </g>
      <path
         transform="translate(3.57144,421.43079)"
         d="m 871.42859,225.71428 c 0,132.54834 -107.45166,240 -240,240 -132.54834,0 -240,-107.45166 -240,-240 0,-132.548341 107.45166,-240.000001 240,-240.000001 132.54834,0 240,107.45166 240,240.000001 z"
         sodipodi:ry="240"
         sodipodi:rx="240"
         sodipodi:cy="225.71428"
         sodipodi:cx="631.42859"
         id="path3868"
         style="fill:#ffcc00;fill-opacity:1;stroke:none"
         sodipodi:type="arc" />
      <path
         sodipodi:type="arc"
         style="fill:#00112b;fill-opacity:1;stroke:none"
         id="path3870"
         sodipodi:cx="631.42859"
         sodipodi:cy="225.71428"
         sodipodi:rx="240"
         sodipodi:ry="240"
         d="m 871.42859,225.71428 c 0,132.54834 -107.45166,240 -240,240 -132.54834,0 -240,-107.45166 -240,-240 0,-132.548341 107.45166,-240.000001 240,-240.000001 132.54834,0 240,107.45166 240,240.000001 z"
         transform="matrix(0.88095238,0,0,0.88095238,78.741505,448.30154)" />
      <path
         style="fill:#ffcc00"
         d="m 443.94813,663.64938 c 0.28417,-6.90588 -0.74999,-8.82293 -6.20969,-11.51104 -6.728,-3.31256 -7.42002,-3.30423 -11.68516,0.14071 -1.94555,1.57134 -3.94291,2.8403 -4.43869,2.8199 -1.22047,-0.0502 -10.90042,-10.76563 -10.84922,-12.0098 0.0224,-0.54443 1.49845,-2.61714 3.28012,-4.60601 l 3.23939,-3.61613 -2.05504,-5.821 c -2.81642,-7.97767 -3.18801,-8.36974 -8.12501,-8.57288 -5.21383,-0.21454 -6.34666,-1.89221 -6.03664,-8.94001 0.36992,-8.40856 0.90022,-9.14942 6.62327,-9.2526 3.268,-0.0589 5.32815,-0.60963 5.83586,-1.56004 1.92668,-3.60654 5.43432,-10.88276 5.45187,-11.30929 0.0106,-0.25848 -1.52308,-2.32522 -3.40825,-4.59273 l -3.42761,-4.12277 5.98926,-5.78317 c 3.29408,-3.18075 6.41815,-5.76553 6.94231,-5.74396 0.52416,0.0216 2.6425,1.49422 4.70743,3.27257 l 3.75434,3.23336 6.3172,-2.24149 c 6.6804,-2.37033 7.77296,-3.64072 8.12487,-9.44712 0.21484,-3.54274 0.31032,-3.62049 4.84865,-3.94379 2.54631,-0.18139 6.36804,-0.0234 8.49273,0.35146 3.66444,0.64585 3.85912,0.86697 3.78465,4.29904 -0.12531,5.77184 0.84504,7.14302 7.06172,9.9786 3.22229,1.46981 6.22229,2.68942 6.66651,2.71024 0.4443,0.0213 2.61633,-1.29696 4.82677,-2.92843 l 4.01906,-2.9663 3.10848,2.8419 c 1.70959,1.56305 4.32356,4.50716 5.80873,6.54247 l 2.70028,3.70055 -2.42928,2.48315 c -5.24454,5.36082 -5.19786,5.10935 -2.29315,12.36862 l 2.69886,6.74515 4.92108,0.20249 c 5.63003,0.23167 6.08482,1.00747 5.7466,9.80342 -0.24945,6.50028 -1.72383,8.20857 -7.20859,8.35491 -4.36752,0.11652 -4.39161,0.13764 -7.656,6.71528 l -3.27475,6.59839 2.9745,3.68275 c 1.63601,2.02552 2.95139,4.2445 2.92314,4.93107 -0.0283,0.68657 -2.59014,3.55722 -5.69298,6.37922 l -5.64172,5.13092 -3.83534,-3.30316 c -4.61016,-3.9704 -5.25059,-4.03389 -12.37592,-1.22703 -5.77542,2.27514 -6.93581,4.02911 -7.21903,10.91191 -0.0951,2.31177 -0.31675,2.36398 -8.59045,2.02353 -8.2737,-0.34045 -8.4903,-0.41071 -8.39517,-2.72246 z m 18.06879,-37.78605 c 4.09553,-2.06898 8.1455,-9.31114 7.45596,-13.33276 -1.36868,-7.98224 -6.50124,-12.78075 -13.99346,-13.08264 -6.05138,-0.244 -10.65424,2.53522 -13.38569,8.08182 -2.77709,5.63918 -2.27691,10.0525 1.69687,14.97249 4.62794,5.72991 11.15477,6.93352 18.22632,3.36109 z"
         id="path6536"
         inkscape:connector-curvature="0" />
      <rect
         rx="25.75889"
         ry="10.606602"
         y="581.49652"
         x="638.52106"
         height="51.83498"
         width="36.180119"
         id="rect3933"
         style="fill:#ffffff;fill-opacity:1;stroke:none" />
      <path
         inkscape:connector-curvature="0"
         id="path3931"
         d="m 730.50511,846.06457 c -8.73158,-0.60736 -14.1595,-1.85832 -21.08489,-4.8594 -8.28642,-3.59095 -12.62049,-6.41225 -22.52217,-14.66127 -9.18266,-7.65007 -14.12843,-12.34961 -14.99106,-14.24485 -0.11826,-0.25981 -0.22571,-0.49062 -0.2388,-0.51286 -0.0131,-0.0221 -0.83755,0.27358 -1.83222,0.6575 -3.78484,1.46083 -8.80707,3.042 -12.90206,4.06208 -6.27908,1.56401 -16.82171,3.81831 -23.10263,4.93992 -7.92307,1.41482 -11.87097,1.83994 -18.40687,1.98176 -6.07825,0.13197 -8.75148,-0.21697 -11.41686,-1.49031 -2.08866,-0.99777 -4.51516,-3.06425 -5.09908,-4.34248 -0.60007,-1.31357 -0.72388,-4.8229 -0.21106,-5.98218 0.14425,-0.32614 0.53896,-0.79423 1.04232,-1.23616 0.63329,-0.55598 0.8381,-0.8213 0.93818,-1.21528 0.56805,-2.23632 1.28664,-4.24177 2.1899,-6.11174 1.24424,-2.57582 2.38598,-4.11256 5.07317,-6.82834 3.57596,-3.61402 6.77357,-6.18055 11.24371,-9.02486 2.60299,-1.65624 3.81741,-2.6445 3.93078,-3.19876 0.22882,-1.11885 1.95126,-2.59091 4.56065,-3.89773 1.36454,-0.68341 8.57378,-3.72905 10.48404,-4.42919 0.87164,-0.31946 1.58317,-0.62603 1.58117,-0.68127 -0.002,-0.0551 -0.0766,-0.58298 -0.16575,-1.17265 -0.28531,-1.88684 0.0233,-2.87882 1.55598,-5.00198 0.88272,-1.22272 1.21873,-1.92527 1.31679,-2.75311 0.14206,-1.19965 0.0505,-1.36606 -1.78188,-3.2385 -0.92365,-0.94384 -1.76941,-1.89022 -1.8795,-2.10305 -0.28947,-0.55977 -0.56197,-1.81666 -0.56405,-2.60159 -0.006,-2.3725 1.30714,-4.766 3.56389,-6.49449 1.28236,-0.9822 3.79732,-2.46748 6.36912,-3.76142 1.20724,-0.60737 2.20915,-1.1161 2.22646,-1.13049 0.0562,-0.0468 -1.23084,-13.8685 -2.16281,-23.22721 -0.68862,-6.9152 -1.02107,-10.92465 -1.70825,-20.6024 -0.26898,-3.78828 -0.57145,-7.68319 -0.67214,-8.6554 -0.89372,-8.62895 -1.15649,-12.06981 -1.15677,-15.14707 -1.1e-4,-1.25716 -0.0302,-2.28571 -0.067,-2.28571 -0.0366,0 -0.79099,0.51369 -1.67623,1.14158 -4.24824,3.01313 -6.81041,4.48498 -9.96017,5.72155 -5.41847,2.12722 -9.42033,2.88825 -15.19211,2.88915 l -1.96517,0 -0.71167,1.12767 c -1.0245,1.62331 -2.84835,3.42412 -4.13536,4.08308 -1.92732,0.98688 -6.52138,2.34591 -9.34939,2.76586 -1.71027,0.25395 -4.83127,0.25684 -5.67828,0.007 -1.25931,-0.374 -1.57909,-0.88935 -1.98368,-3.19689 -0.13815,-0.78797 -0.30577,-1.60582 -0.37251,-1.81755 -0.13141,-0.41685 -0.20572,-0.45529 -2.91374,-1.50595 -2.31314,-0.89748 -3.05005,-1.61133 -3.31519,-3.21143 l -0.13068,-0.78865 -2.39145,-0.0496 -2.39144,-0.0496 -1.46289,-0.51748 c -1.91474,-0.67735 -5.16514,-2.2645 -6.12051,-2.98875 -0.73327,-0.55585 -1.64509,-1.56856 -1.89227,-2.10167 -0.0852,-0.18384 -0.52205,-0.41348 -1.47896,-0.77763 -2.31844,-0.88205 -4.22906,-1.70067 -5.62479,-2.4097 -1.04437,-0.53056 -1.52339,-0.86255 -2.16565,-1.50091 -1.46764,-1.4587 -1.73232,-2.47699 -1.54641,-5.9494 0.25212,-4.70925 0.44688,-5.29609 2.09678,-6.31762 0.38553,-0.23866 0.70028,-0.46733 0.69941,-0.50804 -0.001,-0.0406 -0.14286,-0.513 -0.31557,-1.04942 -0.20477,-0.63588 -0.33716,-1.38011 -0.38052,-2.13887 -0.0647,-1.1318 -0.0522,-1.20522 0.45389,-2.68196 0.72102,-2.10374 1.50147,-3.84518 2.04463,-4.5622 0.53666,-0.70841 1.16057,-1.11961 2.58781,-1.70555 0.97502,-0.40032 1.03413,-0.44543 1.00109,-0.76379 -0.0193,-0.18611 -0.0468,-0.96925 -0.061,-1.74027 -0.0254,-1.37535 -0.0181,-1.41702 0.38362,-2.19362 0.70362,-1.3604 1.61609,-2.57438 2.94301,-3.91543 1.10063,-1.11238 1.42525,-1.3633 2.31624,-1.79027 0.56992,-0.27317 1.42022,-0.59387 1.88957,-0.71275 0.46934,-0.11888 0.86817,-0.22413 0.88629,-0.23384 0.0181,-0.01 -0.80076,-1.356 -1.81973,-2.99178 -2.41444,-3.8759 -2.86105,-4.75815 -3.08453,-6.09287 -0.48825,-2.91622 -0.54559,-6.96527 -0.12899,-9.10855 0.58542,-3.01189 1.95127,-5.61285 3.50797,-6.68032 0.76846,-0.52692 2.33165,-1.12182 3.68667,-1.40291 1.33211,-0.2764 3.53544,-0.3105 4.12575,-0.064 1.27959,0.53463 2.79036,3.54652 5.20572,10.37796 2.64336,7.47642 3.89841,10.23264 6.80007,14.93369 1.49096,2.41555 3.75361,5.60776 3.97483,5.60776 0.0273,0 0.75283,0.13989 1.61229,0.31092 2.42182,0.48186 2.64621,0.61528 4.88648,2.90485 2.11425,2.16084 3.34111,3.54404 3.61742,4.0784 0.63504,1.22802 2.2658,9.22571 2.2658,11.11206 0,0.43951 -0.1109,1.1993 -0.24645,1.68841 l -0.24645,0.88935 0.5391,0.63209 c 0.95009,1.11389 1.17287,1.66581 1.17287,2.90547 l 0,1.07905 0.68683,0 c 0.98319,0 1.57098,0.21496 2.24524,0.82116 0.69502,0.62493 1.14636,1.48239 1.38793,2.63699 0.0959,0.4581 0.21003,0.86855 0.25373,0.91215 0.14346,0.14312 5.81653,0.0731 7.00749,-0.0865 1.85095,-0.24796 3.13107,-0.49324 4.63248,-0.88736 4.26952,-1.12078 9.28574,-3.99726 15.20255,-8.71759 1.6234,-1.29511 2.0872,-1.73931 2.67605,-2.56288 2.08534,-2.9165 4.0249,-4.68611 7.21826,-6.5859 1.07167,-0.63753 1.2241,-0.76482 0.97807,-0.81668 -2.79473,-0.58911 -5.34917,-1.40139 -7.77044,-2.47093 -5.20545,-2.29941 -8.54807,-4.48009 -11.99602,-7.82597 -2.87082,-2.7859 -4.7947,-5.4565 -5.51311,-7.65288 l -0.20043,-0.61281 -2.40036,-0.15015 c -5.5524,-0.34735 -7.51046,-0.68327 -9.41005,-1.61415 -1.86146,-0.91215 -3.68019,-3.04337 -4.28547,-5.02175 -0.37701,-1.23236 -0.28641,-2.6934 0.21029,-3.39086 0.57385,-0.80573 1.27463,-1.23842 2.10291,-1.29835 0.98462,-0.0712 1.94386,0.20423 3.90941,1.12244 3.2571,1.52165 9.19637,3.73042 10.49742,3.90393 0.49449,0.0661 0.58908,0.0358 0.95922,-0.30603 l 0.41064,-0.37917 -0.2554,-0.87268 c -0.14047,-0.47994 -0.29141,-1.10756 -0.33543,-1.39478 -0.0735,-0.4796 -0.20085,-0.63009 -1.56314,-1.84765 -1.86399,-1.66595 -2.28682,-2.13514 -2.74876,-3.05026 -0.66454,-1.31639 -0.91916,-3.15026 -0.60154,-4.33255 0.072,-0.26821 0.65435,-1.79606 1.29402,-3.39527 l 1.16299,-2.90761 0.10628,-1.48108 c 0.21077,-2.93736 0.80225,-6.16188 1.69656,-9.24899 1.73259,-5.9808 5.25741,-12.40056 10.65209,-19.40083 l 1.30248,-1.69012 -0.24925,-2.02804 c -0.48797,-3.97067 -0.62329,-6.12545 -0.7474,-11.90258 -0.25149,-11.70483 0.11365,-14.58799 1.92314,-15.18516 1.01361,-0.33454 2.7351,0.0579 4.37967,0.99914 1.8412,1.05349 2.89205,1.93602 7.96436,6.68873 1.75314,1.64267 3.2281,3.00115 3.27769,3.01871 0.0496,0.0179 0.49206,-1.107 0.9833,-2.49909 1.37177,-3.88733 3.16528,-8.66291 3.51146,-9.3499 0.96312,-1.91129 2.51446,-3.67367 3.77774,-4.29171 0.59552,-0.29135 0.86001,-0.34597 1.68242,-0.34728 1.35455,0 2.06723,0.35741 3.26577,1.64756 2.24239,2.41369 4.32402,5.94354 7.22322,12.24841 0.64745,1.408 1.19304,2.57659 1.21239,2.59677 0.0193,0.02 0.93295,-0.18343 2.03025,-0.45253 12.38369,-3.03703 25.84201,-4.07247 38.87205,-2.99061 13.94556,1.15791 30.9522,4.91189 40.96091,9.04167 2.34625,0.96808 5.16157,2.3995 5.73077,2.91374 0.43903,0.3966 0.48656,0.49681 0.48656,1.02559 0,1.20564 -0.71254,1.61346 -6.27829,3.59356 -11.82771,4.20782 -19.34917,7.95003 -25.96627,12.91908 -1.00575,0.75525 -2.09443,1.60864 -2.4194,1.89635 l -0.59077,0.52312 2.05367,0.99522 c 7.52008,3.64433 15.47809,9.11289 22.55888,15.50193 2.06571,1.8639 6.31203,6.14728 8.13778,8.2088 4.81091,5.43198 8.94847,11.28453 12.7123,17.98132 1.27535,2.26925 4.43471,8.64893 5.73533,11.58119 2.32428,5.24051 3.26185,8.08475 3.5647,10.81411 0.21573,1.94338 -0.0831,2.53532 -1.2794,2.53422 -0.54758,0 -1.02243,-0.20601 -4.45303,-1.92686 -10.06168,-5.04737 -17.72503,-8.00499 -26.39985,-10.1889 -4.48209,-1.12835 -11.93123,-2.26849 -14.82279,-2.2687 l -1.05418,-6e-5 0.52981,1.34339 c 3.11225,7.89175 6.02344,19.84358 7.00412,28.75548 0.57107,5.1896 0.60495,9.86551 0.12191,16.83554 -0.46561,6.72034 -0.82047,9.31236 -1.41406,10.32941 -0.353,0.60488 -0.60426,0.7642 -1.20571,0.7642 -1.10445,0 -1.72683,-0.68017 -5.18698,-5.66872 -3.84587,-5.5446 -11.39137,-13.72667 -16.81929,-18.23817 -2.15395,-1.79028 -5.77238,-4.20968 -9.14305,-6.11333 -1.34519,-0.75972 -4.07275,-2.16338 -4.20383,-2.16338 -0.0344,0 -0.0627,0.57306 -0.0627,1.27348 0,1.24029 -0.29074,2.68837 -1.01637,5.06225 -0.15766,0.51589 -0.14802,0.59001 0.1795,1.38438 1.25082,3.03331 2.26367,7.6318 2.68961,12.21177 0.24121,2.59345 0.20663,9.8941 -0.0544,11.45928 -0.28047,1.68275 -0.52644,2.43035 -0.96292,2.92751 -0.33619,0.38289 -0.43579,0.42498 -1.00623,0.42498 -0.57313,0 -0.67432,-0.0434 -1.06761,-0.45721 -0.23894,-0.25141 -0.67913,-0.84114 -0.9782,-1.31047 -0.62245,-0.9769 -1.56133,-2.12199 -3.00432,-3.66424 l -1.00493,-1.07415 -0.70558,0.69829 c -0.67824,0.67114 -0.75862,0.71288 -2.0682,1.07422 -0.74939,0.20677 -1.36254,0.4309 -1.36254,0.49805 0,0.0668 0.189,0.3313 0.42009,0.58705 0.5026,0.55632 0.70448,1.22003 0.60089,1.97569 -0.0849,0.61908 -0.12095,0.56838 1.22072,1.71375 0.8368,0.7144 1.21266,1.41572 1.5729,2.93502 l 0.26931,1.13587 0.79237,0.63409 c 0.43579,0.34873 1.02559,0.91807 1.31054,1.26522 0.75717,0.92227 0.94555,1.57372 0.9408,3.25379 -0.007,1.60678 -0.272,2.75621 -0.95885,4.12007 l -0.41216,0.8184 0.16489,0.85278 c 0.40728,2.10601 -0.0344,4.16635 -1.516,7.06997 -0.48724,0.95492 -0.76565,1.30386 -2.14741,2.69147 -2.44323,2.4535 -6.5104,5.82107 -7.86523,6.5122 -0.70297,0.35864 -2.99564,0.88687 -5.85221,1.34835 -1.37445,0.22206 -2.51177,0.41085 -2.52719,0.41946 -0.0152,0.009 0.31856,0.97228 0.74222,2.14135 0.42367,1.16913 1.24814,3.51311 1.83229,5.20896 0.58409,1.69577 1.37474,3.83525 1.75701,4.75436 l 0.69498,1.67111 1.8285,0.25671 c 4.18977,0.58836 7.58063,1.64722 9.49695,2.96568 2.66612,1.83442 4.49324,4.88895 4.82138,8.0605 0.12143,1.17368 0.0427,1.9491 -0.35169,3.45691 -0.28089,1.07429 -0.30899,1.49127 -0.13197,1.95689 0.0661,0.17378 0.83425,1.0612 1.707,1.97204 2.29308,2.39303 3.14999,3.77678 3.35035,5.41015 0.16586,1.35166 -0.35575,3.14366 -1.29917,4.46343 l -0.40397,0.56514 1.95055,1.87981 c 1.53026,1.47482 2.13432,1.97322 2.80388,2.31361 0.68672,0.34914 1.22217,0.79885 2.74286,2.3039 1.16858,1.15652 2.0664,1.94366 2.35307,2.06303 0.25492,0.10614 1.07774,0.24871 1.82857,0.31677 1.27335,0.11543 1.41028,0.15394 2.03569,0.57203 1.68386,1.12587 9.84409,9.77094 10.92692,11.57616 0.61109,1.01884 0.81469,2.56384 0.51927,3.94133 -0.16827,0.78452 -0.1308,0.87172 1.03827,2.41541 3.04653,4.02288 6.50923,10.15342 7.73856,13.70098 0.69147,1.99532 0.9178,2.94529 1.47854,6.20659 0.88818,5.1657 0.78438,4.80051 1.61959,5.69978 0.40259,0.43352 0.88666,1.12223 1.0818,1.53935 0.92806,1.98314 0.62334,6.31335 -0.62562,8.89159 -1.35931,2.8058 -4.54429,4.78556 -9.02652,5.61072 -0.90726,0.16703 -1.95048,0.21931 -4.81539,0.24128 -2.01144,0.0151 -3.95889,0.007 -4.32766,-0.0186 z m -56.00094,-99.10396 c -0.77109,-3.07808 -1.82162,-7.40685 -2.33448,-9.61948 -0.78321,-3.3786 -3.18822,-13.13205 -3.59226,-14.56795 -0.10993,-0.39088 -0.25367,-0.49675 -1.71237,-1.26143 -1.05473,-0.55295 -1.83663,-1.06106 -2.31616,-1.50498 -1.2743,-1.17974 -2.26332,-2.9406 -2.93922,-5.23272 -0.34425,-1.16734 -0.36195,-2.83763 -0.0585,-5.49687 0.10876,-0.95251 0.19782,-1.76031 0.19782,-1.79496 0,-0.0344 -0.17433,-0.15325 -0.38737,-0.26345 -0.36071,-0.18652 -0.39777,-0.18611 -0.53759,0.007 -0.42346,0.57906 -0.30251,2.62597 0.50797,8.60058 0.89177,6.57336 3.38087,20.53036 4.92753,27.62973 l 0.13665,0.62728 0.57169,0.0805 c 1.13063,0.15904 3.08022,0.67714 3.66657,0.97421 0.8627,0.43717 2.31712,1.64522 3.04909,2.5325 1.07904,1.30813 1.47495,2.37023 1.66512,4.46708 0.0807,0.88983 0.0833,0.89527 0.31932,0.6593 0.23597,-0.23598 0.22633,-0.28412 -1.16411,-5.83451 z M 652.18296,627.88689 c 1.53822,-0.7383 3.05703,-1.79682 5.60427,-3.90572 3.61003,-2.98882 6.2526,-5.55707 7.25711,-7.05296 0.72894,-1.08537 2.15753,-3.82974 2.68197,-5.15178 0.15959,-0.40232 0.32793,-0.78631 0.37421,-0.8534 0.20326,-0.29473 1.24552,-3.78456 1.54597,-5.1761 0.31684,-1.46807 0.32992,-1.6716 0.32903,-5.12507 0,-3.2739 -0.0248,-3.68917 -0.26284,-4.63252 -0.46865,-1.85474 -0.65951,-2.49703 -0.77715,-2.61488 -0.0634,-0.0634 -0.11565,-0.18776 -0.11565,-0.27565 0,-0.0879 -0.11413,-0.41974 -0.25367,-0.73754 -0.13955,-0.31773 -0.33592,-0.76696 -0.43634,-0.99825 -0.37746,-0.86924 -1.09509,-1.81403 -2.34667,-3.08924 -1.10294,-1.12388 -1.43983,-1.38803 -2.31244,-1.8139 -1.45401,-0.70951 -2.85519,-0.93798 -4.48409,-0.7312 -0.65971,0.0838 -1.68413,0.28281 -2.27655,0.44247 -1.0621,0.28612 -3.13391,1.24448 -3.88034,1.79482 -0.62057,0.45762 -4.4776,4.26195 -4.85921,4.79286 -0.83514,1.1619 -2.43291,3.59433 -2.80268,4.26678 -0.22121,0.40225 -0.52038,0.92345 -0.66484,1.15811 -0.30531,0.49599 -1.28373,2.52093 -1.28373,2.65683 0,0.051 -0.16285,0.42002 -0.3619,0.82061 -0.19905,0.40059 -0.36362,0.81338 -0.36572,0.91732 -0.002,0.10393 -0.0521,0.24107 -0.11112,0.30478 -0.26644,0.28756 -1.46017,4.28593 -1.56581,5.24464 -0.0441,0.39997 0.0143,0.60123 0.30073,1.03619 0.7993,1.21405 1.24052,4.54443 1.62497,12.26536 0.18319,3.67911 0.10549,4.6432 -0.43094,5.34651 -0.17694,0.23198 -0.40119,0.42174 -0.49835,0.42174 -0.3047,0 -0.21847,0.59448 0.0976,0.67314 0.80078,0.1992 3.91324,0.39502 6.49501,0.40859 l 2.92922,0.0151 0.84991,-0.40797 z"
         style="fill:#0088aa" />
      <path
         sodipodi:type="arc"
         style="fill:none;stroke:#ffcc00;stroke-width:22.49233818"
         id="path3869"
         sodipodi:cx="189.50462"
         sodipodi:cy="323.31308"
         sodipodi:rx="22.627417"
         sodipodi:ry="51.618793"
         d="m 212.13204,323.31308 c 0,28.50827 -10.13064,51.61879 -22.62742,51.61879 -12.49677,0 -22.62741,-23.11052 -22.62741,-51.61879 0,-28.50827 10.13064,-51.61879 22.62741,-51.61879 12.49678,0 22.62742,23.11052 22.62742,51.61879 z"
         transform="matrix(0.69669212,0,0,0.72632317,411.12043,356.59813)" />
      <g
         style="fill:#554400"
         id="g3968"
         transform="translate(3.5714369,31.925784)">
        <path
           transform="matrix(0.05491294,0.07095371,-0.07095371,0.05491294,440.76309,553.53187)"
           d="m 108.82182,565.19399 -16.129745,89.93856 -43.132838,-80.55229 -90.521022,12.45225 63.281004,-65.9138 -39.815327,-82.24265 82.242649,39.81533 65.913799,-63.281 -12.45225,90.52102 80.55229,43.13284 z"
           inkscape:randomized="0"
           inkscape:rounded="0"
           inkscape:flatsided="false"
           sodipodi:arg2="1.4137167"
           sodipodi:arg1="0.78539816"
           sodipodi:r2="127.60037"
           sodipodi:r1="51.04015"
           sodipodi:cy="529.10315"
           sodipodi:cx="72.73098"
           sodipodi:sides="5"
           id="path3866"
           style="fill:#554400;fill-opacity:1;stroke:none"
           sodipodi:type="star"
           inkscape:transform-center-x="223.76622"
           inkscape:transform-center-y="-28.131378" />
        <path
           inkscape:transform-center-x="224.16021"
           sodipodi:type="star"
           style="fill:#554400;fill-opacity:1;stroke:none"
           id="path3872"
           sodipodi:sides="5"
           sodipodi:cx="72.73098"
           sodipodi:cy="529.10315"
           sodipodi:r1="51.04015"
           sodipodi:r2="127.60037"
           sodipodi:arg1="0.78539816"
           sodipodi:arg2="1.4137167"
           inkscape:flatsided="false"
           inkscape:rounded="0"
           inkscape:randomized="0"
           d="m 108.82182,565.19399 -16.129745,89.93856 -43.132838,-80.55229 -90.521022,12.45225 63.281004,-65.9138 -39.815327,-82.24265 82.242649,39.81533 65.913799,-63.281 -12.45225,90.52102 80.55229,43.13284 z"
           transform="matrix(0.071406,0.05432351,-0.05432351,0.071406,431.29398,604.98168)"
           inkscape:transform-center-y="30.864236" />
        <path
           inkscape:transform-center-y="88.607205"
           transform="matrix(0.08303286,0.03399125,-0.03399125,0.08303286,435.46371,657.12916)"
           d="m 108.82182,565.19399 -16.129745,89.93856 -43.132838,-80.55229 -90.521022,12.45225 63.281004,-65.9138 -39.815327,-82.24265 82.242649,39.81533 65.913799,-63.281 -12.45225,90.52102 80.55229,43.13284 z"
           inkscape:randomized="0"
           inkscape:rounded="0"
           inkscape:flatsided="false"
           sodipodi:arg2="1.4137167"
           sodipodi:arg1="0.78539816"
           sodipodi:r2="127.60037"
           sodipodi:r1="51.04015"
           sodipodi:cy="529.10315"
           sodipodi:cx="72.73098"
           sodipodi:sides="5"
           id="path3874"
           style="fill:#554400;fill-opacity:1;stroke:none"
           sodipodi:type="star"
           inkscape:transform-center-x="208.72232" />
        <path
           transform="matrix(0.03467766,0.08274854,-0.08274854,0.03467766,463.22574,506.28596)"
           d="m 108.82182,565.19399 -16.129745,89.93856 -43.132838,-80.55229 -90.521022,12.45225 63.281004,-65.9138 -39.815327,-82.24265 82.242649,39.81533 65.913799,-63.281 -12.45225,90.52102 80.55229,43.13284 z"
           inkscape:randomized="0"
           inkscape:rounded="0"
           inkscape:flatsided="false"
           sodipodi:arg2="1.4137167"
           sodipodi:arg1="0.78539816"
           sodipodi:r2="127.60037"
           sodipodi:r1="51.04015"
           sodipodi:cy="529.10315"
           sodipodi:cx="72.73098"
           sodipodi:sides="5"
           id="path3878"
           style="fill:#554400;fill-opacity:1;stroke:none"
           sodipodi:type="star"
           inkscape:transform-center-x="208.62312"
           inkscape:transform-center-y="-84.303937" />
        <path
           inkscape:transform-center-y="-134.8796"
           inkscape:transform-center-x="180.51637"
           sodipodi:type="star"
           style="fill:#554400;fill-opacity:1;stroke:none"
           id="path3880"
           sodipodi:sides="5"
           sodipodi:cx="72.73098"
           sodipodi:cy="529.10315"
           sodipodi:r1="51.04015"
           sodipodi:r2="127.60037"
           sodipodi:arg1="0.78539816"
           sodipodi:arg2="1.4137167"
           inkscape:flatsided="false"
           inkscape:rounded="0"
           inkscape:randomized="0"
           d="m 108.82182,565.19399 -16.129745,89.93856 -43.132838,-80.55229 -90.521022,12.45225 63.281004,-65.9138 -39.815327,-82.24265 82.242649,39.81533 65.913799,-63.281 -12.45225,90.52102 80.55229,43.13284 z"
           transform="matrix(0.01207915,0.08890419,-0.08890419,0.01207915,497.15114,466.46368)" />
        <path
           transform="matrix(-0.01134254,0.08900117,-0.08900117,-0.01134254,540.22732,436.77884)"
           d="m 108.82182,565.19399 -16.129745,89.93856 -43.132838,-80.55229 -90.521022,12.45225 63.281004,-65.9138 -39.815327,-82.24265 82.242649,39.81533 65.913799,-63.281 -12.45225,90.52102 80.55229,43.13284 z"
           inkscape:randomized="0"
           inkscape:rounded="0"
           inkscape:flatsided="false"
           sodipodi:arg2="1.4137167"
           sodipodi:arg1="0.78539816"
           sodipodi:r2="127.60037"
           sodipodi:r1="51.04015"
           sodipodi:cy="529.10315"
           sodipodi:cx="72.73098"
           sodipodi:sides="5"
           id="path3882"
           style="fill:#554400;fill-opacity:1;stroke:none"
           sodipodi:type="star"
           inkscape:transform-center-x="140.10776"
           inkscape:transform-center-y="-177.86144" />
        <path
           inkscape:transform-center-y="-208.72232"
           inkscape:transform-center-x="88.607213"
           sodipodi:type="star"
           style="fill:#554400;fill-opacity:1;stroke:none"
           id="path3884"
           sodipodi:sides="5"
           sodipodi:cx="72.73098"
           sodipodi:cy="529.10315"
           sodipodi:r1="51.04015"
           sodipodi:r2="127.60037"
           sodipodi:arg1="0.78539816"
           sodipodi:arg2="1.4137167"
           inkscape:flatsided="false"
           inkscape:rounded="0"
           inkscape:randomized="0"
           d="m 108.82182,565.19399 -16.129745,89.93856 -43.132838,-80.55229 -90.521022,12.45225 63.281004,-65.9138 -39.815327,-82.24265 82.242649,39.81533 65.913799,-63.281 -12.45225,90.52102 80.55229,43.13284 z"
           transform="matrix(-0.03399125,0.08303286,-0.08303286,-0.03399125,589.51872,419.25442)" />
        <path
           transform="matrix(-0.05432351,0.071406,-0.071406,-0.05432351,641.6662,415.08469)"
           d="m 108.82182,565.19399 -16.129745,89.93856 -43.132838,-80.55229 -90.521022,12.45225 63.281004,-65.9138 -39.815327,-82.24265 82.242649,39.81533 65.913799,-63.281 -12.45225,90.52102 80.55229,43.13284 z"
           inkscape:randomized="0"
           inkscape:rounded="0"
           inkscape:flatsided="false"
           sodipodi:arg2="1.4137167"
           sodipodi:arg1="0.78539816"
           sodipodi:r2="127.60037"
           sodipodi:r1="51.04015"
           sodipodi:cy="529.10315"
           sodipodi:cx="72.73098"
           sodipodi:sides="5"
           id="path3886"
           style="fill:#554400;fill-opacity:1;stroke:none"
           sodipodi:type="star"
           inkscape:transform-center-y="-224.16021"
           inkscape:transform-center-x="30.864239" />
        <path
           inkscape:transform-center-y="-223.76622"
           sodipodi:type="star"
           style="fill:#554400;fill-opacity:1;stroke:none"
           id="path3888"
           sodipodi:sides="5"
           sodipodi:cx="72.73098"
           sodipodi:cy="529.10315"
           sodipodi:r1="51.04015"
           sodipodi:r2="127.60037"
           sodipodi:arg1="0.78539816"
           sodipodi:arg2="1.4137167"
           inkscape:flatsided="false"
           inkscape:rounded="0"
           inkscape:randomized="0"
           d="m 108.82182,565.19399 -16.129745,89.93856 -43.132838,-80.55229 -90.521022,12.45225 63.281004,-65.9138 -39.815327,-82.24265 82.242649,39.81533 65.913799,-63.281 -12.45225,90.52102 80.55229,43.13284 z"
           transform="matrix(-0.07095371,0.05491294,-0.05491294,-0.07095371,693.11601,424.5538)"
           inkscape:transform-center-x="-28.131379" />
        <path
           transform="matrix(-0.08274854,0.03467766,-0.03467766,-0.08274854,740.36192,447.01645)"
           d="m 108.82182,565.19399 -16.129745,89.93856 -43.132838,-80.55229 -90.521022,12.45225 63.281004,-65.9138 -39.815327,-82.24265 82.242649,39.81533 65.913799,-63.281 -12.45225,90.52102 80.55229,43.13284 z"
           inkscape:randomized="0"
           inkscape:rounded="0"
           inkscape:flatsided="false"
           sodipodi:arg2="1.4137167"
           sodipodi:arg1="0.78539816"
           sodipodi:r2="127.60037"
           sodipodi:r1="51.04015"
           sodipodi:cy="529.10315"
           sodipodi:cx="72.73098"
           sodipodi:sides="5"
           id="path3890"
           style="fill:#554400;fill-opacity:1;stroke:none"
           sodipodi:type="star"
           inkscape:transform-center-y="-208.62312"
           inkscape:transform-center-x="-84.303924" />
        <path
           inkscape:transform-center-x="-134.87959"
           inkscape:transform-center-y="-180.51639"
           sodipodi:type="star"
           style="fill:#554400;fill-opacity:1;stroke:none"
           id="path3892"
           sodipodi:sides="5"
           sodipodi:cx="72.73098"
           sodipodi:cy="529.10315"
           sodipodi:r1="51.04015"
           sodipodi:r2="127.60037"
           sodipodi:arg1="0.78539816"
           sodipodi:arg2="1.4137167"
           inkscape:flatsided="false"
           inkscape:rounded="0"
           inkscape:randomized="0"
           d="m 108.82182,565.19399 -16.129745,89.93856 -43.132838,-80.55229 -90.521022,12.45225 63.281004,-65.9138 -39.815327,-82.24265 82.242649,39.81533 65.913799,-63.281 -12.45225,90.52102 80.55229,43.13284 z"
           transform="matrix(-0.08890419,0.01207915,-0.01207915,-0.08890419,780.18421,480.94184)" />
        <path
           transform="matrix(-0.08900117,-0.01134254,0.01134254,-0.08900117,809.86905,524.01803)"
           d="m 108.82182,565.19399 -16.129745,89.93856 -43.132838,-80.55229 -90.521022,12.45225 63.281004,-65.9138 -39.815327,-82.24265 82.242649,39.81533 65.913799,-63.281 -12.45225,90.52102 80.55229,43.13284 z"
           inkscape:randomized="0"
           inkscape:rounded="0"
           inkscape:flatsided="false"
           sodipodi:arg2="1.4137167"
           sodipodi:arg1="0.78539816"
           sodipodi:r2="127.60037"
           sodipodi:r1="51.04015"
           sodipodi:cy="529.10315"
           sodipodi:cx="72.73098"
           sodipodi:sides="5"
           id="path3894"
           style="fill:#554400;fill-opacity:1;stroke:none"
           sodipodi:type="star"
           inkscape:transform-center-y="-140.10776"
           inkscape:transform-center-x="-177.86144" />
        <path
           inkscape:transform-center-x="-208.72232"
           inkscape:transform-center-y="-88.607213"
           sodipodi:type="star"
           style="fill:#554400;fill-opacity:1;stroke:none"
           id="path3896"
           sodipodi:sides="5"
           sodipodi:cx="72.73098"
           sodipodi:cy="529.10315"
           sodipodi:r1="51.04015"
           sodipodi:r2="127.60037"
           sodipodi:arg1="0.78539816"
           sodipodi:arg2="1.4137167"
           inkscape:flatsided="false"
           inkscape:rounded="0"
           inkscape:randomized="0"
           d="m 108.82182,565.19399 -16.129745,89.93856 -43.132838,-80.55229 -90.521022,12.45225 63.281004,-65.9138 -39.815327,-82.24265 82.242649,39.81533 65.913799,-63.281 -12.45225,90.52102 80.55229,43.13284 z"
           transform="matrix(-0.08303286,-0.03399125,0.03399125,-0.08303286,827.39347,573.30943)" />
        <path
           transform="matrix(-0.071406,-0.05432351,0.05432351,-0.071406,831.56321,625.45692)"
           d="m 108.82182,565.19399 -16.129745,89.93856 -43.132838,-80.55229 -90.521022,12.45225 63.281004,-65.9138 -39.815327,-82.24265 82.242649,39.81533 65.913799,-63.281 -12.45225,90.52102 80.55229,43.13284 z"
           inkscape:randomized="0"
           inkscape:rounded="0"
           inkscape:flatsided="false"
           sodipodi:arg2="1.4137167"
           sodipodi:arg1="0.78539816"
           sodipodi:r2="127.60037"
           sodipodi:r1="51.04015"
           sodipodi:cy="529.10315"
           sodipodi:cx="72.73098"
           sodipodi:sides="5"
           id="path3898"
           style="fill:#554400;fill-opacity:1;stroke:none"
           sodipodi:type="star"
           inkscape:transform-center-x="-224.16022"
           inkscape:transform-center-y="-30.864237" />
        <path
           inkscape:transform-center-x="-223.76623"
           sodipodi:type="star"
           style="fill:#554400;fill-opacity:1;stroke:none"
           id="path3900"
           sodipodi:sides="5"
           sodipodi:cx="72.73098"
           sodipodi:cy="529.10315"
           sodipodi:r1="51.04015"
           sodipodi:r2="127.60037"
           sodipodi:arg1="0.78539816"
           sodipodi:arg2="1.4137167"
           inkscape:flatsided="false"
           inkscape:rounded="0"
           inkscape:randomized="0"
           d="m 108.82182,565.19399 -16.129745,89.93856 -43.132838,-80.55229 -90.521022,12.45225 63.281004,-65.9138 -39.815327,-82.24265 82.242649,39.81533 65.913799,-63.281 -12.45225,90.52102 80.55229,43.13284 z"
           transform="matrix(-0.05491294,-0.07095371,0.07095371,-0.05491294,822.0941,676.90673)"
           inkscape:transform-center-y="28.131378" />
        <path
           transform="matrix(-0.03467766,-0.08274854,0.08274854,-0.03467766,799.63145,724.15265)"
           d="m 108.82182,565.19399 -16.129745,89.93856 -43.132838,-80.55229 -90.521022,12.45225 63.281004,-65.9138 -39.815327,-82.24265 82.242649,39.81533 65.913799,-63.281 -12.45225,90.52102 80.55229,43.13284 z"
           inkscape:randomized="0"
           inkscape:rounded="0"
           inkscape:flatsided="false"
           sodipodi:arg2="1.4137167"
           sodipodi:arg1="0.78539816"
           sodipodi:r2="127.60037"
           sodipodi:r1="51.04015"
           sodipodi:cy="529.10315"
           sodipodi:cx="72.73098"
           sodipodi:sides="5"
           id="path3902"
           style="fill:#554400;fill-opacity:1;stroke:none"
           sodipodi:type="star"
           inkscape:transform-center-x="-208.62313"
           inkscape:transform-center-y="84.303934" />
        <path
           inkscape:transform-center-y="134.8796"
           inkscape:transform-center-x="-180.51639"
           sodipodi:type="star"
           style="fill:#554400;fill-opacity:1;stroke:none"
           id="path3904"
           sodipodi:sides="5"
           sodipodi:cx="72.73098"
           sodipodi:cy="529.10315"
           sodipodi:r1="51.04015"
           sodipodi:r2="127.60037"
           sodipodi:arg1="0.78539816"
           sodipodi:arg2="1.4137167"
           inkscape:flatsided="false"
           inkscape:rounded="0"
           inkscape:randomized="0"
           d="m 108.82182,565.19399 -16.129745,89.93856 -43.132838,-80.55229 -90.521022,12.45225 63.281004,-65.9138 -39.815327,-82.24265 82.242649,39.81533 65.913799,-63.281 -12.45225,90.52102 80.55229,43.13284 z"
           transform="matrix(-0.01207915,-0.08890419,0.08890419,-0.01207915,765.70605,763.97494)" />
        <path
           inkscape:transform-center-x="177.86144"
           sodipodi:type="star"
           style="fill:#554400;fill-opacity:1;stroke:none"
           id="path3876"
           sodipodi:sides="5"
           sodipodi:cx="72.73098"
           sodipodi:cy="529.10315"
           sodipodi:r1="51.04015"
           sodipodi:r2="127.60037"
           sodipodi:arg1="0.78539816"
           sodipodi:arg2="1.4137167"
           inkscape:flatsided="false"
           inkscape:rounded="0"
           inkscape:randomized="0"
           d="m 108.82182,565.19399 -16.129745,89.93856 -43.132838,-80.55229 -90.521022,12.45225 63.281004,-65.9138 -39.815327,-82.24265 82.242649,39.81533 65.913799,-63.281 -12.45225,90.52102 80.55229,43.13284 z"
           transform="matrix(0.08900117,0.01134254,-0.01134254,0.08900117,452.98813,706.42056)"
           inkscape:transform-center-y="140.10775" />
      </g>
      <path
         inkscape:connector-curvature="0"
         id="path3784"
         d="m 799.42354,800.77699 c -2.57748,0.009 -5.21462,0.0856 -7.92302,0.20251 -0.0605,0.002 -0.11659,-0.002 -0.17719,0 -14.11337,0.35235 -26.89436,5.63748 -36.52689,15.41571 -0.008,0.009 -0.0168,0.0168 -0.0253,0.0253 -0.58535,0.591 -1.09415,1.23551 -1.64535,1.84786 l 0,-5.21451 0,-8.8596 -8.85961,0 -29.89483,0 -2.40475,0 -6.45486,0 -2.40475,0 -23.43998,0 -8.8596,0 0,8.8596 0,1.24035 -2.60726,-5.21451 -2.43006,-4.88544 -5.49295,0 -38.77976,0 -8.8596,0 0,8.8596 0,3.59447 c -0.67154,-0.69499 -1.30474,-1.41978 -2.02505,-2.07568 -10.02267,-9.12617 -23.32396,-13.59307 -38.19755,-13.59316 -14.89733,9e-5 -28.28969,4.99533 -38.22286,14.83351 -0.009,0.008 -0.0169,0.0169 -0.0253,0.0253 -2.50799,2.47064 -4.68122,5.1525 -6.58142,7.99896 l 2.25287,-8.0749 2.75914,-9.84682 -10.12526,-1.34159 c -9.75185,-1.28803 -19.20152,-1.88035 -28.35074,-1.77193 -1.07541,0.0127 -2.18918,0.0433 -3.31602,0.0759 -0.19776,0.006 -0.38247,-0.006 -0.5822,0 l 0,0.0253 c -12.02638,-0.27488 -22.86598,2.43561 -31.31237,8.83429 l -0.0253,0.0253 c -8.30024,6.35231 -13.32395,15.88343 -13.36534,26.09786 -4e-4,0.0257 3.4e-4,0.0503 0,0.0759 -3e-5,0.0169 0,0.0337 0,0.0506 -0.1282,10.73026 4.39264,20.76384 12.63126,27.16101 l -1.62004,5.06263 -6.58142,20.50366 -3.31602,10.35308 10.80871,1.1644 c 15.27907,1.65179 27.49501,2.14404 37.1344,1.24035 l 0,-0.0253 c 10.01819,0.0624 19.53413,-3.19755 27.08508,-9.59368 0.0139,-0.0118 0.0367,-0.0136 0.0506,-0.0253 3.39843,-2.86509 6.12171,-6.31494 8.15084,-10.09995 1.45616,1.87978 2.99818,3.70896 4.73356,5.41701 l 0.0253,0 0,0.0253 c 10.13825,9.90065 23.33768,15.13726 37.79254,15.13726 14.39837,0 27.64066,-5.23212 38.02036,-15.06132 0.78257,-0.74108 1.47359,-1.52783 2.20224,-2.3035 l 0,6.88518 0,8.8596 8.85961,0 25.84473,0 8.8596,0 0,-8.8596 0,-5.97391 6.10047,10.45433 2.58194,4.37918 5.08795,0 33.13491,0 2.40475,0 6.45486,0 2.40475,0 29.89483,0 8.85961,0 0,-8.8596 0,-7.31551 c 0.57305,0.63255 1.11022,1.29264 1.72129,1.89849 9.43524,9.35463 22.0361,14.5731 36.27375,15.49165 l 0.30376,0 0.27844,0 c 12.51992,0 23.64536,-1.25757 33.43868,-3.94885 l 9.34055,-2.55663 -3.39196,-9.08742 -13.01096,-35.03341 -1.39222,-3.77166 1.69598,-5.7714 8.88492,-30.19859 2.80976,-9.51775 -9.77088,-1.72129 c -6.15109,-1.08207 -13.08006,-1.54529 -20.88335,-1.51879 z m 0.0506,17.71921 c 2.80592,-0.01 5.31678,0.11835 7.77114,0.25313 l -1.67067,5.67015 -32.9071,0 c 5.38153,-3.71894 11.54669,-5.55168 19.238,-5.72077 l 0.10125,0 0.0759,0 c 2.6123,-0.11427 5.07945,-0.19466 7.39144,-0.20251 z m -227.05899,0.20251 c 9.16645,5e-5 16.22292,1.93166 22.02244,5.72077 l -40.07072,0 0,11.5428 c -3.80677,3.42377 -6.80039,7.581 -8.60647,12.27688 -2.57395,6.69222 -1.5595,14.75902 2.45537,20.68084 l 0.10126,0.12657 0.10125,0.15188 c 1.60792,2.18221 3.64414,4.04077 5.94859,5.51827 l 0,0.43032 0.68345,0 c 3.60921,2.14421 7.80243,3.33568 11.97313,3.21477 4.42913,-0.12659 8.74838,-1.26584 12.75783,-3.21477 l 15.49165,0 0,-13.49191 c 0.93777,-1.52209 1.73341,-3.12986 2.37943,-4.8095 l 0,-0.0253 0.0253,-0.0253 c 2.52694,-6.67126 1.6574,-14.66317 -2.3035,-20.65553 l -0.10125,-0.15188 0,-11.01122 c 1.17837,0.82354 2.3121,1.72524 3.39196,2.70851 6.39392,5.82221 9.72816,13.38563 10.09995,24.70564 -0.035,9.71381 -3.21219,17.0668 -10.53028,23.99687 -7.38955,6.99765 -15.44877,10.2012 -25.81941,10.2012 -10.43583,0 -18.27835,-3.19182 -25.36378,-10.09995 -0.009,-0.009 -0.0164,-0.0165 -0.0253,-0.0253 -7.03512,-6.93544 -10.17588,-14.37174 -10.17588,-24.22469 0,-9.85355 3.05886,-17.1412 9.79619,-23.76905 l 0,-0.0253 0.0253,0 c 6.62183,-6.56793 14.53827,-9.74549 25.74348,-9.74556 z m -78.09108,1.82254 c 5.04437,-0.0598 10.2736,0.18969 15.5929,0.60752 l -0.91127,3.2654 c -3.26705,-0.17097 -6.80255,-0.24002 -10.78341,-0.20251 -3.9903,0.0381 -7.33599,0.27362 -10.63152,1.24035 -3.29553,0.96672 -7.80429,3.21788 -9.39118,8.45459 -0.81221,2.68032 -0.9039,6.59216 0.9619,9.8215 1.86579,3.22935 4.84426,4.88867 7.34081,5.72078 l 0.10126,0.0506 0.12656,0.0253 c 3.85355,1.17757 8.23898,1.68417 14.50444,2.17693 l 0.0253,0 c 4.50231,0.33892 7.74865,1.7496 10.85934,4.58168 l 0.0506,0.0506 0.0506,0.0506 c 2.50298,2.20856 3.87287,4.97791 3.87291,10.80872 l 0,0.17719 0,0.2025 c 0.23338,5.50909 -1.22227,8.86673 -5.82203,12.73252 l -0.0253,0 -0.0253,0.0253 c -4.67884,3.97444 -9.55483,5.67694 -16.20042,5.46764 l -0.55689,-0.0253 -0.55689,0.0506 c -5.45078,0.51101 -13.46192,0.2616 -22.60465,-0.3797 l 1.11378,-3.49321 c 5.41621,0.11185 10.25466,0.0985 14.02349,-0.22782 2.65828,-0.23015 4.93641,-0.54057 7.21425,-1.21503 2.24797,-0.66562 5.08167,-1.37864 7.49269,-5.29045 l 0.0253,0.0254 c 0.0276,-0.044 0.0485,-0.10687 0.0759,-0.15188 1.53644,-2.51193 2.87525,-6.59082 1.3416,-10.70746 -1.56113,-4.19042 -4.9833,-6.22629 -7.64457,-7.26488 l -0.12657,-0.0759 -0.15188,-0.0506 c -4.12537,-1.44939 -8.45681,-1.79111 -13.71972,-1.79724 -2.48656,-0.035 -6.21514,-1.12352 -10.98591,-4.07542 -4.18832,-3.2253 -5.81936,-6.57731 -5.72078,-12.98564 l 0,-0.0506 0,-0.0759 c 0,-5.2069 1.57151,-8.41769 6.40423,-12.125 0.0105,-0.008 0.0147,-0.0172 0.0253,-0.0253 4.73849,-3.57855 11.18997,-5.53136 20.5796,-5.23983 l 0.30376,0.0253 0.27844,-0.0253 c 1.11885,-0.0383 2.27329,-0.0616 3.49322,-0.0759 z m 136.03289,1.39223 24.42719,0 16.95982,33.89431 16.78262,-3.97416 0,-29.92015 8.12552,0 0,63.05506 -21.56681,0 -20.07333,-34.40057 -16.52949,-28.32542 0,32.80585 0,29.92014 -8.12552,0 0,-63.05506 z m 90.46921,0 14.58038,0 0,63.05506 -14.58038,0 0,-63.05506 z m 48.75314,4.93606 0,18.25079 c -0.97058,1.71758 -1.76339,3.52117 -2.32881,5.41701 -1.53666,5.15225 -0.48953,11.09166 2.32881,15.7701 l 0,8.8596 9.51774,0 c 2.59628,1.23468 5.43437,1.97095 8.25209,2.10099 l 0.0759,0 0.0506,0 c 3.94546,0.12144 7.86295,-0.63514 11.54279,-2.10099 l 8.30272,0 3.56915,9.64431 c -5.60418,0.8579 -11.80127,1.34569 -18.70642,1.36691 -10.74386,-0.71291 -18.53904,-4.11369 -24.8322,-10.35308 -6.24559,-6.19227 -9.18864,-13.36491 -9.18864,-23.56654 l 0,-0.10126 0,-0.10125 c -0.21936,-9.37824 2.59518,-16.43718 9.2393,-23.13622 l 0,-0.0253 0.0253,0 c 0.70591,-0.71759 1.42185,-1.38651 2.15162,-2.02506 z"
         style="font-size:40px;font-style:normal;font-variant:normal;font-weight:normal;font-stretch:normal;text-indent:0;text-align:start;text-decoration:none;line-height:125%;letter-spacing:0px;word-spacing:0px;text-transform:none;direction:ltr;block-progression:tb;writing-mode:lr-tb;text-anchor:start;baseline-shift:baseline;color:#000000;fill:#002255;fill-opacity:1;fill-rule:nonzero;stroke:none;stroke-width:21.89999961999999911;marker:none;visibility:visible;display:inline;overflow:visible;enable-background:accumulate;font-family:NiseSegaSonic;-inkscape-font-specification:NiseSegaSonic" />
      <path
         inkscape:connector-curvature="0"
         id="path3768"
         d="m 799.44885,809.6366 c -2.47354,0.008 -5.05354,0.0847 -7.74583,0.2025 -12.24995,0.26932 -22.45945,4.52971 -30.6036,12.80846 -8.14422,8.21154 -12.06514,18.08155 -11.79593,29.59108 0,12.11534 3.92095,22.06187 11.79593,29.86952 7.87492,7.80764 18.08441,12.12733 30.6036,12.93502 11.91337,0 22.26724,-1.22203 31.08456,-3.64509 l -13.01096,-35.03341 c -2.08659,2.28849 -5.18424,4.94485 -9.28993,7.97364 -4.1058,2.82694 -8.35759,4.18477 -12.73252,4.05011 -4.375,-0.20191 -7.54054,-1.86524 -9.49243,-4.96138 -2.82694,-3.09613 -3.65026,-6.54183 -2.506,-10.37839 1.1442,-3.83649 3.63084,-7.30752 7.46738,-10.40371 4.03841,-3.36531 8.09513,-5.50385 12.20094,-6.37891 4.10568,-0.94225 7.30519,-0.70463 9.59368,0.70876 2.28841,1.41352 3.91778,2.8392 4.86013,4.25261 l 8.88491,-30.19859 c -5.45193,-0.95907 -11.89331,-1.41743 -19.31393,-1.39222 z m -227.03368,0.2025 c -13.05765,8e-5 -23.71703,4.09079 -31.99583,12.3022 -8.27879,8.14426 -12.42876,18.18397 -12.42876,30.09734 0,11.98074 4.28574,22.16487 12.83377,30.57829 8.61534,8.41342 19.13893,12.63126 31.59082,12.63126 12.38451,0 23.03526,-4.21784 31.91989,-12.63126 8.88448,-8.41342 13.31463,-18.59755 13.31471,-30.57829 -0.40392,-13.19221 -4.73223,-23.57139 -13.01096,-31.10987 -8.27886,-7.53835 -19.03145,-11.28959 -32.22364,-11.28967 z m -78.19234,1.82255 c -1.24202,0.0147 -2.46736,0.0339 -3.69572,0.0759 -10.83651,-0.33646 -19.58632,2.01441 -26.24974,7.06237 -6.59611,5.04811 -9.89744,11.44708 -9.89744,19.18737 -0.13461,8.74999 3.03093,15.55632 9.49243,20.4024 5.85573,3.70193 11.16847,5.5776 15.94729,5.64484 4.7788,2e-5 8.41958,0.44132 10.90997,1.31628 2.75958,1.07695 3.40452,2.80815 1.9238,5.16388 -1.4135,2.35584 -10.63855,3.14517 -27.66728,2.40475 l -6.58142,20.50366 c 14.94224,1.61537 26.72178,2.02272 35.33716,1.21503 8.54799,0.26921 15.9653,-2.25136 22.22495,-7.56863 6.32683,-5.31728 9.32264,-11.95386 8.98617,-19.89614 -4e-5,-7.60571 -2.28302,-13.42761 -6.85986,-17.46608 -4.50964,-4.10571 -9.91556,-6.38867 -16.17511,-6.85986 -5.99038,-0.47112 -10.18291,-1.08211 -12.60595,-1.82255 -2.42314,-0.80763 -3.30564,-2.33519 -2.63257,-4.55637 0.67306,-2.22108 4.55143,-3.3498 11.61874,-3.41728 7.13455,-0.0672 12.88854,0.20432 17.26357,0.81003 l 5.74609,-20.50366 c -9.36417,-1.23683 -18.39088,-1.79902 -27.08508,-1.69598 z m 127.27454,1.39222 0,80.77428 25.84473,0 0,-38.77975 22.62996,38.77975 35.53967,0 0,-80.77428 -25.84473,0 0,38.77976 -19.38987,-38.77976 -38.77976,0 z m 90.46922,0 0,80.77428 32.29958,0 0,-80.77428 -32.29958,0 z m -134.43816,22.40214 c 4.30658,0.0514 7.80404,1.90914 10.45433,5.5689 2.62492,3.97119 3.07485,8.18903 1.39222,12.63126 -1.68273,4.37504 -4.71249,7.99048 -9.08742,10.88466 -4.30772,3.16348 -8.80575,4.82672 -13.51723,4.96138 -4.64421,0.13463 -8.38685,-1.73236 -11.21372,-5.5689 -2.69233,-3.97111 -3.2015,-8.12969 -1.51879,-12.50469 1.68265,-4.37494 4.71242,-8.08358 9.08742,-11.11248 4.37496,-3.02876 8.89829,-4.6327 13.54254,-4.83481 0.29446,-0.0126 0.57354,-0.0288 0.86065,-0.0253 z"
         style="font-size:40px;font-style:normal;font-variant:normal;font-weight:normal;font-stretch:normal;line-height:125%;letter-spacing:0px;word-spacing:0px;fill:#ffcc00;fill-opacity:1;stroke:none;font-family:NiseSegaSonic;-inkscape-font-specification:NiseSegaSonic" />
      <path
         inkscape:connector-curvature="0"
         id="path6534"
         d="m 497.04506,747.44195 c 0,-6.91173 -1.1121,-8.78464 -6.6777,-11.24601 -6.8585,-3.03315 -7.5496,-2.99637 -11.6695,0.62101 -1.8793,1.65 -3.8228,3 -4.319,3 -1.2215,0 -11.33381,-10.30837 -11.33381,-11.5536 0,-0.54489 1.38959,-2.67653 3.08798,-4.73697 l 3.08798,-3.74625 -2.29262,-5.73159 c -3.14203,-7.85513 -3.52943,-8.23159 -8.4706,-8.23159 -5.21825,0 -6.41909,-1.62967 -6.39909,-8.68426 0.0239,-8.41666 0.52329,-9.1787 6.23726,-9.51708 3.26282,-0.19323 5.29858,-0.82818 5.76679,-1.79866 1.77677,-3.6827 4.9823,-11.09698 4.9823,-11.52387 0,-0.2587 -1.61739,-2.26063 -3.5942,-4.44872 l -3.59421,-3.97836 5.74643,-6.02452 c 3.16053,-3.31349 6.17569,-6.02453 6.70029,-6.02453 0.5246,0 2.7017,1.38432 4.838,3.07627 l 3.8841,3.07627 6.2197,-2.49932 c 6.5773,-2.64298 7.6167,-3.95721 7.7296,-9.77317 0.069,-3.54858 0.1612,-3.63019 4.6824,-4.1398 2.5367,-0.28592 6.3617,-0.28519 8.5,0.002 3.6879,0.49465 3.8915,0.70757 3.9582,4.1398 0.1121,5.77212 1.138,7.10224 7.466,9.67984 3.28,1.33608 6.3276,2.43132 6.7723,2.43386 0.4448,0.003 2.5608,-1.40343 4.7023,-3.1244 l 3.8937,-3.12903 3.2227,2.7117 c 1.7724,1.49144 4.5052,4.32559 6.0728,6.29812 l 2.85014,3.58641 -2.32514,2.58092 c -5.0197,5.57191 -4.9834,5.31873 -1.7827,12.45244 l 2.9739,6.62849 4.92524,0 c 5.6348,0 6.1211,0.75645 6.1448,9.55887 0.018,6.50504 -1.3849,8.2725 -6.859,8.64421 -4.35904,0.29599 -4.38224,0.31808 -7.37344,7.02437 l -3.0007,6.72745 3.1234,3.55734 c 1.7179,1.95655 3.1234,4.11957 3.1234,4.80672 0,0.68715 -2.4417,3.6607 -5.4259,6.60789 l -5.426,5.35853 -3.9679,-3.14269 c -4.7695,-3.7775 -5.412,-3.81461 -12.4159,-0.71717 -5.677,2.51066 -6.7643,4.31085 -6.7643,11.19948 0,2.31373 -0.2193,2.375 -8.5,2.375 -8.2807,0 -8.5,-0.0613 -8.5,-2.375 z m 16.5,-38.49697 c 4.007,-2.23562 7.7558,-9.63816 6.9015,-13.62803 -1.6957,-7.91922 -7.0212,-12.50266 -14.5195,-12.49626 -6.0563,0.005 -10.541,2.97111 -13.0421,8.62532 -2.5429,5.74858 -1.8617,10.13761 2.311,14.89006 4.8596,5.5348 11.4304,6.46905 18.3491,2.60891 z"
         style="fill:#d4aa00" />
      <g
         id="g3129"
         transform="translate(-229.01095,172.90084)">
        <text
           sodipodi:linespacing="125%"
           id="text3079"
           y="801.33252"
           x="871.54327"
           style="font-size:63.0802269px;font-style:normal;font-variant:normal;font-weight:normal;font-stretch:normal;text-align:center;line-height:125%;letter-spacing:0px;word-spacing:0px;text-anchor:middle;fill:#aa0000;fill-opacity:1;stroke:#aa0000;stroke-width:16;font-family:Bandwidth Bandless BRK;-inkscape-font-specification:Bandwidth Bandless BRK"
           xml:space="preserve"><tspan
             style="font-style:normal;font-variant:normal;font-weight:normal;font-stretch:normal;text-align:center;text-anchor:middle;fill:#aa0000;stroke:#aa0000;stroke-width:16;font-family:Bandwidth Bandless BRK;-inkscape-font-specification:Bandwidth Bandless BRK"
             y="801.33252"
             x="871.54327"
             id="tspan3081"
             sodipodi:role="line">Engine Demo</tspan></text>
        <text
           xml:space="preserve"
           style="font-size:63.08023071px;font-style:normal;font-variant:normal;font-weight:normal;font-stretch:normal;text-align:center;line-height:125%;letter-spacing:0px;word-spacing:0px;text-anchor:middle;fill:#ffffff;fill-opacity:1;stroke:none;font-family:Bandwidth Bandless BRK;-inkscape-font-specification:Bandwidth Bandless BRK"
           x="871.54321"
           y="801.3324"
           id="text3858"
           sodipodi:linespacing="125%"><tspan
             sodipodi:role="line"
             id="tspan3860"
             x="871.54321"
             y="801.3324"
             style="font-style:normal;font-variant:normal;font-weight:normal;font-stretch:normal;text-align:center;text-anchor:middle;fill:#ffffff;font-family:Bandwidth Bandless BRK;-inkscape-font-specification:Bandwidth Bandless BRK">Engine Demo</tspan></text>
      </g>
    </g>
  </g>
</svg>
